SplineFontDB: 3.2
FontName: STRANGERCREATURERegular
FullName: STRANGER CREATURE
FamilyName: STRANGER CREATURE
Weight: Book
Copyright: (c)2019. Putracetol Studio.
Version: 1.002;Fontself Maker 3.4.0
ItalicAngle: 0
UnderlinePosition: 0
UnderlineWidth: 0
Ascent: 800
Descent: 200
InvalidEm: 0
sfntRevision: 0x00010000
LayerCount: 2
Layer: 0 1 "Back" 1
Layer: 1 1 "Fore" 0
XUID: [1021 112 458306869 18956]
StyleMap: 0x0040
FSType: 0
OS2Version: 4
OS2_WeightWidthSlopeOnly: 0
OS2_UseTypoMetrics: 0
CreationTime: 1580198222
ModificationTime: 1633473698
PfmFamily: 81
TTFWeight: 400
TTFWidth: 5
LineGap: 0
VLineGap: 0
Panose: 0 0 0 0 0 0 0 0 0 0
OS2TypoAscent: 900
OS2TypoAOffset: 0
OS2TypoDescent: -400
OS2TypoDOffset: 0
OS2TypoLinegap: 0
OS2WinAscent: 1210
OS2WinAOffset: 0
OS2WinDescent: 271
OS2WinDOffset: 0
HheadAscent: 900
HheadAOffset: 0
HheadDescent: -400
HheadDOffset: 0
OS2SubXSize: 650
OS2SubYSize: 699
OS2SubXOff: 0
OS2SubYOff: 140
OS2SupXSize: 650
OS2SupYSize: 699
OS2SupXOff: 0
OS2SupYOff: 479
OS2StrikeYSize: 49
OS2StrikeYPos: 258
OS2CapHeight: 641
OS2XHeight: 723
OS2Vendor: 'XXXX'
OS2CodePages: 00000003.00000000
OS2UnicodeRanges: 80000007.10000002.00000000.00000000
Lookup: 4 0 1 "'liga' Standard Ligatures in Latin lookup 0" { "'liga' Standard Ligatures in Latin lookup 0 subtable"  } ['liga' ('DFLT' <'dflt' > 'latn' <'dflt' > ) ]
Lookup: 258 0 0 "'kern' Horizontal Kerning in Latin lookup 0" { "'kern' Horizontal Kerning in Latin lookup 0 subtable"  } ['kern' ('DFLT' <'dflt' > 'latn' <'dflt' > ) ]
DEI: 91125
ShortTable: maxp 16
  1
  0
  197
  3598
  40
  0
  0
  2
  0
  1
  1
  0
  64
  0
  0
  0
EndShort

StartChar: .notdef
Encoding: 65536 -1 0
Width: 427
Flags: W
LayerCount: 2
Fore
SplineSet
-50 700 m 1,0,-1
 377 700 l 1,1,-1
 377 0 l 1,2,-1
 -50 0 l 1,3,-1
 -50 700 l 1,0,-1
-22 680 m 1,4,-1
 163 371 l 1,5,-1
 349 680 l 1,6,-1
 -22 680 l 1,4,-1
151 350 m 1,7,-1
 -29 650 l 1,8,-1
 -29 49 l 1,9,-1
 151 350 l 1,7,-1
164 329 m 1,10,-1
 -21 21 l 1,11,-1
 349 21 l 1,12,-1
 164 329 l 1,10,-1
176 350 m 1,13,-1
 357 47 l 1,14,-1
 357 652 l 1,15,-1
 176 350 l 1,13,-1
EndSplineSet
EndChar

StartChar: exclam
Encoding: 33 33 6
Width: 842
GlyphClass: 2
Flags: W
LayerCount: 2
Fore
SplineSet
782 240 m 2,0,-1
 60 240 l 2,1,2
 39 240 39 240 24.5 254.5 c 128,-1,3
 10 269 10 269 10 290 c 2,4,-1
 10 1012 l 2,5,6
 10 1032 10 1032 24.5 1047 c 128,-1,7
 39 1062 39 1062 60 1062 c 2,8,-1
 782 1062 l 2,9,10
 802 1062 802 1062 816.5 1047 c 128,-1,11
 831 1032 831 1032 831 1012 c 2,12,-1
 831 290 l 2,13,14
 831 269 831 269 816.5 254.5 c 128,-1,15
 802 240 802 240 782 240 c 2,0,-1
10 1211 m 1,16,-1
 51 1211 l 2,17,18
 69 1211 69 1211 69 1193 c 2,19,-1
 69 1152 l 2,20,21
 69 1135 69 1135 51 1135 c 2,22,-1
 28 1135 l 1,23,-1
 28 1087 l 1,24,-1
 10 1087 l 1,25,-1
 10 1211 l 1,16,-1
51 1155 m 2,26,-1
 51 1191 l 2,27,28
 51 1194 51 1194 50 1195 c 128,-1,29
 49 1196 49 1196 45 1196 c 2,30,-1
 28 1196 l 1,31,-1
 28 1149 l 1,32,-1
 45 1149 l 2,33,34
 49 1149 49 1149 50 1150 c 128,-1,35
 51 1151 51 1151 51 1155 c 2,26,-1
103 1101 m 1,36,-1
 139 1101 l 1,37,-1
 139 1087 l 1,38,-1
 85 1087 l 1,39,-1
 85 1211 l 1,40,-1
 138 1211 l 1,41,-1
 138 1196 l 1,42,-1
 103 1196 l 1,43,-1
 103 1158 l 1,44,-1
 132 1158 l 1,45,-1
 132 1143 l 1,46,-1
 103 1143 l 1,47,-1
 103 1101 l 1,36,-1
171 1137 m 1,48,-1
 171 1087 l 1,49,-1
 153 1087 l 1,50,-1
 153 1211 l 1,51,-1
 194 1211 l 2,52,53
 212 1211 212 1211 212 1193 c 2,54,-1
 212 1154 l 2,55,56
 212 1139 212 1139 199 1137 c 1,57,-1
 218 1087 l 1,58,-1
 199 1087 l 1,59,-1
 181 1137 l 1,60,-1
 171 1137 l 1,48,-1
171 1196 m 1,61,-1
 171 1151 l 1,62,-1
 188 1151 l 2,63,64
 192 1151 192 1151 193 1152 c 256,65,66
 194 1153 194 1153 194 1157 c 2,67,-1
 194 1191 l 2,68,69
 194 1194 194 1194 193 1195 c 256,70,71
 192 1196 192 1196 188 1196 c 2,72,-1
 171 1196 l 1,61,-1
267 1107 m 2,73,-1
 267 1137 l 2,74,75
 267 1141 267 1141 266 1142 c 128,-1,76
 265 1143 265 1143 261 1143 c 2,77,-1
 247 1143 l 2,78,79
 229 1143 229 1143 229 1161 c 2,80,-1
 229 1193 l 2,81,82
 229 1211 229 1211 247 1211 c 2,83,-1
 267 1211 l 2,84,85
 285 1211 285 1211 285 1193 c 2,86,-1
 285 1175 l 1,87,-1
 267 1175 l 1,88,-1
 267 1191 l 2,89,90
 267 1194 267 1194 266 1195 c 128,-1,91
 265 1196 265 1196 261 1196 c 2,92,-1
 253 1196 l 2,93,94
 249 1196 249 1196 248 1195 c 128,-1,95
 247 1194 247 1194 247 1191 c 2,96,-1
 247 1163 l 2,97,98
 247 1159 247 1159 248 1158 c 128,-1,99
 249 1157 249 1157 253 1157 c 2,100,-1
 267 1157 l 2,101,102
 286 1157 286 1157 286 1140 c 2,103,-1
 286 1104 l 2,104,105
 286 1087 286 1087 267 1087 c 2,106,-1
 248 1087 l 2,107,108
 229 1087 229 1087 229 1104 c 2,109,-1
 229 1122 l 1,110,-1
 247 1122 l 1,111,-1
 247 1107 l 2,112,113
 247 1103 247 1103 248.5 1102 c 128,-1,114
 250 1101 250 1101 253 1101 c 2,115,-1
 261 1101 l 2,116,117
 265 1101 265 1101 266 1102 c 128,-1,118
 267 1103 267 1103 267 1107 c 2,73,-1
321 1211 m 2,119,-1
 343 1211 l 2,120,121
 361 1211 361 1211 361 1193 c 2,122,-1
 361 1104 l 2,123,124
 361 1087 361 1087 343 1087 c 2,125,-1
 321 1087 l 2,126,127
 302 1087 302 1087 302 1104 c 2,128,-1
 302 1193 l 2,129,130
 302 1211 302 1211 321 1211 c 2,119,-1
343 1107 m 2,131,-1
 343 1191 l 2,132,133
 343 1194 343 1194 342 1195 c 128,-1,134
 341 1196 341 1196 337 1196 c 2,135,-1
 326 1196 l 2,136,137
 322 1196 322 1196 321 1195 c 128,-1,138
 320 1194 320 1194 320 1191 c 2,139,-1
 320 1107 l 2,140,141
 320 1103 320 1103 321 1102 c 128,-1,142
 322 1101 322 1101 326 1101 c 2,143,-1
 337 1101 l 2,144,145
 341 1101 341 1101 342 1102 c 128,-1,146
 343 1103 343 1103 343 1107 c 2,131,-1
425 1211 m 1,147,-1
 442 1211 l 1,148,-1
 442 1087 l 1,149,-1
 424 1087 l 1,150,-1
 398 1176 l 1,151,-1
 398 1087 l 1,152,-1
 381 1087 l 1,153,-1
 381 1211 l 1,154,-1
 400 1211 l 1,155,-1
 425 1124 l 1,156,-1
 425 1211 l 1,147,-1
508 1087 m 1,157,-1
 503 1115 l 1,158,-1
 477 1115 l 1,159,-1
 472 1087 l 1,160,-1
 455 1087 l 1,161,-1
 477 1211 l 1,162,-1
 503 1211 l 1,163,-1
 526 1087 l 1,164,-1
 508 1087 l 1,157,-1
489 1195 m 1,165,-1
 479 1130 l 1,166,-1
 501 1130 l 1,167,-1
 489 1195 l 1,165,-1
557 1101 m 1,168,-1
 587 1101 l 1,169,-1
 587 1087 l 1,170,-1
 539 1087 l 1,171,-1
 539 1211 l 1,172,-1
 557 1211 l 1,173,-1
 557 1101 l 1,168,-1
668 1211 m 1,174,-1
 686 1211 l 1,175,-1
 686 1104 l 2,176,177
 686 1087 686 1087 667 1087 c 2,178,-1
 645 1087 l 2,179,180
 627 1087 627 1087 627 1104 c 2,181,-1
 627 1211 l 1,182,-1
 645 1211 l 1,183,-1
 645 1107 l 2,184,185
 645 1103 645 1103 646 1102 c 128,-1,186
 647 1101 647 1101 651 1101 c 2,187,-1
 662 1101 l 2,188,189
 666 1101 666 1101 667 1102 c 128,-1,190
 668 1103 668 1103 668 1107 c 2,191,-1
 668 1211 l 1,174,-1
742 1107 m 2,192,-1
 742 1137 l 2,193,194
 742 1141 742 1141 741 1142 c 256,195,196
 740 1143 740 1143 736 1143 c 2,197,-1
 721 1143 l 2,198,199
 703 1143 703 1143 703 1161 c 2,200,-1
 703 1193 l 2,201,202
 703 1211 703 1211 722 1211 c 2,203,-1
 741 1211 l 2,204,205
 760 1211 760 1211 760 1193 c 2,206,-1
 760 1175 l 1,207,-1
 742 1175 l 1,208,-1
 742 1191 l 2,209,210
 742 1194 742 1194 740.5 1195 c 128,-1,211
 739 1196 739 1196 736 1196 c 2,212,-1
 727 1196 l 2,213,214
 724 1196 724 1196 722.5 1195 c 128,-1,215
 721 1194 721 1194 721 1191 c 2,216,-1
 721 1163 l 2,217,218
 721 1159 721 1159 722.5 1158 c 128,-1,219
 724 1157 724 1157 727 1157 c 2,220,-1
 742 1157 l 2,221,222
 760 1157 760 1157 760 1140 c 2,223,-1
 760 1104 l 2,224,225
 760 1087 760 1087 741 1087 c 2,226,-1
 722 1087 l 2,227,228
 704 1087 704 1087 704 1104 c 2,229,-1
 704 1122 l 1,230,-1
 722 1122 l 1,231,-1
 722 1107 l 2,232,233
 722 1103 722 1103 723 1102 c 256,234,235
 724 1101 724 1101 728 1101 c 2,236,-1
 736 1101 l 2,237,238
 740 1101 740 1101 741 1102 c 128,-1,239
 742 1103 742 1103 742 1107 c 2,192,-1
796 1101 m 1,240,-1
 832 1101 l 1,241,-1
 832 1087 l 1,242,-1
 778 1087 l 1,243,-1
 778 1211 l 1,244,-1
 830 1211 l 1,245,-1
 830 1196 l 1,246,-1
 796 1196 l 1,247,-1
 796 1158 l 1,248,-1
 824 1158 l 1,249,-1
 824 1143 l 1,250,-1
 796 1143 l 1,251,-1
 796 1101 l 1,240,-1
10 202 m 1,252,-1
 58 202 l 2,253,254
 79 202 79 202 79 182 c 2,255,-1
 79 133 l 2,256,257
 79 113 79 113 58 113 c 2,258,-1
 31 113 l 1,259,-1
 31 57 l 1,260,-1
 10 57 l 1,261,-1
 10 202 l 1,252,-1
599 35 m 2,262,-1
 621 35 l 2,263,264
 624 35 624 35 626 33.5 c 128,-1,265
 628 32 628 32 628 29 c 2,266,-1
 628 6 l 2,267,268
 628 4 628 4 626 2 c 128,-1,269
 624 0 624 0 621 0 c 2,270,-1
 599 0 l 2,271,272
 596 0 596 0 594 2 c 128,-1,273
 592 4 592 4 592 6 c 2,274,-1
 592 29 l 2,275,276
 592 32 592 32 594 33.5 c 128,-1,277
 596 35 596 35 599 35 c 2,262,-1
599 5 m 2,278,-1
 621 5 l 2,279,280
 622 5 622 5 622 6 c 2,281,-1
 622 29 l 1,282,283
 622 29.5 l 0,284,285
 622 30 622 30 621 30 c 2,286,-1
 599 30 l 2,287,288
 598 30 598 30 598 29.5 c 0,289,-1
 598 29 l 1,290,-1
 598 6 l 2,291,292
 598 5 598 5 599 5 c 2,278,-1
545 0 m 1,293,-1
 540 0 l 1,294,-1
 540 35 l 1,295,-1
 545 35 l 1,296,-1
 545 0 l 1,293,-1
457 0 m 1,297,-1
 457 35 l 1,298,-1
 486 35 l 2,299,300
 489 35 489 35 491 33 c 0,301,302
 493 32 493 32 493 29 c 2,303,-1
 493 6 l 2,304,305
 493 4 493 4 491 2 c 128,-1,306
 489 0 489 0 486 0 c 2,307,-1
 457 0 l 1,297,-1
488 6 m 1,308,-1
 488 29 l 1,309,-1
 487.5 29.5 l 0,310,311
 487 30 487 30 486 30 c 2,312,-1
 464 30 l 2,313,314
 463 30 463 30 463 29.5 c 0,315,-1
 463 29 l 1,316,-1
 463 6 l 2,317,318
 463 5 463 5 464 5 c 2,319,-1
 486 5 l 2,320,321
 487 5 487 5 487.5 5.5 c 0,322,-1
 488 6 l 1,308,-1
405 6 m 2,323,-1
 405 35 l 1,324,-1
 410 35 l 1,325,-1
 410 6 l 2,326,327
 410 4 410 4 408.5 2 c 128,-1,328
 407 0 407 0 404 0 c 2,329,-1
 381 0 l 2,330,331
 379 0 379 0 377 2 c 128,-1,332
 375 4 375 4 375 6 c 2,333,-1
 375 35 l 1,334,-1
 380 35 l 1,335,-1
 380 6 l 1,336,-1
 380.5 5.5 l 0,337,-1
 381 5 l 1,338,-1
 404 5 l 1,339,340
 405 6 l 2,323,-1
294 35 m 1,341,-1
 330 35 l 1,342,-1
 330 30 l 1,343,-1
 315 30 l 1,344,-1
 315 0 l 1,345,-1
 309 0 l 1,346,-1
 309 30 l 1,347,-1
 294 30 l 1,348,-1
 294 35 l 1,341,-1
249 29 m 2,349,-1
 249 27 l 1,350,-1
 244 27 l 1,351,-1
 244 29 l 1,352,353
 243.5 29.5 l 0,354,-1
 243 30 l 1,355,-1
 220 30 l 2,356,357
 219 29 l 1,358,-1
 219 21 l 1,359,360
 219.5 20.5 l 0,361,-1
 220 20 l 1,362,-1
 243 20 l 2,363,364
 245 20 245 20 247 18.5 c 128,-1,365
 249 17 249 17 249 14 c 2,366,-1
 249 6 l 2,367,368
 249 4 249 4 247 2 c 128,-1,369
 245 0 245 0 243 0 c 2,370,-1
 220 0 l 2,371,372
 218 0 218 0 216 2 c 128,-1,373
 214 4 214 4 214 6 c 2,374,-1
 214 8 l 1,375,-1
 219 8 l 1,376,-1
 219 6 l 1,377,378
 219.5 5.5 l 0,379,-1
 220 5 l 1,380,-1
 243 5 l 1,381,382
 244 6 l 2,383,-1
 244 14 l 1,384,385
 243.5 14.5 l 0,386,-1
 243 15 l 1,387,-1
 220 15 l 2,388,389
 217 15 217 15 215.5 17 c 128,-1,390
 214 19 214 19 214 21 c 2,391,-1
 214 29 l 2,392,393
 214 32 214 32 215.5 33.5 c 128,-1,394
 217 35 217 35 220 35 c 2,395,-1
 243 35 l 2,396,397
 246 35 246 35 247.5 33.5 c 128,-1,398
 249 32 249 32 249 29 c 2,349,-1
796 74 m 1,399,-1
 832 74 l 1,400,-1
 832 57 l 1,401,-1
 775 57 l 1,402,-1
 775 202 l 1,403,-1
 796 202 l 1,404,-1
 796 74 l 1,399,-1
704 202 m 2,405,-1
 730 202 l 2,406,407
 751 202 751 202 751 182 c 2,408,-1
 751 77 l 2,409,410
 751 57 751 57 730 57 c 2,411,-1
 704 57 l 2,412,413
 682 57 682 57 682 77 c 2,414,-1
 682 182 l 2,415,416
 682 202 682 202 704 202 c 2,405,-1
730 80 m 2,417,-1
 730 178 l 2,418,419
 730 183 730 183 729 184 c 128,-1,420
 728 185 728 185 723 185 c 2,421,-1
 710 185 l 2,422,423
 706 185 706 185 704.5 184 c 128,-1,424
 703 183 703 183 703 178 c 2,425,-1
 703 80 l 2,426,427
 703 76 703 76 704.5 75 c 128,-1,428
 706 74 706 74 710 74 c 2,429,-1
 723 74 l 2,430,431
 728 74 728 74 729 75 c 128,-1,432
 730 76 730 76 730 80 c 2,417,-1
670 202 m 1,433,-1
 670 185 l 1,434,-1
 646 185 l 1,435,-1
 646 57 l 1,436,-1
 625 57 l 1,437,-1
 625 185 l 1,438,-1
 600 185 l 1,439,-1
 600 202 l 1,440,-1
 670 202 l 1,433,-1
553 74 m 1,441,-1
 595 74 l 1,442,-1
 595 57 l 1,443,-1
 531 57 l 1,444,-1
 531 202 l 1,445,-1
 593 202 l 1,446,-1
 593 185 l 1,447,-1
 553 185 l 1,448,-1
 553 140 l 1,449,-1
 586 140 l 1,450,-1
 586 123 l 1,451,-1
 553 123 l 1,452,-1
 553 74 l 1,441,-1
511 182 m 2,453,-1
 511 157 l 1,454,-1
 489 157 l 1,455,-1
 489 179 l 2,456,457
 489 183 489 183 488 184.5 c 128,-1,458
 487 186 487 186 483 186 c 2,459,-1
 471 186 l 2,460,461
 467 186 467 186 465.5 184.5 c 128,-1,462
 464 183 464 183 464 179 c 2,463,-1
 464 80 l 2,464,465
 464 76 464 76 465.5 74.5 c 128,-1,466
 467 73 467 73 471 73 c 2,467,-1
 483 73 l 2,468,469
 487 73 487 73 488 74.5 c 128,-1,470
 489 76 489 76 489 80 c 2,471,-1
 489 102 l 1,472,-1
 511 102 l 1,473,-1
 511 77 l 2,474,475
 511 56 511 56 489 56 c 2,476,-1
 464 56 l 2,477,478
 443 56 443 56 443 77 c 2,479,-1
 443 182 l 2,480,481
 443 202 443 202 464 202 c 2,482,-1
 489 202 l 2,483,484
 511 202 511 202 511 182 c 2,453,-1
408 57 m 1,485,-1
 402 90 l 1,486,-1
 371 90 l 1,487,-1
 366 57 l 1,488,-1
 345 57 l 1,489,-1
 371 202 l 1,490,-1
 401 202 l 1,491,-1
 429 57 l 1,492,-1
 408 57 l 1,485,-1
386 184 m 1,493,-1
 374 107 l 1,494,-1
 399 107 l 1,495,-1
 386 184 l 1,493,-1
283 115 m 1,496,-1
 283 57 l 1,497,-1
 262 57 l 1,498,-1
 262 202 l 1,499,-1
 310 202 l 2,500,501
 332 202 332 202 332 182 c 2,502,-1
 332 136 l 2,503,504
 332 118 332 118 316 116 c 1,505,-1
 339 57 l 1,506,-1
 316 57 l 1,507,-1
 295 115 l 1,508,-1
 283 115 l 1,496,-1
283 185 m 1,509,-1
 283 132 l 1,510,-1
 304 132 l 2,511,512
 308 132 308 132 309.5 133.5 c 128,-1,513
 311 135 311 135 311 139 c 2,514,-1
 311 178 l 2,515,516
 311 183 311 183 309.5 184 c 128,-1,517
 308 185 308 185 304 185 c 2,518,-1
 283 185 l 1,509,-1
249 202 m 1,519,-1
 249 185 l 1,520,-1
 225 185 l 1,521,-1
 225 57 l 1,522,-1
 204 57 l 1,523,-1
 204 185 l 1,524,-1
 179 185 l 1,525,-1
 179 202 l 1,526,-1
 249 202 l 1,519,-1
146 202 m 1,527,-1
 167 202 l 1,528,-1
 167 77 l 2,529,530
 167 57 167 57 145 57 c 2,531,-1
 119 57 l 2,532,533
 97 57 97 57 97 77 c 2,534,-1
 97 202 l 1,535,-1
 118 202 l 1,536,-1
 118 80 l 2,537,538
 118 76 118 76 119.5 75 c 128,-1,539
 121 74 121 74 125 74 c 2,540,-1
 139 74 l 2,541,542
 143 74 143 74 144 75 c 0,543,544
 146 76 146 76 146 80 c 2,545,-1
 146 202 l 1,527,-1
58 137 m 2,546,-1
 58 178 l 2,547,548
 58 183 58 183 57 184 c 128,-1,549
 56 185 56 185 51 185 c 2,550,-1
 31 185 l 1,551,-1
 31 130 l 1,552,-1
 51 130 l 2,553,554
 56 130 56 130 57 131 c 128,-1,555
 58 132 58 132 58 137 c 2,546,-1
685 886 m 1,556,557
 639 932 639 932 578 958 c 128,-1,558
 517 984 517 984 450 984 c 0,559,560
 365 984 365 984 292 944.5 c 128,-1,561
 219 905 219 905 173 837 c 0,562,563
 107 741 107 741 118 621 c 128,-1,564
 129 501 129 501 214 415 c 0,565,566
 277 353 277 353 361.5 329.5 c 128,-1,567
 446 306 446 306 533 328 c 128,-1,568
 620 350 620 350 685 415 c 1,569,570
 677 423 677 423 668 432.5 c 128,-1,571
 659 442 659 442 648 453 c 128,-1,572
 637 464 637 464 631 470 c 1,573,574
 574 413 574 413 494 398.5 c 128,-1,575
 414 384 414 384 341 419 c 1,576,-1
 341 501 l 1,577,578
 389 465 389 465 450 465 c 0,579,580
 527 465 527 465 581 519.5 c 128,-1,581
 635 574 635 574 635 651 c 128,-1,582
 635 728 635 728 581 782.5 c 128,-1,583
 527 837 527 837 450 837 c 2,584,-1
 273 837 l 1,585,586
 349 909 349 909 453 907.5 c 128,-1,587
 557 906 557 906 631 832 c 1,588,589
 685 886 l 1,556,557
264 474 m 1,590,591
 210 531 210 531 197 609.5 c 128,-1,592
 184 688 184 688 218 760 c 1,593,-1
 450 760 l 2,594,595
 485 760 485 760 512 740.5 c 128,-1,596
 539 721 539 721 550.5 693 c 128,-1,597
 562 665 562 665 557 632 c 128,-1,598
 552 599 552 599 527 574 c 128,-1,599
 502 549 502 549 469 543.5 c 128,-1,600
 436 538 436 538 408 550 c 128,-1,601
 380 562 380 562 360.5 589 c 128,-1,602
 341 616 341 616 341 651 c 1,603,-1
 264 651 l 1,604,-1
 264 474 l 1,590,591
EndSplineSet
EndChar

StartChar: quotedbl
Encoding: 34 34 7
AltUni2: 00201d.ffffffff.0
Width: 234
GlyphClass: 2
Flags: W
LayerCount: 2
Fore
SplineSet
73 496 m 0,0,1
 71 492 71 492 68 488 c 128,-1,2
 65 484 65 484 62 482.5 c 128,-1,3
 59 481 59 481 56 479 c 128,-1,4
 53 477 53 477 51 476 c 0,5,6
 45 470 45 470 35 464 c 128,-1,7
 25 458 25 458 20 459 c 0,8,9
 17 461 17 461 17 465 c 0,10,11
 17 468 17 468 22.5 473 c 128,-1,12
 28 478 28 478 28 479 c 256,13,14
 28 480 28 480 31 485.5 c 128,-1,15
 34 491 34 491 38.5 498.5 c 128,-1,16
 43 506 43 506 45 512 c 0,17,18
 45 514 45 514 47.5 519.5 c 128,-1,19
 50 525 50 525 51.5 530.5 c 128,-1,20
 53 536 53 536 53 544 c 0,21,22
 53 551 53 551 53.5 554 c 128,-1,23
 54 557 54 557 54 565 c 1,24,-1
 46 565 l 2,25,26
 37 566 37 566 31 567.5 c 0,27,28
 24 569 24 569 22 571 c 0,29,-1
 20 573 l 1,30,31
 13 573 13 573 12 580 c 0,32,-1
 10 593 l 2,33,34
 10 596 10 596 20 633 c 0,35,36
 24 650 24 650 38 661 c 128,-1,37
 52 672 52 672 70 666 c 128,-1,38
 88 660 88 660 99 632 c 0,39,40
 101 628 101 628 101.5 624.5 c 128,-1,41
 102 621 102 621 102 618.5 c 128,-1,42
 102 616 102 616 102.5 614 c 128,-1,43
 103 612 103 612 104 611 c 0,44,45
 105 607 105 607 104.5 591 c 128,-1,46
 104 575 104 575 102 566 c 0,47,48
 99 556 99 556 97 551.5 c 128,-1,49
 95 547 95 547 93.5 544 c 128,-1,50
 92 541 92 541 90 536 c 0,51,52
 86 523 86 523 83 515.5 c 128,-1,53
 80 508 80 508 78.5 506 c 128,-1,54
 77 504 77 504 75.5 501.5 c 128,-1,55
 74 499 74 499 73 496 c 0,0,1
191 496 m 0,56,57
 189 492 189 492 186 488 c 128,-1,58
 183 484 183 484 180 482.5 c 128,-1,59
 177 481 177 481 174 479 c 128,-1,60
 171 477 171 477 170 476 c 0,61,62
 164 470 164 470 153.5 464 c 128,-1,63
 143 458 143 458 138 459 c 0,64,65
 135 461 135 461 135 465 c 0,66,67
 135 468 135 468 140.5 473 c 128,-1,68
 146 478 146 478 146 479 c 256,69,70
 146 480 146 480 149 485.5 c 128,-1,71
 152 491 152 491 156.5 498.5 c 128,-1,72
 161 506 161 506 163 512 c 0,73,74
 164 515 164 515 165.5 518.5 c 128,-1,75
 167 522 167 522 168 524.5 c 128,-1,76
 169 527 169 527 170 532.5 c 128,-1,77
 171 538 171 538 171 544 c 0,78,79
 171 551 171 551 171.5 554 c 128,-1,80
 172 557 172 557 172 565 c 1,81,-1
 164 565 l 2,82,83
 155 566 155 566 149 567.5 c 0,84,85
 142 569 142 569 140 571 c 0,86,-1
 138 573 l 1,87,88
 131 573 131 573 130 580 c 0,89,90
 128 592 128 592 128 593 c 0,91,92
 128 596 128 596 138 633 c 0,93,94
 142 650 142 650 156 661 c 128,-1,95
 170 672 170 672 188 666 c 128,-1,96
 206 660 206 660 218 632 c 0,97,98
 219 629 219 629 219.5 626 c 128,-1,99
 220 623 220 623 220 621 c 128,-1,100
 220 619 220 619 220.5 617 c 128,-1,101
 221 615 221 615 221 613.5 c 128,-1,102
 221 612 221 612 222 611 c 0,103,104
 224 607 224 607 223 591 c 128,-1,105
 222 575 222 575 220 566 c 0,106,107
 216 553 216 553 213 546.5 c 128,-1,108
 210 540 210 540 208 536 c 0,109,110
 204 523 204 523 201 515.5 c 128,-1,111
 198 508 198 508 196.5 506 c 128,-1,112
 195 504 195 504 193.5 501.5 c 128,-1,113
 192 499 192 499 191 496 c 0,56,57
EndSplineSet
EndChar

StartChar: numbersign
Encoding: 35 35 8
Width: 842
GlyphClass: 2
Flags: W
LayerCount: 2
Fore
SplineSet
782 240 m 2,0,-1
 60 240 l 2,1,2
 39 240 39 240 24.5 254.5 c 128,-1,3
 10 269 10 269 10 290 c 2,4,-1
 10 1012 l 2,5,6
 10 1032 10 1032 24.5 1047 c 128,-1,7
 39 1062 39 1062 60 1062 c 2,8,-1
 782 1062 l 2,9,10
 802 1062 802 1062 816.5 1047 c 128,-1,11
 831 1032 831 1032 831 1012 c 2,12,-1
 831 290 l 2,13,14
 831 269 831 269 816.5 254.5 c 128,-1,15
 802 240 802 240 782 240 c 2,0,-1
10 1211 m 1,16,-1
 51 1211 l 2,17,18
 69 1211 69 1211 69 1193 c 2,19,-1
 69 1152 l 2,20,21
 69 1135 69 1135 51 1135 c 2,22,-1
 28 1135 l 1,23,-1
 28 1087 l 1,24,-1
 10 1087 l 1,25,-1
 10 1211 l 1,16,-1
51 1155 m 2,26,-1
 51 1191 l 2,27,28
 51 1194 51 1194 50 1195 c 128,-1,29
 49 1196 49 1196 45 1196 c 2,30,-1
 28 1196 l 1,31,-1
 28 1149 l 1,32,-1
 45 1149 l 2,33,34
 49 1149 49 1149 50 1150 c 128,-1,35
 51 1151 51 1151 51 1155 c 2,26,-1
103 1101 m 1,36,-1
 139 1101 l 1,37,-1
 139 1087 l 1,38,-1
 85 1087 l 1,39,-1
 85 1211 l 1,40,-1
 138 1211 l 1,41,-1
 138 1196 l 1,42,-1
 103 1196 l 1,43,-1
 103 1158 l 1,44,-1
 132 1158 l 1,45,-1
 132 1143 l 1,46,-1
 103 1143 l 1,47,-1
 103 1101 l 1,36,-1
171 1137 m 1,48,-1
 171 1087 l 1,49,-1
 153 1087 l 1,50,-1
 153 1211 l 1,51,-1
 194 1211 l 2,52,53
 212 1211 212 1211 212 1193 c 2,54,-1
 212 1154 l 2,55,56
 212 1139 212 1139 199 1137 c 1,57,-1
 218 1087 l 1,58,-1
 199 1087 l 1,59,-1
 181 1137 l 1,60,-1
 171 1137 l 1,48,-1
171 1196 m 1,61,-1
 171 1151 l 1,62,-1
 188 1151 l 2,63,64
 192 1151 192 1151 193 1152 c 128,-1,65
 194 1153 194 1153 194 1157 c 2,66,-1
 194 1191 l 2,67,68
 194 1194 194 1194 193 1195 c 128,-1,69
 192 1196 192 1196 188 1196 c 2,70,-1
 171 1196 l 1,61,-1
267 1107 m 2,71,-1
 267 1137 l 2,72,73
 267 1141 267 1141 266 1142 c 128,-1,74
 265 1143 265 1143 261 1143 c 2,75,-1
 247 1143 l 2,76,77
 229 1143 229 1143 229 1161 c 2,78,-1
 229 1193 l 2,79,80
 229 1211 229 1211 247 1211 c 2,81,-1
 267 1211 l 2,82,83
 285 1211 285 1211 285 1193 c 2,84,-1
 285 1175 l 1,85,-1
 267 1175 l 1,86,-1
 267 1191 l 2,87,88
 267 1194 267 1194 266 1195 c 128,-1,89
 265 1196 265 1196 261 1196 c 2,90,-1
 253 1196 l 2,91,92
 249 1196 249 1196 248 1195 c 128,-1,93
 247 1194 247 1194 247 1191 c 2,94,-1
 247 1163 l 2,95,96
 247 1159 247 1159 248 1158 c 128,-1,97
 249 1157 249 1157 253 1157 c 2,98,-1
 267 1157 l 2,99,100
 286 1157 286 1157 286 1140 c 2,101,-1
 286 1104 l 2,102,103
 286 1087 286 1087 267 1087 c 2,104,-1
 248 1087 l 2,105,106
 229 1087 229 1087 229 1104 c 2,107,-1
 229 1122 l 1,108,-1
 247 1122 l 1,109,-1
 247 1107 l 2,110,111
 247 1103 247 1103 248.5 1102 c 128,-1,112
 250 1101 250 1101 253 1101 c 2,113,-1
 261 1101 l 2,114,115
 265 1101 265 1101 266 1102 c 128,-1,116
 267 1103 267 1103 267 1107 c 2,71,-1
321 1211 m 2,117,-1
 343 1211 l 2,118,119
 361 1211 361 1211 361 1193 c 2,120,-1
 361 1104 l 2,121,122
 361 1087 361 1087 343 1087 c 2,123,-1
 321 1087 l 2,124,125
 302 1087 302 1087 302 1104 c 2,126,-1
 302 1193 l 2,127,128
 302 1211 302 1211 321 1211 c 2,117,-1
343 1107 m 2,129,-1
 343 1191 l 2,130,131
 343 1194 343 1194 342 1195 c 128,-1,132
 341 1196 341 1196 337 1196 c 2,133,-1
 326 1196 l 2,134,135
 322 1196 322 1196 321 1195 c 128,-1,136
 320 1194 320 1194 320 1191 c 2,137,-1
 320 1107 l 2,138,139
 320 1103 320 1103 321 1102 c 128,-1,140
 322 1101 322 1101 326 1101 c 2,141,-1
 337 1101 l 2,142,143
 341 1101 341 1101 342 1102 c 128,-1,144
 343 1103 343 1103 343 1107 c 2,129,-1
425 1211 m 1,145,-1
 442 1211 l 1,146,-1
 442 1087 l 1,147,-1
 424 1087 l 1,148,-1
 398 1176 l 1,149,-1
 398 1087 l 1,150,-1
 381 1087 l 1,151,-1
 381 1211 l 1,152,-1
 400 1211 l 1,153,-1
 425 1124 l 1,154,-1
 425 1211 l 1,145,-1
508 1087 m 1,155,-1
 503 1115 l 1,156,-1
 477 1115 l 1,157,-1
 472 1087 l 1,158,-1
 454 1087 l 1,159,-1
 477 1211 l 1,160,-1
 502 1211 l 1,161,-1
 526 1087 l 1,162,-1
 508 1087 l 1,155,-1
489 1195 m 1,163,-1
 479 1130 l 1,164,-1
 501 1130 l 1,165,-1
 489 1195 l 1,163,-1
557 1101 m 1,166,-1
 587 1101 l 1,167,-1
 587 1087 l 1,168,-1
 539 1087 l 1,169,-1
 539 1211 l 1,170,-1
 557 1211 l 1,171,-1
 557 1101 l 1,166,-1
668 1211 m 1,172,-1
 686 1211 l 1,173,-1
 686 1104 l 2,174,175
 686 1087 686 1087 667 1087 c 2,176,-1
 645 1087 l 2,177,178
 627 1087 627 1087 627 1104 c 2,179,-1
 627 1211 l 1,180,-1
 645 1211 l 1,181,-1
 645 1107 l 2,182,183
 645 1103 645 1103 646 1102 c 128,-1,184
 647 1101 647 1101 651 1101 c 2,185,-1
 662 1101 l 2,186,187
 666 1101 666 1101 667 1102 c 128,-1,188
 668 1103 668 1103 668 1107 c 2,189,-1
 668 1211 l 1,172,-1
742 1107 m 2,190,-1
 742 1137 l 2,191,192
 742 1141 742 1141 741 1142 c 128,-1,193
 740 1143 740 1143 736 1143 c 2,194,-1
 721 1143 l 2,195,196
 703 1143 703 1143 703 1161 c 2,197,-1
 703 1193 l 2,198,199
 703 1211 703 1211 722 1211 c 2,200,-1
 741 1211 l 2,201,202
 760 1211 760 1211 760 1193 c 2,203,-1
 760 1175 l 1,204,-1
 742 1175 l 1,205,-1
 742 1191 l 2,206,207
 742 1194 742 1194 740.5 1195 c 128,-1,208
 739 1196 739 1196 736 1196 c 2,209,-1
 727 1196 l 2,210,211
 724 1196 724 1196 722.5 1195 c 128,-1,212
 721 1194 721 1194 721 1191 c 2,213,-1
 721 1163 l 2,214,215
 721 1159 721 1159 722.5 1158 c 128,-1,216
 724 1157 724 1157 727 1157 c 2,217,-1
 742 1157 l 2,218,219
 760 1157 760 1157 760 1140 c 2,220,-1
 760 1104 l 2,221,222
 760 1087 760 1087 741 1087 c 2,223,-1
 722 1087 l 2,224,225
 704 1087 704 1087 704 1104 c 2,226,-1
 704 1122 l 1,227,-1
 722 1122 l 1,228,-1
 722 1107 l 2,229,230
 722 1103 722 1103 723 1102 c 128,-1,231
 724 1101 724 1101 728 1101 c 2,232,-1
 736 1101 l 2,233,234
 740 1101 740 1101 741 1102 c 128,-1,235
 742 1103 742 1103 742 1107 c 2,190,-1
796 1101 m 1,236,-1
 831 1101 l 1,237,-1
 831 1087 l 1,238,-1
 778 1087 l 1,239,-1
 778 1211 l 1,240,-1
 830 1211 l 1,241,-1
 830 1196 l 1,242,-1
 796 1196 l 1,243,-1
 796 1158 l 1,244,-1
 824 1158 l 1,245,-1
 824 1143 l 1,246,-1
 796 1143 l 1,247,-1
 796 1101 l 1,236,-1
10 202 m 1,248,-1
 58 202 l 2,249,250
 79 202 79 202 79 182 c 2,251,-1
 79 133 l 2,252,253
 79 113 79 113 58 113 c 2,254,-1
 31 113 l 1,255,-1
 31 57 l 1,256,-1
 10 57 l 1,257,-1
 10 202 l 1,248,-1
599 35 m 2,258,-1
 621 35 l 2,259,260
 624 35 624 35 626 33.5 c 128,-1,261
 628 32 628 32 628 29 c 2,262,-1
 628 6 l 2,263,264
 628 4 628 4 626 2 c 128,-1,265
 624 0 624 0 621 0 c 2,266,-1
 599 0 l 2,267,268
 596 0 596 0 594 2 c 128,-1,269
 592 4 592 4 592 6 c 2,270,-1
 592 29 l 2,271,272
 592 32 592 32 594 33.5 c 128,-1,273
 596 35 596 35 599 35 c 2,258,-1
599 5 m 2,274,-1
 621 5 l 2,275,276
 622 5 622 5 622 6 c 2,277,-1
 622 29 l 1,278,279
 622 29.5 l 0,280,281
 622 30 622 30 621 30 c 2,282,-1
 599 30 l 2,283,284
 598 30 598 30 598 29.5 c 0,285,-1
 598 29 l 1,286,-1
 598 6 l 2,287,288
 598 5 598 5 599 5 c 2,274,-1
545 0 m 1,289,-1
 540 0 l 1,290,-1
 540 35 l 1,291,-1
 545 35 l 1,292,-1
 545 0 l 1,289,-1
457 0 m 1,293,-1
 457 35 l 1,294,-1
 486 35 l 2,295,296
 489 35 489 35 491 33.5 c 128,-1,297
 493 32 493 32 493 29 c 2,298,-1
 493 6 l 2,299,300
 493 4 493 4 491 2 c 128,-1,301
 489 0 489 0 486 0 c 2,302,-1
 457 0 l 1,293,-1
487 6 m 2,303,-1
 487 29 l 1,304,-1
 487 29.5 l 0,305,306
 487 30 487 30 486 30 c 2,307,-1
 464 30 l 2,308,309
 463 30 463 30 463 29.5 c 0,310,-1
 463 29 l 1,311,-1
 463 6 l 2,312,313
 463 5 463 5 464 5 c 2,314,-1
 486 5 l 2,315,316
 487 5 487 5 487 6 c 2,303,-1
405 6 m 2,317,-1
 405 35 l 1,318,-1
 410 35 l 1,319,-1
 410 6 l 2,320,321
 410 4 410 4 408.5 2 c 128,-1,322
 407 0 407 0 404 0 c 2,323,-1
 381 0 l 2,324,325
 379 0 379 0 377 2 c 256,326,327
 375 4 375 4 375 6 c 2,328,-1
 375 35 l 1,329,-1
 380 35 l 1,330,-1
 380 6 l 1,331,-1
 380.5 5.5 l 0,332,-1
 381 5 l 1,333,-1
 404 5 l 1,334,335
 405 6 l 2,317,-1
294 35 m 1,336,-1
 330 35 l 1,337,-1
 330 30 l 1,338,-1
 315 30 l 1,339,-1
 315 0 l 1,340,-1
 309 0 l 1,341,-1
 309 30 l 1,342,-1
 294 30 l 1,343,-1
 294 35 l 1,336,-1
249 29 m 2,344,-1
 249 27 l 1,345,-1
 244 27 l 1,346,-1
 244 29 l 1,347,348
 243.5 29.5 l 0,349,-1
 243 30 l 1,350,-1
 220 30 l 2,351,352
 219 29 l 1,353,-1
 219 21 l 1,354,355
 219.5 20.5 l 0,356,-1
 220 20 l 1,357,-1
 243 20 l 2,358,359
 245 20 245 20 247 18 c 128,-1,360
 249 16 249 16 249 14 c 2,361,-1
 249 6 l 2,362,363
 249 4 249 4 247 2 c 128,-1,364
 245 0 245 0 243 0 c 2,365,-1
 220 0 l 2,366,367
 218 0 218 0 216 2 c 128,-1,368
 214 4 214 4 214 6 c 2,369,-1
 214 8 l 1,370,-1
 219 8 l 1,371,-1
 219 6 l 1,372,373
 219.5 5.5 l 0,374,-1
 220 5 l 1,375,-1
 243 5 l 1,376,377
 244 6 l 2,378,-1
 244 14 l 1,379,380
 243.5 14.5 l 0,381,-1
 243 15 l 1,382,-1
 220 15 l 2,383,384
 218 15 218 15 216 17 c 128,-1,385
 214 19 214 19 214 21 c 2,386,-1
 214 29 l 2,387,388
 214 32 214 32 216 33.5 c 128,-1,389
 218 35 218 35 220 35 c 2,390,-1
 243 35 l 2,391,392
 246 35 246 35 247.5 33.5 c 128,-1,393
 249 32 249 32 249 29 c 2,344,-1
796 74 m 1,394,-1
 831 74 l 1,395,-1
 831 57 l 1,396,-1
 775 57 l 1,397,-1
 775 202 l 1,398,-1
 796 202 l 1,399,-1
 796 74 l 1,394,-1
704 202 m 2,400,-1
 730 202 l 2,401,402
 751 202 751 202 751 182 c 2,403,-1
 751 77 l 2,404,405
 751 57 751 57 730 57 c 2,406,-1
 704 57 l 2,407,408
 682 57 682 57 682 77 c 2,409,-1
 682 182 l 2,410,411
 682 202 682 202 704 202 c 2,400,-1
730 80 m 2,412,-1
 730 178 l 2,413,414
 730 183 730 183 729 184 c 128,-1,415
 728 185 728 185 723 185 c 2,416,-1
 710 185 l 2,417,418
 706 185 706 185 705 184 c 0,419,420
 703 183 703 183 703 178 c 2,421,-1
 703 80 l 2,422,423
 703 76 703 76 704.5 75 c 128,-1,424
 706 74 706 74 710 74 c 2,425,-1
 723 74 l 2,426,427
 728 74 728 74 729 75 c 128,-1,428
 730 76 730 76 730 80 c 2,412,-1
670 202 m 1,429,-1
 670 185 l 1,430,-1
 646 185 l 1,431,-1
 646 57 l 1,432,-1
 625 57 l 1,433,-1
 625 185 l 1,434,-1
 600 185 l 1,435,-1
 600 202 l 1,436,-1
 670 202 l 1,429,-1
553 74 m 1,437,-1
 595 74 l 1,438,-1
 595 57 l 1,439,-1
 531 57 l 1,440,-1
 531 202 l 1,441,-1
 593 202 l 1,442,-1
 593 185 l 1,443,-1
 553 185 l 1,444,-1
 553 140 l 1,445,-1
 586 140 l 1,446,-1
 586 123 l 1,447,-1
 553 123 l 1,448,-1
 553 74 l 1,437,-1
511 182 m 2,449,-1
 511 157 l 1,450,-1
 489 157 l 1,451,-1
 489 179 l 2,452,453
 489 183 489 183 488 184.5 c 128,-1,454
 487 186 487 186 483 186 c 2,455,-1
 471 186 l 2,456,457
 467 186 467 186 465.5 184.5 c 128,-1,458
 464 183 464 183 464 179 c 2,459,-1
 464 80 l 2,460,461
 464 76 464 76 465.5 74.5 c 128,-1,462
 467 73 467 73 471 73 c 2,463,-1
 483 73 l 2,464,465
 487 73 487 73 488 74.5 c 128,-1,466
 489 76 489 76 489 80 c 2,467,-1
 489 102 l 1,468,-1
 511 102 l 1,469,-1
 511 77 l 2,470,471
 511 56 511 56 489 56 c 2,472,-1
 464 56 l 2,473,474
 443 56 443 56 443 77 c 2,475,-1
 443 182 l 2,476,477
 443 202 443 202 464 202 c 2,478,-1
 489 202 l 2,479,480
 511 202 511 202 511 182 c 2,449,-1
408 57 m 1,481,-1
 402 90 l 1,482,-1
 371 90 l 1,483,-1
 366 57 l 1,484,-1
 345 57 l 1,485,-1
 371 202 l 1,486,-1
 401 202 l 1,487,-1
 429 57 l 1,488,-1
 408 57 l 1,481,-1
386 184 m 1,489,-1
 374 107 l 1,490,-1
 399 107 l 1,491,-1
 386 184 l 1,489,-1
283 115 m 1,492,-1
 283 57 l 1,493,-1
 262 57 l 1,494,-1
 262 202 l 1,495,-1
 310 202 l 2,496,497
 332 202 332 202 332 182 c 2,498,-1
 332 136 l 2,499,500
 332 118 332 118 316 116 c 1,501,-1
 339 57 l 1,502,-1
 316 57 l 1,503,-1
 295 115 l 1,504,-1
 283 115 l 1,492,-1
283 185 m 1,505,-1
 283 132 l 1,506,-1
 304 132 l 2,507,508
 308 132 308 132 309.5 133.5 c 128,-1,509
 311 135 311 135 311 139 c 2,510,-1
 311 178 l 2,511,512
 311 183 311 183 309 184 c 0,513,514
 308 185 308 185 304 185 c 2,515,-1
 283 185 l 1,505,-1
249 202 m 1,516,-1
 249 185 l 1,517,-1
 225 185 l 1,518,-1
 225 57 l 1,519,-1
 204 57 l 1,520,-1
 204 185 l 1,521,-1
 179 185 l 1,522,-1
 179 202 l 1,523,-1
 249 202 l 1,516,-1
145 202 m 1,524,-1
 167 202 l 1,525,-1
 167 77 l 2,526,527
 167 57 167 57 145 57 c 2,528,-1
 119 57 l 2,529,530
 97 57 97 57 97 77 c 2,531,-1
 97 202 l 1,532,-1
 118 202 l 1,533,-1
 118 80 l 2,534,535
 118 76 118 76 119.5 75 c 128,-1,536
 121 74 121 74 125 74 c 2,537,-1
 139 74 l 2,538,539
 143 74 143 74 144 75 c 128,-1,540
 145 76 145 76 145 80 c 2,541,-1
 145 202 l 1,524,-1
58 137 m 2,542,-1
 58 178 l 2,543,544
 58 183 58 183 57 184 c 128,-1,545
 56 185 56 185 51 185 c 2,546,-1
 31 185 l 1,547,-1
 31 130 l 1,548,-1
 51 130 l 2,549,550
 56 130 56 130 57 131 c 128,-1,551
 58 132 58 132 58 137 c 2,542,-1
685 886 m 1,552,553
 639 932 639 932 578 958 c 128,-1,554
 517 984 517 984 450 984 c 0,555,556
 365 984 365 984 292 944.5 c 128,-1,557
 219 905 219 905 173 837 c 0,558,559
 107 741 107 741 118 621 c 128,-1,560
 129 501 129 501 214 415 c 0,561,562
 241 389 241 389 273 369 c 128,-1,563
 305 349 305 349 339.5 337 c 128,-1,564
 374 325 374 325 410.5 320 c 128,-1,565
 447 315 447 315 483.5 319 c 128,-1,566
 520 323 520 323 555 334.5 c 128,-1,567
 590 346 590 346 623.5 366.5 c 128,-1,568
 657 387 657 387 685 415 c 1,569,570
 679 421 679 421 668 432.5 c 128,-1,571
 657 444 657 444 648 453 c 128,-1,572
 639 462 639 462 631 470 c 1,573,574
 574 413 574 413 494 398.5 c 128,-1,575
 414 384 414 384 341 419 c 1,576,-1
 341 501 l 1,577,578
 390 465 390 465 450 465 c 0,579,580
 527 465 527 465 581 519.5 c 128,-1,581
 635 574 635 574 635 651 c 128,-1,582
 635 728 635 728 581 782.5 c 128,-1,583
 527 837 527 837 450 837 c 2,584,-1
 273 837 l 1,585,586
 349 909 349 909 453 907.5 c 128,-1,587
 557 906 557 906 631 832 c 1,588,589
 685 886 l 1,552,553
264 474 m 1,590,591
 210 531 210 531 197 609.5 c 128,-1,592
 184 688 184 688 218 760 c 1,593,-1
 450 760 l 2,594,595
 473 760 473 760 493.5 751 c 128,-1,596
 514 742 514 742 528 727 c 128,-1,597
 542 712 542 712 550 692.5 c 128,-1,598
 558 673 558 673 558.5 652.5 c 128,-1,599
 559 632 559 632 551 611 c 128,-1,600
 543 590 543 590 527 574 c 0,601,602
 502 549 502 549 469 543.5 c 128,-1,603
 436 538 436 538 408 550 c 128,-1,604
 380 562 380 562 360.5 589 c 128,-1,605
 341 616 341 616 341 651 c 1,606,-1
 264 651 l 1,607,-1
 264 474 l 1,590,591
EndSplineSet
EndChar

StartChar: dollar
Encoding: 36 36 9
Width: 842
GlyphClass: 2
Flags: W
LayerCount: 2
Fore
SplineSet
782 240 m 2,0,-1
 60 240 l 2,1,2
 39 240 39 240 24.5 254.5 c 128,-1,3
 10 269 10 269 10 290 c 2,4,-1
 10 1012 l 2,5,6
 10 1032 10 1032 24.5 1047 c 128,-1,7
 39 1062 39 1062 60 1062 c 2,8,-1
 782 1062 l 2,9,10
 802 1062 802 1062 816.5 1047 c 128,-1,11
 831 1032 831 1032 831 1012 c 2,12,-1
 831 290 l 2,13,14
 831 269 831 269 816.5 254.5 c 128,-1,15
 802 240 802 240 782 240 c 2,0,-1
10 1211 m 1,16,-1
 51 1211 l 2,17,18
 69 1211 69 1211 69 1193 c 2,19,-1
 69 1152 l 2,20,21
 69 1135 69 1135 51 1135 c 2,22,-1
 28 1135 l 1,23,-1
 28 1087 l 1,24,-1
 10 1087 l 1,25,-1
 10 1211 l 1,16,-1
51 1155 m 2,26,-1
 51 1191 l 2,27,28
 51 1194 51 1194 50 1195 c 128,-1,29
 49 1196 49 1196 45 1196 c 2,30,-1
 28 1196 l 1,31,-1
 28 1149 l 1,32,-1
 45 1149 l 2,33,34
 49 1149 49 1149 50 1150 c 128,-1,35
 51 1151 51 1151 51 1155 c 2,26,-1
103 1101 m 1,36,-1
 139 1101 l 1,37,-1
 139 1087 l 1,38,-1
 85 1087 l 1,39,-1
 85 1211 l 1,40,-1
 138 1211 l 1,41,-1
 138 1196 l 1,42,-1
 103 1196 l 1,43,-1
 103 1158 l 1,44,-1
 132 1158 l 1,45,-1
 132 1143 l 1,46,-1
 103 1143 l 1,47,-1
 103 1101 l 1,36,-1
171 1137 m 1,48,-1
 171 1087 l 1,49,-1
 153 1087 l 1,50,-1
 153 1211 l 1,51,-1
 194 1211 l 2,52,53
 212 1211 212 1211 212 1193 c 2,54,-1
 212 1154 l 2,55,56
 212 1139 212 1139 199 1137 c 1,57,-1
 218 1087 l 1,58,-1
 199 1087 l 1,59,-1
 181 1137 l 1,60,-1
 171 1137 l 1,48,-1
171 1196 m 1,61,-1
 171 1151 l 1,62,-1
 188 1151 l 2,63,64
 192 1151 192 1151 193 1152 c 128,-1,65
 194 1153 194 1153 194 1157 c 2,66,-1
 194 1191 l 2,67,68
 194 1194 194 1194 193 1195 c 128,-1,69
 192 1196 192 1196 188 1196 c 2,70,-1
 171 1196 l 1,61,-1
267 1107 m 2,71,-1
 267 1137 l 2,72,73
 267 1141 267 1141 266 1142 c 128,-1,74
 265 1143 265 1143 261 1143 c 2,75,-1
 247 1143 l 2,76,77
 229 1143 229 1143 229 1161 c 2,78,-1
 229 1193 l 2,79,80
 229 1211 229 1211 247 1211 c 2,81,-1
 267 1211 l 2,82,83
 285 1211 285 1211 285 1193 c 2,84,-1
 285 1175 l 1,85,-1
 267 1175 l 1,86,-1
 267 1191 l 2,87,88
 267 1194 267 1194 266 1195 c 128,-1,89
 265 1196 265 1196 261 1196 c 2,90,-1
 253 1196 l 2,91,92
 249 1196 249 1196 248 1195 c 128,-1,93
 247 1194 247 1194 247 1191 c 2,94,-1
 247 1163 l 2,95,96
 247 1159 247 1159 248 1158 c 128,-1,97
 249 1157 249 1157 253 1157 c 2,98,-1
 267 1157 l 2,99,100
 286 1157 286 1157 286 1140 c 2,101,-1
 286 1104 l 2,102,103
 286 1087 286 1087 267 1087 c 2,104,-1
 248 1087 l 2,105,106
 229 1087 229 1087 229 1104 c 2,107,-1
 229 1122 l 1,108,-1
 247 1122 l 1,109,-1
 247 1107 l 2,110,111
 247 1103 247 1103 248.5 1102 c 128,-1,112
 250 1101 250 1101 253 1101 c 2,113,-1
 261 1101 l 2,114,115
 265 1101 265 1101 266 1102 c 128,-1,116
 267 1103 267 1103 267 1107 c 2,71,-1
321 1211 m 2,117,-1
 343 1211 l 2,118,119
 361 1211 361 1211 361 1193 c 2,120,-1
 361 1104 l 2,121,122
 361 1087 361 1087 343 1087 c 2,123,-1
 321 1087 l 2,124,125
 302 1087 302 1087 302 1104 c 2,126,-1
 302 1193 l 2,127,128
 302 1211 302 1211 321 1211 c 2,117,-1
343 1107 m 2,129,-1
 343 1191 l 2,130,131
 343 1194 343 1194 342 1195 c 128,-1,132
 341 1196 341 1196 337 1196 c 2,133,-1
 326 1196 l 2,134,135
 322 1196 322 1196 321 1195 c 128,-1,136
 320 1194 320 1194 320 1191 c 2,137,-1
 320 1107 l 2,138,139
 320 1103 320 1103 321 1102 c 128,-1,140
 322 1101 322 1101 326 1101 c 2,141,-1
 337 1101 l 2,142,143
 341 1101 341 1101 342 1102 c 128,-1,144
 343 1103 343 1103 343 1107 c 2,129,-1
425 1211 m 1,145,-1
 442 1211 l 1,146,-1
 442 1087 l 1,147,-1
 424 1087 l 1,148,-1
 398 1176 l 1,149,-1
 398 1087 l 1,150,-1
 381 1087 l 1,151,-1
 381 1211 l 1,152,-1
 400 1211 l 1,153,-1
 425 1124 l 1,154,-1
 425 1211 l 1,145,-1
508 1087 m 1,155,-1
 503 1115 l 1,156,-1
 477 1115 l 1,157,-1
 472 1087 l 1,158,-1
 455 1087 l 1,159,-1
 477 1211 l 1,160,-1
 503 1211 l 1,161,-1
 526 1087 l 1,162,-1
 508 1087 l 1,155,-1
489 1195 m 1,163,-1
 479 1130 l 1,164,-1
 501 1130 l 1,165,-1
 489 1195 l 1,163,-1
557 1101 m 1,166,-1
 587 1101 l 1,167,-1
 587 1087 l 1,168,-1
 539 1087 l 1,169,-1
 539 1211 l 1,170,-1
 557 1211 l 1,171,-1
 557 1101 l 1,166,-1
668 1211 m 1,172,-1
 686 1211 l 1,173,-1
 686 1104 l 2,174,175
 686 1087 686 1087 667 1087 c 2,176,-1
 645 1087 l 2,177,178
 627 1087 627 1087 627 1104 c 2,179,-1
 627 1211 l 1,180,-1
 645 1211 l 1,181,-1
 645 1107 l 2,182,183
 645 1103 645 1103 646 1102 c 128,-1,184
 647 1101 647 1101 651 1101 c 2,185,-1
 662 1101 l 2,186,187
 666 1101 666 1101 667 1102 c 128,-1,188
 668 1103 668 1103 668 1107 c 2,189,-1
 668 1211 l 1,172,-1
742 1107 m 2,190,-1
 742 1137 l 2,191,192
 742 1141 742 1141 741 1142 c 128,-1,193
 740 1143 740 1143 736 1143 c 2,194,-1
 721 1143 l 2,195,196
 703 1143 703 1143 703 1161 c 2,197,-1
 703 1193 l 2,198,199
 703 1211 703 1211 722 1211 c 2,200,-1
 741 1211 l 2,201,202
 760 1211 760 1211 760 1193 c 2,203,-1
 760 1175 l 1,204,-1
 742 1175 l 1,205,-1
 742 1191 l 2,206,207
 742 1194 742 1194 740.5 1195 c 128,-1,208
 739 1196 739 1196 736 1196 c 2,209,-1
 727 1196 l 2,210,211
 724 1196 724 1196 722.5 1195 c 128,-1,212
 721 1194 721 1194 721 1191 c 2,213,-1
 721 1163 l 2,214,215
 721 1159 721 1159 722.5 1158 c 128,-1,216
 724 1157 724 1157 727 1157 c 2,217,-1
 742 1157 l 2,218,219
 760 1157 760 1157 760 1140 c 2,220,-1
 760 1104 l 2,221,222
 760 1087 760 1087 741 1087 c 2,223,-1
 722 1087 l 2,224,225
 704 1087 704 1087 704 1104 c 2,226,-1
 704 1122 l 1,227,-1
 722 1122 l 1,228,-1
 722 1107 l 2,229,230
 722 1103 722 1103 723 1102 c 128,-1,231
 724 1101 724 1101 728 1101 c 2,232,-1
 736 1101 l 2,233,234
 740 1101 740 1101 741 1102 c 128,-1,235
 742 1103 742 1103 742 1107 c 2,190,-1
796 1101 m 1,236,-1
 832 1101 l 1,237,-1
 832 1087 l 1,238,-1
 778 1087 l 1,239,-1
 778 1211 l 1,240,-1
 830 1211 l 1,241,-1
 830 1196 l 1,242,-1
 796 1196 l 1,243,-1
 796 1158 l 1,244,-1
 824 1158 l 1,245,-1
 824 1143 l 1,246,-1
 796 1143 l 1,247,-1
 796 1101 l 1,236,-1
10 202 m 1,248,-1
 58 202 l 2,249,250
 79 202 79 202 79 182 c 2,251,-1
 79 133 l 2,252,253
 79 113 79 113 58 113 c 2,254,-1
 31 113 l 1,255,-1
 31 57 l 1,256,-1
 10 57 l 1,257,-1
 10 202 l 1,248,-1
599 35 m 2,258,-1
 621 35 l 2,259,260
 624 35 624 35 626 33.5 c 128,-1,261
 628 32 628 32 628 29 c 2,262,-1
 628 6 l 2,263,264
 628 4 628 4 626 2 c 128,-1,265
 624 0 624 0 621 0 c 2,266,-1
 599 0 l 2,267,268
 596 0 596 0 594 2 c 128,-1,269
 592 4 592 4 592 6 c 2,270,-1
 592 29 l 2,271,272
 592 32 592 32 594 33.5 c 128,-1,273
 596 35 596 35 599 35 c 2,258,-1
599 5 m 2,274,-1
 621 5 l 2,275,276
 622 5 622 5 622 6 c 2,277,-1
 622 29 l 1,278,279
 622 29.5 l 0,280,281
 622 30 622 30 621 30 c 2,282,-1
 599 30 l 2,283,284
 598 30 598 30 598 29.5 c 0,285,-1
 598 29 l 1,286,-1
 598 6 l 2,287,288
 598 5 598 5 599 5 c 2,274,-1
545 0 m 1,289,-1
 540 0 l 1,290,-1
 540 35 l 1,291,-1
 545 35 l 1,292,-1
 545 0 l 1,289,-1
457 0 m 1,293,-1
 457 35 l 1,294,-1
 486 35 l 2,295,296
 489 35 489 35 491 33.5 c 128,-1,297
 493 32 493 32 493 29 c 2,298,-1
 493 6 l 2,299,300
 493 4 493 4 491 2 c 128,-1,301
 489 0 489 0 486 0 c 2,302,-1
 457 0 l 1,293,-1
488 6 m 1,303,-1
 488 29 l 1,304,-1
 487.5 29.5 l 0,305,306
 487 30 487 30 486 30 c 2,307,-1
 464 30 l 2,308,309
 463 30 463 30 463 29.5 c 0,310,-1
 463 29 l 1,311,-1
 463 6 l 2,312,313
 463 5 463 5 464 5 c 2,314,-1
 486 5 l 2,315,316
 487 5 487 5 487.5 5.5 c 0,317,-1
 488 6 l 1,303,-1
405 6 m 2,318,-1
 405 35 l 1,319,-1
 410 35 l 1,320,-1
 410 6 l 2,321,322
 410 4 410 4 408.5 2 c 128,-1,323
 407 0 407 0 404 0 c 2,324,-1
 381 0 l 2,325,326
 379 0 379 0 377 2 c 128,-1,327
 375 4 375 4 375 6 c 2,328,-1
 375 35 l 1,329,-1
 380 35 l 1,330,-1
 380 6 l 1,331,-1
 380.5 5.5 l 0,332,-1
 381 5 l 1,333,-1
 404 5 l 1,334,335
 405 6 l 2,318,-1
294 35 m 1,336,-1
 330 35 l 1,337,-1
 330 30 l 1,338,-1
 315 30 l 1,339,-1
 315 0 l 1,340,-1
 309 0 l 1,341,-1
 309 30 l 1,342,-1
 294 30 l 1,343,-1
 294 35 l 1,336,-1
249 29 m 2,344,-1
 249 27 l 1,345,-1
 244 27 l 1,346,-1
 244 29 l 1,347,348
 243.5 29.5 l 0,349,-1
 243 30 l 1,350,-1
 220 30 l 2,351,352
 219 29 l 1,353,-1
 219 21 l 1,354,355
 219.5 20.5 l 0,356,-1
 220 20 l 1,357,-1
 243 20 l 2,358,359
 245 20 245 20 247 18.5 c 128,-1,360
 249 17 249 17 249 14 c 2,361,-1
 249 6 l 2,362,363
 249 4 249 4 247 2 c 128,-1,364
 245 0 245 0 243 0 c 2,365,-1
 220 0 l 2,366,367
 218 0 218 0 216 2 c 128,-1,368
 214 4 214 4 214 6 c 2,369,-1
 214 8 l 1,370,-1
 219 8 l 1,371,-1
 219 6 l 2,372,373
 220 5 l 1,374,-1
 243 5 l 1,375,376
 244 6 l 2,377,-1
 244 14 l 1,378,379
 243.5 14.5 l 0,380,-1
 243 15 l 1,381,-1
 220 15 l 2,382,383
 218 15 218 15 216 17 c 128,-1,384
 214 19 214 19 214 21 c 2,385,-1
 214 29 l 2,386,387
 214 32 214 32 216 33.5 c 128,-1,388
 218 35 218 35 220 35 c 2,389,-1
 243 35 l 2,390,391
 246 35 246 35 247.5 33.5 c 128,-1,392
 249 32 249 32 249 29 c 2,344,-1
796 74 m 1,393,-1
 832 74 l 1,394,-1
 832 57 l 1,395,-1
 775 57 l 1,396,-1
 775 202 l 1,397,-1
 796 202 l 1,398,-1
 796 74 l 1,393,-1
704 202 m 2,399,-1
 730 202 l 2,400,401
 751 202 751 202 751 182 c 2,402,-1
 751 77 l 2,403,404
 751 57 751 57 730 57 c 2,405,-1
 704 57 l 2,406,407
 682 57 682 57 682 77 c 2,408,-1
 682 182 l 2,409,410
 682 202 682 202 704 202 c 2,399,-1
730 80 m 2,411,-1
 730 178 l 2,412,413
 730 183 730 183 729 184 c 128,-1,414
 728 185 728 185 723 185 c 2,415,-1
 710 185 l 2,416,417
 706 185 706 185 704.5 184 c 128,-1,418
 703 183 703 183 703 178 c 2,419,-1
 703 80 l 2,420,421
 703 76 703 76 704.5 75 c 128,-1,422
 706 74 706 74 710 74 c 2,423,-1
 723 74 l 2,424,425
 728 74 728 74 729 75 c 128,-1,426
 730 76 730 76 730 80 c 2,411,-1
670 202 m 1,427,-1
 670 185 l 1,428,-1
 646 185 l 1,429,-1
 646 57 l 1,430,-1
 625 57 l 1,431,-1
 625 185 l 1,432,-1
 600 185 l 1,433,-1
 600 202 l 1,434,-1
 670 202 l 1,427,-1
553 74 m 1,435,-1
 595 74 l 1,436,-1
 595 57 l 1,437,-1
 531 57 l 1,438,-1
 531 202 l 1,439,-1
 593 202 l 1,440,-1
 593 185 l 1,441,-1
 553 185 l 1,442,-1
 553 140 l 1,443,-1
 586 140 l 1,444,-1
 586 123 l 1,445,-1
 553 123 l 1,446,-1
 553 74 l 1,435,-1
511 182 m 2,447,-1
 511 157 l 1,448,-1
 489 157 l 1,449,-1
 489 179 l 2,450,451
 489 183 489 183 488 184.5 c 128,-1,452
 487 186 487 186 483 186 c 2,453,-1
 471 186 l 2,454,455
 467 186 467 186 465.5 184.5 c 128,-1,456
 464 183 464 183 464 179 c 2,457,-1
 464 80 l 2,458,459
 464 76 464 76 465.5 74.5 c 128,-1,460
 467 73 467 73 471 73 c 2,461,-1
 483 73 l 2,462,463
 487 73 487 73 488 74.5 c 128,-1,464
 489 76 489 76 489 80 c 2,465,-1
 489 102 l 1,466,-1
 511 102 l 1,467,-1
 511 77 l 2,468,469
 511 56 511 56 489 56 c 2,470,-1
 464 56 l 2,471,472
 443 56 443 56 443 77 c 2,473,-1
 443 182 l 2,474,475
 443 202 443 202 464 202 c 2,476,-1
 489 202 l 2,477,478
 511 202 511 202 511 182 c 2,447,-1
408 57 m 1,479,-1
 402 90 l 1,480,-1
 371 90 l 1,481,-1
 366 57 l 1,482,-1
 345 57 l 1,483,-1
 371 202 l 1,484,-1
 401 202 l 1,485,-1
 429 57 l 1,486,-1
 408 57 l 1,479,-1
386 184 m 1,487,-1
 374 107 l 1,488,-1
 399 107 l 1,489,-1
 386 184 l 1,487,-1
283 115 m 1,490,-1
 283 57 l 1,491,-1
 262 57 l 1,492,-1
 262 202 l 1,493,-1
 310 202 l 2,494,495
 332 202 332 202 332 182 c 2,496,-1
 332 136 l 2,497,498
 332 118 332 118 316 116 c 1,499,-1
 339 57 l 1,500,-1
 316 57 l 1,501,-1
 295 115 l 1,502,-1
 283 115 l 1,490,-1
283 185 m 1,503,-1
 283 132 l 1,504,-1
 304 132 l 2,505,506
 308 132 308 132 309.5 133.5 c 128,-1,507
 311 135 311 135 311 139 c 2,508,-1
 311 178 l 2,509,510
 311 183 311 183 309.5 184 c 128,-1,511
 308 185 308 185 304 185 c 2,512,-1
 283 185 l 1,503,-1
249 202 m 1,513,-1
 249 185 l 1,514,-1
 225 185 l 1,515,-1
 225 57 l 1,516,-1
 204 57 l 1,517,-1
 204 185 l 1,518,-1
 179 185 l 1,519,-1
 179 202 l 1,520,-1
 249 202 l 1,513,-1
146 202 m 1,521,-1
 167 202 l 1,522,-1
 167 77 l 2,523,524
 167 57 167 57 145 57 c 2,525,-1
 119 57 l 2,526,527
 97 57 97 57 97 77 c 2,528,-1
 97 202 l 1,529,-1
 118 202 l 1,530,-1
 118 80 l 2,531,532
 118 76 118 76 119.5 75 c 128,-1,533
 121 74 121 74 125 74 c 2,534,-1
 139 74 l 2,535,536
 143 74 143 74 144 75 c 0,537,538
 146 76 146 76 146 80 c 2,539,-1
 146 202 l 1,521,-1
58 137 m 2,540,-1
 58 178 l 2,541,542
 58 183 58 183 57 184 c 128,-1,543
 56 185 56 185 51 185 c 2,544,-1
 31 185 l 1,545,-1
 31 130 l 1,546,-1
 51 130 l 2,547,548
 56 130 56 130 57 131 c 128,-1,549
 58 132 58 132 58 137 c 2,540,-1
685 886 m 1,550,551
 639 932 639 932 578 958 c 128,-1,552
 517 984 517 984 450 984 c 0,553,554
 365 984 365 984 292 944.5 c 128,-1,555
 219 905 219 905 173 837 c 0,556,557
 107 741 107 741 118 621 c 128,-1,558
 129 501 129 501 214 415 c 0,559,560
 277 353 277 353 361.5 329.5 c 128,-1,561
 446 306 446 306 533 328 c 128,-1,562
 620 350 620 350 685 415 c 1,563,564
 677 423 677 423 668 432.5 c 128,-1,565
 659 442 659 442 648 453 c 128,-1,566
 637 464 637 464 631 470 c 1,567,568
 574 413 574 413 494 398.5 c 128,-1,569
 414 384 414 384 341 419 c 1,570,-1
 341 501 l 1,571,572
 389 465 389 465 450 465 c 0,573,574
 527 465 527 465 581 519.5 c 128,-1,575
 635 574 635 574 635 651 c 128,-1,576
 635 728 635 728 581 782.5 c 128,-1,577
 527 837 527 837 450 837 c 2,578,-1
 273 837 l 1,579,580
 349 909 349 909 453 907.5 c 128,-1,581
 557 906 557 906 631 832 c 1,582,583
 685 886 l 1,550,551
264 474 m 1,584,585
 210 531 210 531 197 609.5 c 128,-1,586
 184 688 184 688 218 760 c 1,587,-1
 450 760 l 2,588,589
 485 760 485 760 512 740.5 c 128,-1,590
 539 721 539 721 550.5 693 c 128,-1,591
 562 665 562 665 557 632 c 128,-1,592
 552 599 552 599 527 574 c 128,-1,593
 502 549 502 549 469 543.5 c 128,-1,594
 436 538 436 538 408 550 c 128,-1,595
 380 562 380 562 360.5 589 c 128,-1,596
 341 616 341 616 341 651 c 1,597,-1
 264 651 l 1,598,-1
 264 474 l 1,584,585
EndSplineSet
EndChar

StartChar: percent
Encoding: 37 37 10
Width: 842
GlyphClass: 2
Flags: W
LayerCount: 2
Fore
SplineSet
782 240 m 2,0,-1
 60 240 l 2,1,2
 39 240 39 240 24.5 254.5 c 128,-1,3
 10 269 10 269 10 290 c 2,4,-1
 10 1012 l 2,5,6
 10 1032 10 1032 24.5 1047 c 128,-1,7
 39 1062 39 1062 60 1062 c 2,8,-1
 782 1062 l 2,9,10
 802 1062 802 1062 816.5 1047 c 128,-1,11
 831 1032 831 1032 831 1012 c 2,12,-1
 831 290 l 2,13,14
 831 269 831 269 816.5 254.5 c 128,-1,15
 802 240 802 240 782 240 c 2,0,-1
10 1211 m 1,16,-1
 51 1211 l 2,17,18
 69 1211 69 1211 69 1193 c 2,19,-1
 69 1152 l 2,20,21
 69 1135 69 1135 51 1135 c 2,22,-1
 28 1135 l 1,23,-1
 28 1087 l 1,24,-1
 10 1087 l 1,25,-1
 10 1211 l 1,16,-1
51 1155 m 2,26,-1
 51 1191 l 2,27,28
 51 1194 51 1194 50 1195 c 128,-1,29
 49 1196 49 1196 45 1196 c 2,30,-1
 28 1196 l 1,31,-1
 28 1149 l 1,32,-1
 45 1149 l 2,33,34
 49 1149 49 1149 50 1150 c 128,-1,35
 51 1151 51 1151 51 1155 c 2,26,-1
103 1101 m 1,36,-1
 139 1101 l 1,37,-1
 139 1087 l 1,38,-1
 85 1087 l 1,39,-1
 85 1211 l 1,40,-1
 138 1211 l 1,41,-1
 138 1196 l 1,42,-1
 103 1196 l 1,43,-1
 103 1158 l 1,44,-1
 132 1158 l 1,45,-1
 132 1143 l 1,46,-1
 103 1143 l 1,47,-1
 103 1101 l 1,36,-1
171 1137 m 1,48,-1
 171 1087 l 1,49,-1
 153 1087 l 1,50,-1
 153 1211 l 1,51,-1
 194 1211 l 2,52,53
 212 1211 212 1211 212 1193 c 2,54,-1
 212 1154 l 2,55,56
 212 1139 212 1139 199 1137 c 1,57,-1
 218 1087 l 1,58,-1
 199 1087 l 1,59,-1
 181 1137 l 1,60,-1
 171 1137 l 1,48,-1
171 1196 m 1,61,-1
 171 1151 l 1,62,-1
 188 1151 l 2,63,64
 192 1151 192 1151 193 1152 c 128,-1,65
 194 1153 194 1153 194 1157 c 2,66,-1
 194 1191 l 2,67,68
 194 1194 194 1194 193 1195 c 128,-1,69
 192 1196 192 1196 188 1196 c 2,70,-1
 171 1196 l 1,61,-1
267 1107 m 2,71,-1
 267 1137 l 2,72,73
 267 1141 267 1141 266 1142 c 128,-1,74
 265 1143 265 1143 261 1143 c 2,75,-1
 247 1143 l 2,76,77
 229 1143 229 1143 229 1161 c 2,78,-1
 229 1193 l 2,79,80
 229 1211 229 1211 247 1211 c 2,81,-1
 267 1211 l 2,82,83
 285 1211 285 1211 285 1193 c 2,84,-1
 285 1175 l 1,85,-1
 267 1175 l 1,86,-1
 267 1191 l 2,87,88
 267 1194 267 1194 266 1195 c 128,-1,89
 265 1196 265 1196 261 1196 c 2,90,-1
 253 1196 l 2,91,92
 249 1196 249 1196 248 1195 c 128,-1,93
 247 1194 247 1194 247 1191 c 2,94,-1
 247 1163 l 2,95,96
 247 1159 247 1159 248 1158 c 128,-1,97
 249 1157 249 1157 253 1157 c 2,98,-1
 267 1157 l 2,99,100
 286 1157 286 1157 286 1140 c 2,101,-1
 286 1104 l 2,102,103
 286 1087 286 1087 267 1087 c 2,104,-1
 248 1087 l 2,105,106
 229 1087 229 1087 229 1104 c 2,107,-1
 229 1122 l 1,108,-1
 247 1122 l 1,109,-1
 247 1107 l 2,110,111
 247 1103 247 1103 248.5 1102 c 128,-1,112
 250 1101 250 1101 253 1101 c 2,113,-1
 261 1101 l 2,114,115
 265 1101 265 1101 266 1102 c 128,-1,116
 267 1103 267 1103 267 1107 c 2,71,-1
321 1211 m 2,117,-1
 343 1211 l 2,118,119
 361 1211 361 1211 361 1193 c 2,120,-1
 361 1104 l 2,121,122
 361 1087 361 1087 343 1087 c 2,123,-1
 321 1087 l 2,124,125
 302 1087 302 1087 302 1104 c 2,126,-1
 302 1193 l 2,127,128
 302 1211 302 1211 321 1211 c 2,117,-1
343 1107 m 2,129,-1
 343 1191 l 2,130,131
 343 1194 343 1194 342 1195 c 128,-1,132
 341 1196 341 1196 337 1196 c 2,133,-1
 326 1196 l 2,134,135
 322 1196 322 1196 321 1195 c 128,-1,136
 320 1194 320 1194 320 1191 c 2,137,-1
 320 1107 l 2,138,139
 320 1103 320 1103 321 1102 c 128,-1,140
 322 1101 322 1101 326 1101 c 2,141,-1
 337 1101 l 2,142,143
 341 1101 341 1101 342 1102 c 128,-1,144
 343 1103 343 1103 343 1107 c 2,129,-1
425 1211 m 1,145,-1
 442 1211 l 1,146,-1
 442 1087 l 1,147,-1
 424 1087 l 1,148,-1
 398 1176 l 1,149,-1
 398 1087 l 1,150,-1
 381 1087 l 1,151,-1
 381 1211 l 1,152,-1
 400 1211 l 1,153,-1
 425 1124 l 1,154,-1
 425 1211 l 1,145,-1
508 1087 m 1,155,-1
 503 1115 l 1,156,-1
 477 1115 l 1,157,-1
 472 1087 l 1,158,-1
 455 1087 l 1,159,-1
 477 1211 l 1,160,-1
 503 1211 l 1,161,-1
 526 1087 l 1,162,-1
 508 1087 l 1,155,-1
489 1195 m 1,163,-1
 479 1130 l 1,164,-1
 501 1130 l 1,165,-1
 489 1195 l 1,163,-1
557 1101 m 1,166,-1
 587 1101 l 1,167,-1
 587 1087 l 1,168,-1
 539 1087 l 1,169,-1
 539 1211 l 1,170,-1
 557 1211 l 1,171,-1
 557 1101 l 1,166,-1
668 1211 m 1,172,-1
 686 1211 l 1,173,-1
 686 1104 l 2,174,175
 686 1087 686 1087 667 1087 c 2,176,-1
 645 1087 l 2,177,178
 627 1087 627 1087 627 1104 c 2,179,-1
 627 1211 l 1,180,-1
 645 1211 l 1,181,-1
 645 1107 l 2,182,183
 645 1103 645 1103 646 1102 c 128,-1,184
 647 1101 647 1101 651 1101 c 2,185,-1
 662 1101 l 2,186,187
 666 1101 666 1101 667 1102 c 128,-1,188
 668 1103 668 1103 668 1107 c 2,189,-1
 668 1211 l 1,172,-1
742 1107 m 2,190,-1
 742 1137 l 2,191,192
 742 1141 742 1141 741 1142 c 128,-1,193
 740 1143 740 1143 736 1143 c 2,194,-1
 721 1143 l 2,195,196
 703 1143 703 1143 703 1161 c 2,197,-1
 703 1193 l 2,198,199
 703 1211 703 1211 722 1211 c 2,200,-1
 741 1211 l 2,201,202
 760 1211 760 1211 760 1193 c 2,203,-1
 760 1175 l 1,204,-1
 742 1175 l 1,205,-1
 742 1191 l 2,206,207
 742 1194 742 1194 740.5 1195 c 128,-1,208
 739 1196 739 1196 736 1196 c 2,209,-1
 727 1196 l 2,210,211
 724 1196 724 1196 722.5 1195 c 128,-1,212
 721 1194 721 1194 721 1191 c 2,213,-1
 721 1163 l 2,214,215
 721 1159 721 1159 722.5 1158 c 128,-1,216
 724 1157 724 1157 727 1157 c 2,217,-1
 742 1157 l 2,218,219
 760 1157 760 1157 760 1140 c 2,220,-1
 760 1104 l 2,221,222
 760 1087 760 1087 741 1087 c 2,223,-1
 722 1087 l 2,224,225
 704 1087 704 1087 704 1104 c 2,226,-1
 704 1122 l 1,227,-1
 722 1122 l 1,228,-1
 722 1107 l 2,229,230
 722 1103 722 1103 723 1102 c 128,-1,231
 724 1101 724 1101 728 1101 c 2,232,-1
 736 1101 l 2,233,234
 740 1101 740 1101 741 1102 c 128,-1,235
 742 1103 742 1103 742 1107 c 2,190,-1
796 1101 m 1,236,-1
 832 1101 l 1,237,-1
 832 1087 l 1,238,-1
 778 1087 l 1,239,-1
 778 1211 l 1,240,-1
 830 1211 l 1,241,-1
 830 1196 l 1,242,-1
 796 1196 l 1,243,-1
 796 1158 l 1,244,-1
 824 1158 l 1,245,-1
 824 1143 l 1,246,-1
 796 1143 l 1,247,-1
 796 1101 l 1,236,-1
10 202 m 1,248,-1
 58 202 l 2,249,250
 79 202 79 202 79 182 c 2,251,-1
 79 133 l 2,252,253
 79 113 79 113 58 113 c 2,254,-1
 31 113 l 1,255,-1
 31 57 l 1,256,-1
 10 57 l 1,257,-1
 10 202 l 1,248,-1
599 35 m 2,258,-1
 621 35 l 2,259,260
 624 35 624 35 626 33.5 c 128,-1,261
 628 32 628 32 628 29 c 2,262,-1
 628 6 l 2,263,264
 628 4 628 4 626 2 c 128,-1,265
 624 0 624 0 621 0 c 2,266,-1
 599 0 l 2,267,268
 596 0 596 0 594 2 c 128,-1,269
 592 4 592 4 592 6 c 2,270,-1
 592 29 l 2,271,272
 592 32 592 32 594 33.5 c 128,-1,273
 596 35 596 35 599 35 c 2,258,-1
599 5 m 2,274,-1
 621 5 l 2,275,276
 622 5 622 5 622 6 c 2,277,-1
 622 29 l 1,278,279
 622 29.5 l 0,280,281
 622 30 622 30 621 30 c 2,282,-1
 599 30 l 2,283,284
 598 30 598 30 598 29.5 c 0,285,-1
 598 29 l 1,286,-1
 598 6 l 2,287,288
 598 5 598 5 599 5 c 2,274,-1
545 0 m 1,289,-1
 540 0 l 1,290,-1
 540 35 l 1,291,-1
 545 35 l 1,292,-1
 545 0 l 1,289,-1
457 0 m 1,293,-1
 457 35 l 1,294,-1
 486 35 l 2,295,296
 489 35 489 35 491 33.5 c 128,-1,297
 493 32 493 32 493 29 c 2,298,-1
 493 6 l 2,299,300
 493 4 493 4 491 2 c 128,-1,301
 489 0 489 0 486 0 c 2,302,-1
 457 0 l 1,293,-1
488 6 m 1,303,-1
 488 29 l 1,304,-1
 487.5 29.5 l 0,305,306
 487 30 487 30 486 30 c 2,307,-1
 464 30 l 2,308,309
 463 30 463 30 463 29.5 c 0,310,-1
 463 29 l 1,311,-1
 463 6 l 2,312,313
 463 5 463 5 464 5 c 2,314,-1
 486 5 l 2,315,316
 487 5 487 5 487.5 5.5 c 0,317,-1
 488 6 l 1,303,-1
405 6 m 2,318,-1
 405 35 l 1,319,-1
 410 35 l 1,320,-1
 410 6 l 2,321,322
 410 4 410 4 408.5 2 c 128,-1,323
 407 0 407 0 404 0 c 2,324,-1
 381 0 l 2,325,326
 379 0 379 0 377 2 c 128,-1,327
 375 4 375 4 375 6 c 2,328,-1
 375 35 l 1,329,-1
 380 35 l 1,330,-1
 380 6 l 1,331,-1
 380.5 5.5 l 0,332,-1
 381 5 l 1,333,-1
 404 5 l 1,334,335
 405 6 l 2,318,-1
294 35 m 1,336,-1
 330 35 l 1,337,-1
 330 30 l 1,338,-1
 315 30 l 1,339,-1
 315 0 l 1,340,-1
 309 0 l 1,341,-1
 309 30 l 1,342,-1
 294 30 l 1,343,-1
 294 35 l 1,336,-1
249 29 m 2,344,-1
 249 27 l 1,345,-1
 244 27 l 1,346,-1
 244 29 l 1,347,348
 243.5 29.5 l 0,349,-1
 243 30 l 1,350,-1
 220 30 l 1,351,352
 219.5 29.5 l 0,353,-1
 219 29 l 1,354,-1
 219 21 l 2,355,356
 220 20 l 1,357,-1
 243 20 l 2,358,359
 245 20 245 20 247 18.5 c 128,-1,360
 249 17 249 17 249 14 c 2,361,-1
 249 6 l 2,362,363
 249 4 249 4 247 2 c 128,-1,364
 245 0 245 0 243 0 c 2,365,-1
 220 0 l 2,366,367
 218 0 218 0 216 2 c 128,-1,368
 214 4 214 4 214 6 c 2,369,-1
 214 8 l 1,370,-1
 219 8 l 1,371,-1
 219 6 l 2,372,373
 220 5 l 1,374,-1
 243 5 l 1,375,376
 244 6 l 2,377,-1
 244 14 l 1,378,379
 243.5 14.5 l 0,380,-1
 243 15 l 1,381,-1
 220 15 l 2,382,383
 218 15 218 15 216 17 c 128,-1,384
 214 19 214 19 214 21 c 2,385,-1
 214 29 l 2,386,387
 214 32 214 32 216 33.5 c 128,-1,388
 218 35 218 35 220 35 c 2,389,-1
 243 35 l 2,390,391
 246 35 246 35 247.5 33.5 c 128,-1,392
 249 32 249 32 249 29 c 2,344,-1
796 74 m 1,393,-1
 832 74 l 1,394,-1
 832 57 l 1,395,-1
 775 57 l 1,396,-1
 775 202 l 1,397,-1
 796 202 l 1,398,-1
 796 74 l 1,393,-1
704 202 m 2,399,-1
 730 202 l 2,400,401
 751 202 751 202 751 182 c 2,402,-1
 751 77 l 2,403,404
 751 57 751 57 730 57 c 2,405,-1
 704 57 l 2,406,407
 682 57 682 57 682 77 c 2,408,-1
 682 182 l 2,409,410
 682 202 682 202 704 202 c 2,399,-1
730 80 m 2,411,-1
 730 178 l 2,412,413
 730 183 730 183 729 184 c 128,-1,414
 728 185 728 185 723 185 c 2,415,-1
 710 185 l 2,416,417
 706 185 706 185 704.5 184 c 128,-1,418
 703 183 703 183 703 178 c 2,419,-1
 703 80 l 2,420,421
 703 76 703 76 704.5 75 c 128,-1,422
 706 74 706 74 710 74 c 2,423,-1
 723 74 l 2,424,425
 728 74 728 74 729 75 c 128,-1,426
 730 76 730 76 730 80 c 2,411,-1
670 202 m 1,427,-1
 670 185 l 1,428,-1
 646 185 l 1,429,-1
 646 57 l 1,430,-1
 625 57 l 1,431,-1
 625 185 l 1,432,-1
 600 185 l 1,433,-1
 600 202 l 1,434,-1
 670 202 l 1,427,-1
553 74 m 1,435,-1
 595 74 l 1,436,-1
 595 57 l 1,437,-1
 531 57 l 1,438,-1
 531 202 l 1,439,-1
 593 202 l 1,440,-1
 593 185 l 1,441,-1
 553 185 l 1,442,-1
 553 140 l 1,443,-1
 586 140 l 1,444,-1
 586 123 l 1,445,-1
 553 123 l 1,446,-1
 553 74 l 1,435,-1
511 182 m 2,447,-1
 511 157 l 1,448,-1
 489 157 l 1,449,-1
 489 179 l 2,450,451
 489 183 489 183 488 184.5 c 128,-1,452
 487 186 487 186 483 186 c 2,453,-1
 471 186 l 2,454,455
 467 186 467 186 465.5 184.5 c 128,-1,456
 464 183 464 183 464 179 c 2,457,-1
 464 80 l 2,458,459
 464 76 464 76 465.5 74.5 c 128,-1,460
 467 73 467 73 471 73 c 2,461,-1
 483 73 l 2,462,463
 487 73 487 73 488 74.5 c 128,-1,464
 489 76 489 76 489 80 c 2,465,-1
 489 102 l 1,466,-1
 511 102 l 1,467,-1
 511 77 l 2,468,469
 511 56 511 56 489 56 c 2,470,-1
 464 56 l 2,471,472
 443 56 443 56 443 77 c 2,473,-1
 443 182 l 2,474,475
 443 202 443 202 464 202 c 2,476,-1
 489 202 l 2,477,478
 511 202 511 202 511 182 c 2,447,-1
408 57 m 1,479,-1
 402 90 l 1,480,-1
 371 90 l 1,481,-1
 366 57 l 1,482,-1
 345 57 l 1,483,-1
 371 202 l 1,484,-1
 401 202 l 1,485,-1
 429 57 l 1,486,-1
 408 57 l 1,479,-1
386 184 m 1,487,-1
 374 107 l 1,488,-1
 399 107 l 1,489,-1
 386 184 l 1,487,-1
283 115 m 1,490,-1
 283 57 l 1,491,-1
 262 57 l 1,492,-1
 262 202 l 1,493,-1
 310 202 l 2,494,495
 332 202 332 202 332 182 c 2,496,-1
 332 136 l 2,497,498
 332 118 332 118 316 116 c 1,499,-1
 339 57 l 1,500,-1
 316 57 l 1,501,-1
 295 115 l 1,502,-1
 283 115 l 1,490,-1
283 185 m 1,503,-1
 283 132 l 1,504,-1
 304 132 l 2,505,506
 308 132 308 132 309.5 133.5 c 128,-1,507
 311 135 311 135 311 139 c 2,508,-1
 311 178 l 2,509,510
 311 183 311 183 309.5 184 c 128,-1,511
 308 185 308 185 304 185 c 2,512,-1
 283 185 l 1,503,-1
249 202 m 1,513,-1
 249 185 l 1,514,-1
 225 185 l 1,515,-1
 225 57 l 1,516,-1
 204 57 l 1,517,-1
 204 185 l 1,518,-1
 179 185 l 1,519,-1
 179 202 l 1,520,-1
 249 202 l 1,513,-1
145 202 m 1,521,-1
 167 202 l 1,522,-1
 167 77 l 2,523,524
 167 57 167 57 145 57 c 2,525,-1
 119 57 l 2,526,527
 97 57 97 57 97 77 c 2,528,-1
 97 202 l 1,529,-1
 118 202 l 1,530,-1
 118 80 l 2,531,532
 118 76 118 76 119.5 75 c 128,-1,533
 121 74 121 74 125 74 c 2,534,-1
 139 74 l 2,535,536
 143 74 143 74 144 75 c 256,537,538
 145 76 145 76 145 80 c 2,539,-1
 145 202 l 1,521,-1
58 137 m 2,540,-1
 58 178 l 2,541,542
 58 183 58 183 57 184 c 128,-1,543
 56 185 56 185 51 185 c 2,544,-1
 31 185 l 1,545,-1
 31 130 l 1,546,-1
 51 130 l 2,547,548
 56 130 56 130 57 131 c 128,-1,549
 58 132 58 132 58 137 c 2,540,-1
685 886 m 1,550,551
 639 932 639 932 578 958 c 128,-1,552
 517 984 517 984 450 984 c 0,553,554
 365 984 365 984 292 944.5 c 128,-1,555
 219 905 219 905 173 837 c 0,556,557
 107 741 107 741 118 621 c 128,-1,558
 129 501 129 501 214 415 c 0,559,560
 261 369 261 369 322.5 344 c 128,-1,561
 384 319 384 319 447 318 c 128,-1,562
 510 317 510 317 573 341.5 c 128,-1,563
 636 366 636 366 685 415 c 1,564,565
 677 423 677 423 668 432.5 c 128,-1,566
 659 442 659 442 648 453 c 128,-1,567
 637 464 637 464 631 470 c 1,568,569
 574 413 574 413 494 398.5 c 128,-1,570
 414 384 414 384 341 419 c 1,571,-1
 341 501 l 1,572,573
 389 465 389 465 450 465 c 0,574,575
 527 465 527 465 581 519.5 c 128,-1,576
 635 574 635 574 635 651 c 128,-1,577
 635 728 635 728 581 782.5 c 128,-1,578
 527 837 527 837 450 837 c 2,579,-1
 273 837 l 1,580,581
 349 909 349 909 453 907.5 c 128,-1,582
 557 906 557 906 631 832 c 1,583,584
 636 837 636 837 642 843 c 128,-1,585
 648 849 648 849 653 854 c 128,-1,586
 658 859 658 859 663.5 864.5 c 128,-1,587
 669 870 669 870 674.5 875.5 c 128,-1,588
 680 881 680 881 685 886 c 1,550,551
264 474 m 1,589,590
 210 531 210 531 197 609.5 c 128,-1,591
 184 688 184 688 218 760 c 1,592,-1
 450 760 l 2,593,594
 478 760 478 760 501.5 747.5 c 128,-1,595
 525 735 525 735 538.5 714 c 128,-1,596
 552 693 552 693 557 669 c 128,-1,597
 562 645 562 645 554.5 619.5 c 128,-1,598
 547 594 547 594 527 574 c 0,599,600
 502 549 502 549 469 543.5 c 128,-1,601
 436 538 436 538 408 550 c 128,-1,602
 380 562 380 562 360.5 589 c 128,-1,603
 341 616 341 616 341 651 c 1,604,-1
 264 651 l 1,605,-1
 264 474 l 1,589,590
EndSplineSet
EndChar

StartChar: ampersand
Encoding: 38 38 11
Width: 842
GlyphClass: 2
Flags: W
LayerCount: 2
Fore
SplineSet
782 240 m 2,0,-1
 60 240 l 2,1,2
 39 240 39 240 24.5 254.5 c 128,-1,3
 10 269 10 269 10 290 c 2,4,-1
 10 1012 l 2,5,6
 10 1032 10 1032 24.5 1047 c 128,-1,7
 39 1062 39 1062 60 1062 c 2,8,-1
 782 1062 l 2,9,10
 802 1062 802 1062 816.5 1047 c 128,-1,11
 831 1032 831 1032 831 1012 c 2,12,-1
 831 290 l 2,13,14
 831 269 831 269 816.5 254.5 c 128,-1,15
 802 240 802 240 782 240 c 2,0,-1
10 1211 m 1,16,-1
 51 1211 l 2,17,18
 69 1211 69 1211 69 1193 c 2,19,-1
 69 1152 l 2,20,21
 69 1135 69 1135 51 1135 c 2,22,-1
 28 1135 l 1,23,-1
 28 1087 l 1,24,-1
 10 1087 l 1,25,-1
 10 1211 l 1,16,-1
51 1155 m 2,26,-1
 51 1191 l 2,27,28
 51 1194 51 1194 50 1195 c 256,29,30
 49 1196 49 1196 45 1196 c 2,31,-1
 28 1196 l 1,32,-1
 28 1149 l 1,33,-1
 45 1149 l 2,34,35
 49 1149 49 1149 50 1150 c 256,36,37
 51 1151 51 1151 51 1155 c 2,26,-1
103 1101 m 1,38,-1
 139 1101 l 1,39,-1
 139 1087 l 1,40,-1
 85 1087 l 1,41,-1
 85 1211 l 1,42,-1
 138 1211 l 1,43,-1
 138 1196 l 1,44,-1
 103 1196 l 1,45,-1
 103 1158 l 1,46,-1
 132 1158 l 1,47,-1
 132 1143 l 1,48,-1
 103 1143 l 1,49,-1
 103 1101 l 1,38,-1
171 1137 m 1,50,-1
 171 1087 l 1,51,-1
 153 1087 l 1,52,-1
 153 1211 l 1,53,-1
 194 1211 l 2,54,55
 212 1211 212 1211 212 1193 c 2,56,-1
 212 1154 l 2,57,58
 212 1139 212 1139 199 1137 c 1,59,-1
 218 1087 l 1,60,-1
 199 1087 l 1,61,-1
 181 1137 l 1,62,-1
 171 1137 l 1,50,-1
171 1196 m 1,63,-1
 171 1151 l 1,64,-1
 188 1151 l 2,65,66
 192 1151 192 1151 193 1152 c 128,-1,67
 194 1153 194 1153 194 1157 c 2,68,-1
 194 1191 l 2,69,70
 194 1194 194 1194 193 1195 c 128,-1,71
 192 1196 192 1196 188 1196 c 2,72,-1
 171 1196 l 1,63,-1
267 1107 m 2,73,-1
 267 1137 l 2,74,75
 267 1141 267 1141 266 1142 c 128,-1,76
 265 1143 265 1143 261 1143 c 2,77,-1
 247 1143 l 2,78,79
 229 1143 229 1143 229 1161 c 2,80,-1
 229 1193 l 2,81,82
 229 1211 229 1211 247 1211 c 2,83,-1
 267 1211 l 2,84,85
 285 1211 285 1211 285 1193 c 2,86,-1
 285 1175 l 1,87,-1
 267 1175 l 1,88,-1
 267 1191 l 2,89,90
 267 1194 267 1194 266 1195 c 128,-1,91
 265 1196 265 1196 261 1196 c 2,92,-1
 253 1196 l 2,93,94
 249 1196 249 1196 248 1195 c 256,95,96
 247 1194 247 1194 247 1191 c 2,97,-1
 247 1163 l 2,98,99
 247 1159 247 1159 248 1158 c 256,100,101
 249 1157 249 1157 253 1157 c 2,102,-1
 267 1157 l 2,103,104
 286 1157 286 1157 286 1140 c 2,105,-1
 286 1104 l 2,106,107
 286 1087 286 1087 267 1087 c 2,108,-1
 248 1087 l 2,109,110
 229 1087 229 1087 229 1104 c 2,111,-1
 229 1122 l 1,112,-1
 247 1122 l 1,113,-1
 247 1107 l 2,114,115
 247 1103 247 1103 248.5 1102 c 128,-1,116
 250 1101 250 1101 253 1101 c 2,117,-1
 261 1101 l 2,118,119
 265 1101 265 1101 266 1102 c 128,-1,120
 267 1103 267 1103 267 1107 c 2,73,-1
321 1211 m 2,121,-1
 343 1211 l 2,122,123
 361 1211 361 1211 361 1193 c 2,124,-1
 361 1104 l 2,125,126
 361 1087 361 1087 343 1087 c 2,127,-1
 321 1087 l 2,128,129
 302 1087 302 1087 302 1104 c 2,130,-1
 302 1193 l 2,131,132
 302 1211 302 1211 321 1211 c 2,121,-1
343 1107 m 2,133,-1
 343 1191 l 2,134,135
 343 1194 343 1194 342 1195 c 256,136,137
 341 1196 341 1196 337 1196 c 2,138,-1
 326 1196 l 2,139,140
 322 1196 322 1196 321 1195 c 128,-1,141
 320 1194 320 1194 320 1191 c 2,142,-1
 320 1107 l 2,143,144
 320 1103 320 1103 321 1102 c 128,-1,145
 322 1101 322 1101 326 1101 c 2,146,-1
 337 1101 l 2,147,148
 341 1101 341 1101 342 1102 c 256,149,150
 343 1103 343 1103 343 1107 c 2,133,-1
425 1211 m 1,151,-1
 442 1211 l 1,152,-1
 442 1087 l 1,153,-1
 424 1087 l 1,154,-1
 398 1176 l 1,155,-1
 398 1087 l 1,156,-1
 381 1087 l 1,157,-1
 381 1211 l 1,158,-1
 400 1211 l 1,159,-1
 425 1124 l 1,160,-1
 425 1211 l 1,151,-1
508 1087 m 1,161,-1
 503 1115 l 1,162,-1
 477 1115 l 1,163,-1
 472 1087 l 1,164,-1
 454 1087 l 1,165,-1
 477 1211 l 1,166,-1
 503 1211 l 1,167,-1
 526 1087 l 1,168,-1
 508 1087 l 1,161,-1
489 1195 m 1,169,-1
 479 1130 l 1,170,-1
 501 1130 l 1,171,-1
 489 1195 l 1,169,-1
557 1101 m 1,172,-1
 587 1101 l 1,173,-1
 587 1087 l 1,174,-1
 539 1087 l 1,175,-1
 539 1211 l 1,176,-1
 557 1211 l 1,177,-1
 557 1101 l 1,172,-1
668 1211 m 1,178,-1
 686 1211 l 1,179,-1
 686 1104 l 2,180,181
 686 1087 686 1087 667 1087 c 2,182,-1
 645 1087 l 2,183,184
 627 1087 627 1087 627 1104 c 2,185,-1
 627 1211 l 1,186,-1
 645 1211 l 1,187,-1
 645 1107 l 2,188,189
 645 1103 645 1103 646 1102 c 128,-1,190
 647 1101 647 1101 651 1101 c 2,191,-1
 662 1101 l 2,192,193
 666 1101 666 1101 667 1102 c 128,-1,194
 668 1103 668 1103 668 1107 c 2,195,-1
 668 1211 l 1,178,-1
742 1107 m 2,196,-1
 742 1137 l 2,197,198
 742 1141 742 1141 741 1142 c 128,-1,199
 740 1143 740 1143 736 1143 c 2,200,-1
 721 1143 l 2,201,202
 703 1143 703 1143 703 1161 c 2,203,-1
 703 1193 l 2,204,205
 703 1211 703 1211 722 1211 c 2,206,-1
 741 1211 l 2,207,208
 760 1211 760 1211 760 1193 c 2,209,-1
 760 1175 l 1,210,-1
 742 1175 l 1,211,-1
 742 1191 l 2,212,213
 742 1194 742 1194 740 1195 c 0,214,215
 739 1196 739 1196 736 1196 c 2,216,-1
 727 1196 l 2,217,218
 724 1196 724 1196 722.5 1195 c 128,-1,219
 721 1194 721 1194 721 1191 c 2,220,-1
 721 1163 l 2,221,222
 721 1159 721 1159 722.5 1158 c 128,-1,223
 724 1157 724 1157 727 1157 c 2,224,-1
 742 1157 l 2,225,226
 760 1157 760 1157 760 1140 c 2,227,-1
 760 1104 l 2,228,229
 760 1087 760 1087 741 1087 c 2,230,-1
 722 1087 l 2,231,232
 704 1087 704 1087 704 1104 c 2,233,-1
 704 1122 l 1,234,-1
 722 1122 l 1,235,-1
 722 1107 l 2,236,237
 722 1103 722 1103 723 1102 c 128,-1,238
 724 1101 724 1101 728 1101 c 2,239,-1
 736 1101 l 2,240,241
 740 1101 740 1101 741 1102 c 128,-1,242
 742 1103 742 1103 742 1107 c 2,196,-1
796 1101 m 1,243,-1
 832 1101 l 1,244,-1
 832 1087 l 1,245,-1
 778 1087 l 1,246,-1
 778 1211 l 1,247,-1
 830 1211 l 1,248,-1
 830 1196 l 1,249,-1
 796 1196 l 1,250,-1
 796 1158 l 1,251,-1
 824 1158 l 1,252,-1
 824 1143 l 1,253,-1
 796 1143 l 1,254,-1
 796 1101 l 1,243,-1
10 202 m 1,255,-1
 58 202 l 2,256,257
 79 202 79 202 79 182 c 2,258,-1
 79 133 l 2,259,260
 79 113 79 113 58 113 c 2,261,-1
 31 113 l 1,262,-1
 31 57 l 1,263,-1
 10 57 l 1,264,-1
 10 202 l 1,255,-1
599 35 m 2,265,-1
 621 35 l 2,266,267
 624 35 624 35 626 33.5 c 128,-1,268
 628 32 628 32 628 29 c 2,269,-1
 628 6 l 2,270,271
 628 4 628 4 626 2 c 128,-1,272
 624 0 624 0 621 0 c 2,273,-1
 599 0 l 2,274,275
 596 0 596 0 594 2 c 128,-1,276
 592 4 592 4 592 6 c 2,277,-1
 592 29 l 2,278,279
 592 32 592 32 594 33.5 c 128,-1,280
 596 35 596 35 599 35 c 2,265,-1
599 5 m 2,281,-1
 621 5 l 2,282,283
 622 5 622 5 622 6 c 2,284,-1
 622 29 l 1,285,286
 622 29.5 l 0,287,288
 622 30 622 30 621 30 c 2,289,-1
 599 30 l 2,290,291
 598 30 598 30 598 29.5 c 0,292,-1
 598 29 l 1,293,-1
 598 6 l 2,294,295
 598 5 598 5 599 5 c 2,281,-1
545 0 m 1,296,-1
 540 0 l 1,297,-1
 540 35 l 1,298,-1
 545 35 l 1,299,-1
 545 0 l 1,296,-1
457 0 m 1,300,-1
 457 35 l 1,301,-1
 486 35 l 2,302,303
 489 35 489 35 491 33.5 c 128,-1,304
 493 32 493 32 493 29 c 2,305,-1
 493 6 l 2,306,307
 493 4 493 4 491 2 c 128,-1,308
 489 0 489 0 486 0 c 2,309,-1
 457 0 l 1,300,-1
488 6 m 1,310,-1
 488 29 l 1,311,-1
 487.5 29.5 l 0,312,313
 487 30 487 30 486 30 c 2,314,-1
 464 30 l 2,315,316
 463 30 463 30 463 29.5 c 0,317,-1
 463 29 l 1,318,-1
 463 6 l 2,319,320
 463 5 463 5 464 5 c 2,321,-1
 486 5 l 2,322,323
 487 5 487 5 487.5 5.5 c 0,324,-1
 488 6 l 1,310,-1
405 6 m 2,325,-1
 405 35 l 1,326,-1
 410 35 l 1,327,-1
 410 6 l 2,328,329
 410 4 410 4 408.5 2 c 128,-1,330
 407 0 407 0 404 0 c 2,331,-1
 381 0 l 2,332,333
 379 0 379 0 377 2 c 128,-1,334
 375 4 375 4 375 6 c 2,335,-1
 375 35 l 1,336,-1
 380 35 l 1,337,-1
 380 6 l 1,338,-1
 380.5 5.5 l 0,339,-1
 381 5 l 1,340,-1
 404 5 l 1,341,342
 405 6 l 2,325,-1
294 35 m 1,343,-1
 330 35 l 1,344,-1
 330 30 l 1,345,-1
 315 30 l 1,346,-1
 315 0 l 1,347,-1
 309 0 l 1,348,-1
 309 30 l 1,349,-1
 294 30 l 1,350,-1
 294 35 l 1,343,-1
249 29 m 2,351,-1
 249 27 l 1,352,-1
 244 27 l 1,353,-1
 244 29 l 1,354,355
 243.5 29.5 l 0,356,-1
 243 30 l 1,357,-1
 220 30 l 1,358,359
 219.5 29.5 l 0,360,-1
 219 29 l 1,361,-1
 219 21 l 2,362,363
 220 20 l 1,364,-1
 243 20 l 2,365,366
 245 20 245 20 247 18 c 128,-1,367
 249 16 249 16 249 14 c 2,368,-1
 249 6 l 2,369,370
 249 4 249 4 247 2 c 128,-1,371
 245 0 245 0 243 0 c 2,372,-1
 220 0 l 2,373,374
 218 0 218 0 216 2 c 128,-1,375
 214 4 214 4 214 6 c 2,376,-1
 214 8 l 1,377,-1
 219 8 l 1,378,-1
 219 6 l 2,379,380
 220 5 l 1,381,-1
 243 5 l 1,382,383
 244 6 l 2,384,-1
 244 14 l 1,385,386
 243.5 14.5 l 0,387,-1
 243 15 l 1,388,-1
 220 15 l 2,389,390
 217 15 217 15 216 17 c 0,391,392
 214 19 214 19 214 21 c 2,393,-1
 214 29 l 2,394,395
 214 32 214 32 216 33 c 0,396,397
 217 35 217 35 220 35 c 2,398,-1
 243 35 l 2,399,400
 246 35 246 35 247.5 33.5 c 128,-1,401
 249 32 249 32 249 29 c 2,351,-1
796 74 m 1,402,-1
 832 74 l 1,403,-1
 832 57 l 1,404,-1
 775 57 l 1,405,-1
 775 202 l 1,406,-1
 796 202 l 1,407,-1
 796 74 l 1,402,-1
704 202 m 2,408,-1
 730 202 l 2,409,410
 751 202 751 202 751 182 c 2,411,-1
 751 77 l 2,412,413
 751 57 751 57 730 57 c 2,414,-1
 704 57 l 2,415,416
 682 57 682 57 682 77 c 2,417,-1
 682 182 l 2,418,419
 682 202 682 202 704 202 c 2,408,-1
730 80 m 2,420,-1
 730 178 l 2,421,422
 730 183 730 183 729 184 c 128,-1,423
 728 185 728 185 723 185 c 2,424,-1
 710 185 l 2,425,426
 706 185 706 185 705 184 c 0,427,428
 703 183 703 183 703 178 c 2,429,-1
 703 80 l 2,430,431
 703 76 703 76 704.5 75 c 128,-1,432
 706 74 706 74 710 74 c 2,433,-1
 723 74 l 2,434,435
 728 74 728 74 729 75 c 128,-1,436
 730 76 730 76 730 80 c 2,420,-1
670 202 m 1,437,-1
 670 185 l 1,438,-1
 646 185 l 1,439,-1
 646 57 l 1,440,-1
 625 57 l 1,441,-1
 625 185 l 1,442,-1
 600 185 l 1,443,-1
 600 202 l 1,444,-1
 670 202 l 1,437,-1
553 74 m 1,445,-1
 595 74 l 1,446,-1
 595 57 l 1,447,-1
 531 57 l 1,448,-1
 531 202 l 1,449,-1
 593 202 l 1,450,-1
 593 185 l 1,451,-1
 553 185 l 1,452,-1
 553 140 l 1,453,-1
 586 140 l 1,454,-1
 586 123 l 1,455,-1
 553 123 l 1,456,-1
 553 74 l 1,445,-1
511 182 m 2,457,-1
 511 157 l 1,458,-1
 489 157 l 1,459,-1
 489 179 l 2,460,461
 489 183 489 183 488 184.5 c 128,-1,462
 487 186 487 186 483 186 c 2,463,-1
 471 186 l 2,464,465
 467 186 467 186 465.5 184.5 c 128,-1,466
 464 183 464 183 464 179 c 2,467,-1
 464 80 l 2,468,469
 464 76 464 76 465.5 74.5 c 128,-1,470
 467 73 467 73 471 73 c 2,471,-1
 483 73 l 2,472,473
 487 73 487 73 488 74.5 c 128,-1,474
 489 76 489 76 489 80 c 2,475,-1
 489 102 l 1,476,-1
 511 102 l 1,477,-1
 511 77 l 2,478,479
 511 56 511 56 489 56 c 2,480,-1
 464 56 l 2,481,482
 443 56 443 56 443 77 c 2,483,-1
 443 182 l 2,484,485
 443 202 443 202 464 202 c 2,486,-1
 489 202 l 2,487,488
 511 202 511 202 511 182 c 2,457,-1
408 57 m 1,489,-1
 402 90 l 1,490,-1
 371 90 l 1,491,-1
 366 57 l 1,492,-1
 345 57 l 1,493,-1
 371 202 l 1,494,-1
 401 202 l 1,495,-1
 429 57 l 1,496,-1
 408 57 l 1,489,-1
386 184 m 1,497,-1
 374 107 l 1,498,-1
 399 107 l 1,499,-1
 386 184 l 1,497,-1
283 115 m 1,500,-1
 283 57 l 1,501,-1
 262 57 l 1,502,-1
 262 202 l 1,503,-1
 310 202 l 2,504,505
 332 202 332 202 332 182 c 2,506,-1
 332 136 l 2,507,508
 332 118 332 118 316 116 c 1,509,-1
 339 57 l 1,510,-1
 316 57 l 1,511,-1
 295 115 l 1,512,-1
 283 115 l 1,500,-1
283 185 m 1,513,-1
 283 132 l 1,514,-1
 304 132 l 2,515,516
 308 132 308 132 309.5 133.5 c 128,-1,517
 311 135 311 135 311 139 c 2,518,-1
 311 178 l 2,519,520
 311 183 311 183 309.5 184 c 128,-1,521
 308 185 308 185 304 185 c 2,522,-1
 283 185 l 1,513,-1
249 202 m 1,523,-1
 249 185 l 1,524,-1
 225 185 l 1,525,-1
 225 57 l 1,526,-1
 204 57 l 1,527,-1
 204 185 l 1,528,-1
 179 185 l 1,529,-1
 179 202 l 1,530,-1
 249 202 l 1,523,-1
146 202 m 1,531,-1
 167 202 l 1,532,-1
 167 77 l 2,533,534
 167 57 167 57 145 57 c 2,535,-1
 119 57 l 2,536,537
 97 57 97 57 97 77 c 2,538,-1
 97 202 l 1,539,-1
 118 202 l 1,540,-1
 118 80 l 2,541,542
 118 76 118 76 119.5 75 c 128,-1,543
 121 74 121 74 125 74 c 2,544,-1
 139 74 l 2,545,546
 143 74 143 74 144.5 75 c 128,-1,547
 146 76 146 76 146 80 c 2,548,-1
 146 202 l 1,531,-1
58 137 m 2,549,-1
 58 178 l 2,550,551
 58 183 58 183 57 184 c 128,-1,552
 56 185 56 185 51 185 c 2,553,-1
 31 185 l 1,554,-1
 31 130 l 1,555,-1
 51 130 l 2,556,557
 56 130 56 130 57 131 c 128,-1,558
 58 132 58 132 58 137 c 2,549,-1
685 886 m 1,559,560
 639 932 639 932 578 958 c 128,-1,561
 517 984 517 984 450 984 c 0,562,563
 365 984 365 984 292 944.5 c 128,-1,564
 219 905 219 905 173 837 c 0,565,566
 107 741 107 741 118 621 c 128,-1,567
 129 501 129 501 214 415 c 0,568,569
 277 353 277 353 361.5 329.5 c 128,-1,570
 446 306 446 306 533 328 c 128,-1,571
 620 350 620 350 685 415 c 1,572,573
 676 424 676 424 658 442.5 c 128,-1,574
 640 461 640 461 631 470 c 1,575,576
 574 413 574 413 494 398.5 c 128,-1,577
 414 384 414 384 341 419 c 1,578,-1
 341 501 l 1,579,580
 389 465 389 465 450 465 c 0,581,582
 527 465 527 465 581 519.5 c 128,-1,583
 635 574 635 574 635 651 c 128,-1,584
 635 728 635 728 581 782.5 c 128,-1,585
 527 837 527 837 450 837 c 2,586,-1
 273 837 l 1,587,588
 349 909 349 909 453 907.5 c 128,-1,589
 557 906 557 906 631 832 c 1,590,591
 637 838 637 838 644.5 845.5 c 128,-1,592
 652 853 652 853 658 859 c 128,-1,593
 664 865 664 865 671.5 872.5 c 128,-1,594
 679 880 679 880 685 886 c 1,559,560
264 474 m 1,595,596
 209 531 209 531 196.5 609.5 c 128,-1,597
 184 688 184 688 218 760 c 1,598,-1
 450 760 l 2,599,600
 485 760 485 760 512 740.5 c 128,-1,601
 539 721 539 721 550.5 693 c 128,-1,602
 562 665 562 665 556.5 632 c 128,-1,603
 551 599 551 599 526.5 574 c 128,-1,604
 502 549 502 549 469 543.5 c 128,-1,605
 436 538 436 538 408 550 c 128,-1,606
 380 562 380 562 360.5 589 c 128,-1,607
 341 616 341 616 341 651 c 1,608,-1
 264 651 l 1,609,-1
 264 474 l 1,595,596
EndSplineSet
EndChar

StartChar: quotesingle
Encoding: 39 39 12
AltUni2: 002019.ffffffff.0
Width: 115
GlyphClass: 2
Flags: W
LayerCount: 2
Fore
SplineSet
73 496 m 0,0,1
 70 490 70 490 66 486.5 c 128,-1,2
 62 483 62 483 57.5 480 c 128,-1,3
 53 477 53 477 51 476 c 0,4,5
 45 470 45 470 35 464 c 128,-1,6
 25 458 25 458 20 459 c 0,7,8
 17 461 17 461 17 465 c 0,9,10
 17 468 17 468 22.5 473 c 128,-1,11
 28 478 28 478 28 479 c 256,12,13
 28 480 28 480 31 485.5 c 128,-1,14
 34 491 34 491 38.5 498.5 c 128,-1,15
 43 506 43 506 45 512 c 0,16,17
 45 515 45 515 47 518.5 c 128,-1,18
 49 522 49 522 50 524.5 c 128,-1,19
 51 527 51 527 52 532.5 c 128,-1,20
 53 538 53 538 53 544 c 0,21,22
 53 551 53 551 53.5 554 c 128,-1,23
 54 557 54 557 54 565 c 1,24,-1
 46 565 l 2,25,26
 39 566 39 566 33.5 567 c 128,-1,27
 28 568 28 568 26 569 c 128,-1,28
 24 570 24 570 22 571.5 c 128,-1,29
 20 573 20 573 19 573 c 0,30,31
 13 573 13 573 12 580 c 0,32,33
 10 592 10 592 10 593 c 0,34,35
 11 599 11 599 12 606 c 128,-1,36
 13 613 13 613 14.5 617.5 c 128,-1,37
 16 622 16 622 17.5 627 c 128,-1,38
 19 632 19 632 19 633 c 0,39,40
 24 650 24 650 38 661 c 128,-1,41
 52 672 52 672 70 666 c 128,-1,42
 88 660 88 660 99 632 c 0,43,44
 102 626 102 626 102.5 619 c 128,-1,45
 103 612 103 612 104 611 c 0,46,47
 105 607 105 607 104.5 591 c 128,-1,48
 104 575 104 575 102 566 c 0,49,50
 98 553 98 553 95 546.5 c 128,-1,51
 92 540 92 540 90 536 c 0,52,53
 87 526 87 526 84.5 519 c 128,-1,54
 82 512 82 512 80.5 509 c 128,-1,55
 79 506 79 506 77.5 504 c 128,-1,56
 76 502 76 502 75 500.5 c 128,-1,57
 74 499 74 499 73 496 c 0,0,1
EndSplineSet
EndChar

StartChar: parenleft
Encoding: 40 40 13
Width: 842
GlyphClass: 2
Flags: W
LayerCount: 2
Fore
SplineSet
782 240 m 2,0,-1
 60 240 l 2,1,2
 39 240 39 240 24.5 254.5 c 128,-1,3
 10 269 10 269 10 290 c 2,4,-1
 10 1012 l 2,5,6
 10 1032 10 1032 24.5 1047 c 128,-1,7
 39 1062 39 1062 60 1062 c 2,8,-1
 782 1062 l 2,9,10
 802 1062 802 1062 816.5 1047 c 128,-1,11
 831 1032 831 1032 831 1012 c 2,12,-1
 831 290 l 2,13,14
 831 269 831 269 816.5 254.5 c 128,-1,15
 802 240 802 240 782 240 c 2,0,-1
10 1211 m 1,16,-1
 51 1211 l 2,17,18
 69 1211 69 1211 69 1193 c 2,19,-1
 69 1152 l 2,20,21
 69 1135 69 1135 51 1135 c 2,22,-1
 28 1135 l 1,23,-1
 28 1087 l 1,24,-1
 10 1087 l 1,25,-1
 10 1211 l 1,16,-1
51 1155 m 2,26,-1
 51 1191 l 2,27,28
 51 1194 51 1194 50 1195 c 128,-1,29
 49 1196 49 1196 45 1196 c 2,30,-1
 28 1196 l 1,31,-1
 28 1149 l 1,32,-1
 45 1149 l 2,33,34
 49 1149 49 1149 50 1150 c 128,-1,35
 51 1151 51 1151 51 1155 c 2,26,-1
103 1101 m 1,36,-1
 139 1101 l 1,37,-1
 139 1087 l 1,38,-1
 85 1087 l 1,39,-1
 85 1211 l 1,40,-1
 138 1211 l 1,41,-1
 138 1196 l 1,42,-1
 103 1196 l 1,43,-1
 103 1158 l 1,44,-1
 132 1158 l 1,45,-1
 132 1143 l 1,46,-1
 103 1143 l 1,47,-1
 103 1101 l 1,36,-1
171 1137 m 1,48,-1
 171 1087 l 1,49,-1
 153 1087 l 1,50,-1
 153 1211 l 1,51,-1
 194 1211 l 2,52,53
 212 1211 212 1211 212 1193 c 2,54,-1
 212 1154 l 2,55,56
 212 1139 212 1139 199 1137 c 1,57,-1
 218 1087 l 1,58,-1
 199 1087 l 1,59,-1
 181 1137 l 1,60,-1
 171 1137 l 1,48,-1
171 1196 m 1,61,-1
 171 1151 l 1,62,-1
 188 1151 l 2,63,64
 192 1151 192 1151 193 1152 c 128,-1,65
 194 1153 194 1153 194 1157 c 2,66,-1
 194 1191 l 2,67,68
 194 1194 194 1194 193 1195 c 128,-1,69
 192 1196 192 1196 188 1196 c 2,70,-1
 171 1196 l 1,61,-1
267 1107 m 2,71,-1
 267 1137 l 2,72,73
 267 1141 267 1141 266 1142 c 128,-1,74
 265 1143 265 1143 261 1143 c 2,75,-1
 247 1143 l 2,76,77
 229 1143 229 1143 229 1161 c 2,78,-1
 229 1193 l 2,79,80
 229 1211 229 1211 247 1211 c 2,81,-1
 267 1211 l 2,82,83
 285 1211 285 1211 285 1193 c 2,84,-1
 285 1175 l 1,85,-1
 267 1175 l 1,86,-1
 267 1191 l 2,87,88
 267 1194 267 1194 266 1195 c 128,-1,89
 265 1196 265 1196 261 1196 c 2,90,-1
 253 1196 l 2,91,92
 249 1196 249 1196 248 1195 c 128,-1,93
 247 1194 247 1194 247 1191 c 2,94,-1
 247 1163 l 2,95,96
 247 1159 247 1159 248 1158 c 128,-1,97
 249 1157 249 1157 253 1157 c 2,98,-1
 267 1157 l 2,99,100
 285 1157 285 1157 285 1140 c 2,101,-1
 285 1104 l 2,102,103
 285 1087 285 1087 267 1087 c 2,104,-1
 248 1087 l 2,105,106
 229 1087 229 1087 229 1104 c 2,107,-1
 229 1122 l 1,108,-1
 247 1122 l 1,109,-1
 247 1107 l 2,110,111
 247 1103 247 1103 248.5 1102 c 128,-1,112
 250 1101 250 1101 253 1101 c 2,113,-1
 261 1101 l 2,114,115
 265 1101 265 1101 266 1102 c 128,-1,116
 267 1103 267 1103 267 1107 c 2,71,-1
321 1211 m 2,117,-1
 343 1211 l 2,118,119
 361 1211 361 1211 361 1193 c 2,120,-1
 361 1104 l 2,121,122
 361 1087 361 1087 343 1087 c 2,123,-1
 321 1087 l 2,124,125
 302 1087 302 1087 302 1104 c 2,126,-1
 302 1193 l 2,127,128
 302 1211 302 1211 321 1211 c 2,117,-1
343 1107 m 2,129,-1
 343 1191 l 2,130,131
 343 1194 343 1194 342 1195 c 128,-1,132
 341 1196 341 1196 337 1196 c 2,133,-1
 326 1196 l 2,134,135
 322 1196 322 1196 321 1195 c 128,-1,136
 320 1194 320 1194 320 1191 c 2,137,-1
 320 1107 l 2,138,139
 320 1103 320 1103 321 1102 c 128,-1,140
 322 1101 322 1101 326 1101 c 2,141,-1
 337 1101 l 2,142,143
 341 1101 341 1101 342 1102 c 128,-1,144
 343 1103 343 1103 343 1107 c 2,129,-1
425 1211 m 1,145,-1
 442 1211 l 1,146,-1
 442 1087 l 1,147,-1
 424 1087 l 1,148,-1
 398 1176 l 1,149,-1
 398 1087 l 1,150,-1
 381 1087 l 1,151,-1
 381 1211 l 1,152,-1
 400 1211 l 1,153,-1
 425 1124 l 1,154,-1
 425 1211 l 1,145,-1
508 1087 m 1,155,-1
 503 1115 l 1,156,-1
 477 1115 l 1,157,-1
 472 1087 l 1,158,-1
 454 1087 l 1,159,-1
 477 1211 l 1,160,-1
 502 1211 l 1,161,-1
 526 1087 l 1,162,-1
 508 1087 l 1,155,-1
489 1195 m 1,163,-1
 479 1130 l 1,164,-1
 501 1130 l 1,165,-1
 489 1195 l 1,163,-1
557 1101 m 1,166,-1
 587 1101 l 1,167,-1
 587 1087 l 1,168,-1
 539 1087 l 1,169,-1
 539 1211 l 1,170,-1
 557 1211 l 1,171,-1
 557 1101 l 1,166,-1
668 1211 m 1,172,-1
 686 1211 l 1,173,-1
 686 1104 l 2,174,175
 686 1087 686 1087 667 1087 c 2,176,-1
 645 1087 l 2,177,178
 627 1087 627 1087 627 1104 c 2,179,-1
 627 1211 l 1,180,-1
 645 1211 l 1,181,-1
 645 1107 l 2,182,183
 645 1103 645 1103 646 1102 c 256,184,185
 647 1101 647 1101 651 1101 c 2,186,-1
 662 1101 l 2,187,188
 666 1101 666 1101 667 1102 c 128,-1,189
 668 1103 668 1103 668 1107 c 2,190,-1
 668 1211 l 1,172,-1
742 1107 m 2,191,-1
 742 1137 l 2,192,193
 742 1141 742 1141 740.5 1142 c 128,-1,194
 739 1143 739 1143 736 1143 c 2,195,-1
 721 1143 l 2,196,197
 703 1143 703 1143 703 1161 c 2,198,-1
 703 1193 l 2,199,200
 703 1211 703 1211 722 1211 c 2,201,-1
 741 1211 l 2,202,203
 760 1211 760 1211 760 1193 c 2,204,-1
 760 1175 l 1,205,-1
 741 1175 l 1,206,-1
 741 1191 l 2,207,208
 741 1194 741 1194 740 1195 c 128,-1,209
 739 1196 739 1196 736 1196 c 2,210,-1
 727 1196 l 2,211,212
 724 1196 724 1196 722.5 1195 c 128,-1,213
 721 1194 721 1194 721 1191 c 2,214,-1
 721 1163 l 2,215,216
 721 1159 721 1159 722.5 1158 c 128,-1,217
 724 1157 724 1157 727 1157 c 2,218,-1
 742 1157 l 2,219,220
 760 1157 760 1157 760 1140 c 2,221,-1
 760 1104 l 2,222,223
 760 1087 760 1087 741 1087 c 2,224,-1
 722 1087 l 2,225,226
 704 1087 704 1087 704 1104 c 2,227,-1
 704 1122 l 1,228,-1
 722 1122 l 1,229,-1
 722 1107 l 2,230,231
 722 1103 722 1103 723 1102 c 128,-1,232
 724 1101 724 1101 728 1101 c 2,233,-1
 736 1101 l 2,234,235
 739 1101 739 1101 740.5 1102 c 128,-1,236
 742 1103 742 1103 742 1107 c 2,191,-1
796 1101 m 1,237,-1
 831 1101 l 1,238,-1
 831 1087 l 1,239,-1
 778 1087 l 1,240,-1
 778 1211 l 1,241,-1
 830 1211 l 1,242,-1
 830 1196 l 1,243,-1
 796 1196 l 1,244,-1
 796 1158 l 1,245,-1
 824 1158 l 1,246,-1
 824 1143 l 1,247,-1
 796 1143 l 1,248,-1
 796 1101 l 1,237,-1
10 202 m 1,249,-1
 58 202 l 2,250,251
 79 202 79 202 79 182 c 2,252,-1
 79 133 l 2,253,254
 79 113 79 113 58 113 c 2,255,-1
 31 113 l 1,256,-1
 31 57 l 1,257,-1
 10 57 l 1,258,-1
 10 202 l 1,249,-1
599 35 m 2,259,-1
 621 35 l 2,260,261
 624 35 624 35 626 33.5 c 128,-1,262
 628 32 628 32 628 29 c 2,263,-1
 628 6 l 2,264,265
 628 4 628 4 626 2 c 128,-1,266
 624 0 624 0 621 0 c 2,267,-1
 599 0 l 2,268,269
 596 0 596 0 594 2 c 128,-1,270
 592 4 592 4 592 6 c 2,271,-1
 592 29 l 2,272,273
 592 32 592 32 594 33.5 c 128,-1,274
 596 35 596 35 599 35 c 2,259,-1
599 5 m 2,275,-1
 621 5 l 2,276,277
 622 5 622 5 622 6 c 2,278,-1
 622 29 l 1,279,280
 622 29.5 l 0,281,282
 622 30 622 30 621 30 c 2,283,-1
 599 30 l 2,284,285
 598 30 598 30 598 29.5 c 0,286,-1
 598 29 l 1,287,-1
 598 6 l 2,288,289
 598 5 598 5 599 5 c 2,275,-1
545 0 m 1,290,-1
 540 0 l 1,291,-1
 540 35 l 1,292,-1
 545 35 l 1,293,-1
 545 0 l 1,290,-1
457 0 m 1,294,-1
 457 35 l 1,295,-1
 486 35 l 2,296,297
 489 35 489 35 491 33.5 c 128,-1,298
 493 32 493 32 493 29 c 2,299,-1
 493 6 l 2,300,301
 493 4 493 4 491 2 c 128,-1,302
 489 0 489 0 486 0 c 2,303,-1
 457 0 l 1,294,-1
487 6 m 2,304,-1
 487 29 l 1,305,-1
 487 29.5 l 0,306,307
 487 30 487 30 486 30 c 2,308,-1
 464 30 l 2,309,310
 463 30 463 30 463 29.5 c 0,311,-1
 463 29 l 1,312,-1
 463 6 l 2,313,314
 463 5 463 5 464 5 c 2,315,-1
 486 5 l 2,316,317
 487 5 487 5 487 6 c 2,304,-1
405 6 m 2,318,-1
 405 35 l 1,319,-1
 410 35 l 1,320,-1
 410 6 l 2,321,322
 410 4 410 4 408.5 2 c 128,-1,323
 407 0 407 0 404 0 c 2,324,-1
 381 0 l 2,325,326
 379 0 379 0 377 2 c 128,-1,327
 375 4 375 4 375 6 c 2,328,-1
 375 35 l 1,329,-1
 380 35 l 1,330,-1
 380 6 l 1,331,-1
 380.5 5.5 l 0,332,-1
 381 5 l 1,333,-1
 404 5 l 1,334,335
 405 6 l 2,318,-1
294 35 m 1,336,-1
 330 35 l 1,337,-1
 330 30 l 1,338,-1
 315 30 l 1,339,-1
 315 0 l 1,340,-1
 309 0 l 1,341,-1
 309 30 l 1,342,-1
 294 30 l 1,343,-1
 294 35 l 1,336,-1
249 29 m 2,344,-1
 249 27 l 1,345,-1
 244 27 l 1,346,-1
 244 29 l 1,347,348
 243.5 29.5 l 0,349,-1
 243 30 l 1,350,-1
 220 30 l 2,351,352
 219 29 l 1,353,-1
 219 21 l 1,354,355
 219.5 20.5 l 0,356,-1
 220 20 l 1,357,-1
 243 20 l 2,358,359
 245 20 245 20 247 18.5 c 128,-1,360
 249 17 249 17 249 14 c 2,361,-1
 249 6 l 2,362,363
 249 4 249 4 247 2 c 128,-1,364
 245 0 245 0 243 0 c 2,365,-1
 220 0 l 2,366,367
 218 0 218 0 216 2 c 128,-1,368
 214 4 214 4 214 6 c 2,369,-1
 214 8 l 1,370,-1
 219 8 l 1,371,-1
 219 6 l 1,372,373
 219.5 5.5 l 0,374,-1
 220 5 l 1,375,-1
 243 5 l 1,376,377
 244 6 l 2,378,-1
 244 14 l 1,379,380
 243.5 14.5 l 0,381,-1
 243 15 l 1,382,-1
 220 15 l 2,383,384
 218 15 218 15 216 17 c 128,-1,385
 214 19 214 19 214 21 c 2,386,-1
 214 29 l 2,387,388
 214 32 214 32 216 33.5 c 128,-1,389
 218 35 218 35 220 35 c 2,390,-1
 243 35 l 2,391,392
 246 35 246 35 247 33 c 0,393,394
 249 32 249 32 249 29 c 2,344,-1
796 74 m 1,395,-1
 831 74 l 1,396,-1
 831 57 l 1,397,-1
 775 57 l 1,398,-1
 775 202 l 1,399,-1
 796 202 l 1,400,-1
 796 74 l 1,395,-1
704 202 m 2,401,-1
 730 202 l 2,402,403
 751 202 751 202 751 182 c 2,404,-1
 751 77 l 2,405,406
 751 57 751 57 730 57 c 2,407,-1
 704 57 l 2,408,409
 682 57 682 57 682 77 c 2,410,-1
 682 182 l 2,411,412
 682 202 682 202 704 202 c 2,401,-1
730 80 m 2,413,-1
 730 178 l 2,414,415
 730 183 730 183 729 184 c 128,-1,416
 728 185 728 185 723 185 c 2,417,-1
 710 185 l 2,418,419
 706 185 706 185 704.5 184 c 128,-1,420
 703 183 703 183 703 178 c 2,421,-1
 703 80 l 2,422,423
 703 76 703 76 704.5 75 c 128,-1,424
 706 74 706 74 710 74 c 2,425,-1
 723 74 l 2,426,427
 728 74 728 74 729 75 c 128,-1,428
 730 76 730 76 730 80 c 2,413,-1
670 202 m 1,429,-1
 670 185 l 1,430,-1
 646 185 l 1,431,-1
 646 57 l 1,432,-1
 625 57 l 1,433,-1
 625 185 l 1,434,-1
 600 185 l 1,435,-1
 600 202 l 1,436,-1
 670 202 l 1,429,-1
553 74 m 1,437,-1
 595 74 l 1,438,-1
 595 57 l 1,439,-1
 531 57 l 1,440,-1
 531 202 l 1,441,-1
 593 202 l 1,442,-1
 593 185 l 1,443,-1
 553 185 l 1,444,-1
 553 140 l 1,445,-1
 586 140 l 1,446,-1
 586 123 l 1,447,-1
 553 123 l 1,448,-1
 553 74 l 1,437,-1
511 182 m 2,449,-1
 511 157 l 1,450,-1
 489 157 l 1,451,-1
 489 179 l 2,452,453
 489 183 489 183 488 184.5 c 128,-1,454
 487 186 487 186 483 186 c 2,455,-1
 471 186 l 2,456,457
 467 186 467 186 465.5 184.5 c 128,-1,458
 464 183 464 183 464 179 c 2,459,-1
 464 80 l 2,460,461
 464 75 464 75 465.5 74 c 128,-1,462
 467 73 467 73 471 73 c 2,463,-1
 483 73 l 2,464,465
 487 73 487 73 488 74.5 c 128,-1,466
 489 76 489 76 489 80 c 2,467,-1
 489 102 l 1,468,-1
 511 102 l 1,469,-1
 511 77 l 2,470,471
 511 56 511 56 489 56 c 2,472,-1
 464 56 l 2,473,474
 443 56 443 56 443 77 c 2,475,-1
 443 182 l 2,476,477
 443 202 443 202 464 202 c 2,478,-1
 489 202 l 2,479,480
 511 202 511 202 511 182 c 2,449,-1
408 57 m 1,481,-1
 402 90 l 1,482,-1
 371 90 l 1,483,-1
 366 57 l 1,484,-1
 345 57 l 1,485,-1
 371 202 l 1,486,-1
 401 202 l 1,487,-1
 429 57 l 1,488,-1
 408 57 l 1,481,-1
386 184 m 1,489,-1
 374 107 l 1,490,-1
 399 107 l 1,491,-1
 386 184 l 1,489,-1
283 115 m 1,492,-1
 283 57 l 1,493,-1
 262 57 l 1,494,-1
 262 202 l 1,495,-1
 310 202 l 2,496,497
 331 202 331 202 331 182 c 2,498,-1
 331 136 l 2,499,500
 331 118 331 118 316 116 c 1,501,-1
 339 57 l 1,502,-1
 316 57 l 1,503,-1
 295 115 l 1,504,-1
 283 115 l 1,492,-1
283 185 m 1,505,-1
 283 132 l 1,506,-1
 304 132 l 2,507,508
 308 132 308 132 309 133.5 c 128,-1,509
 310 135 310 135 310 139 c 2,510,-1
 310 178 l 2,511,512
 310 183 310 183 309 184 c 128,-1,513
 308 185 308 185 304 185 c 2,514,-1
 283 185 l 1,505,-1
249 202 m 1,515,-1
 249 185 l 1,516,-1
 224 185 l 1,517,-1
 224 57 l 1,518,-1
 204 57 l 1,519,-1
 204 185 l 1,520,-1
 179 185 l 1,521,-1
 179 202 l 1,522,-1
 249 202 l 1,515,-1
146 202 m 1,523,-1
 167 202 l 1,524,-1
 167 77 l 2,525,526
 167 57 167 57 145 57 c 2,527,-1
 119 57 l 2,528,529
 97 57 97 57 97 77 c 2,530,-1
 97 202 l 1,531,-1
 118 202 l 1,532,-1
 118 80 l 2,533,534
 118 76 118 76 119.5 75 c 128,-1,535
 121 74 121 74 125 74 c 2,536,-1
 139 74 l 2,537,538
 143 74 143 74 144.5 75 c 128,-1,539
 146 76 146 76 146 80 c 2,540,-1
 146 202 l 1,523,-1
58 137 m 2,541,-1
 58 178 l 2,542,543
 58 183 58 183 57 184 c 128,-1,544
 56 185 56 185 51 185 c 2,545,-1
 31 185 l 1,546,-1
 31 130 l 1,547,-1
 51 130 l 2,548,549
 56 130 56 130 57 131 c 128,-1,550
 58 132 58 132 58 137 c 2,541,-1
685 886 m 1,551,552
 639 932 639 932 578 958 c 128,-1,553
 517 984 517 984 450 984 c 0,554,555
 365 984 365 984 292 944.5 c 128,-1,556
 219 905 219 905 173 837 c 0,557,558
 107 741 107 741 118 621 c 128,-1,559
 129 501 129 501 214 415 c 0,560,561
 261 369 261 369 322.5 344 c 128,-1,562
 384 319 384 319 447 318 c 128,-1,563
 510 317 510 317 573 341.5 c 128,-1,564
 636 366 636 366 685 415 c 1,565,566
 679 422 679 422 668 432.5 c 128,-1,567
 657 443 657 443 648 452.5 c 128,-1,568
 639 462 639 462 631 470 c 1,569,570
 574 413 574 413 494 398.5 c 128,-1,571
 414 384 414 384 341 419 c 1,572,-1
 341 501 l 1,573,574
 389 465 389 465 450 465 c 0,575,576
 527 465 527 465 581 519.5 c 128,-1,577
 635 574 635 574 635 651 c 0,578,579
 635 689 635 689 620.5 723 c 128,-1,580
 606 757 606 757 581 782 c 128,-1,581
 556 807 556 807 521.5 822 c 128,-1,582
 487 837 487 837 450 837 c 2,583,-1
 273 837 l 1,584,585
 349 909 349 909 453 907.5 c 128,-1,586
 557 906 557 906 631 832 c 1,587,588
 639 840 639 840 648 849 c 128,-1,589
 657 858 657 858 668 869 c 128,-1,590
 679 880 679 880 685 886 c 1,551,552
264 474 m 1,591,592
 210 531 210 531 197 609.5 c 128,-1,593
 184 688 184 688 218 760 c 1,594,-1
 450 760 l 2,595,596
 485 760 485 760 512 740.5 c 128,-1,597
 539 721 539 721 550.5 693 c 128,-1,598
 562 665 562 665 556.5 632 c 128,-1,599
 551 599 551 599 526.5 574 c 128,-1,600
 502 549 502 549 469 543.5 c 128,-1,601
 436 538 436 538 408 550 c 128,-1,602
 380 562 380 562 360.5 589 c 128,-1,603
 341 616 341 616 341 651 c 1,604,-1
 264 651 l 1,605,-1
 264 474 l 1,591,592
EndSplineSet
EndChar

StartChar: parenright
Encoding: 41 41 14
Width: 842
GlyphClass: 2
Flags: W
LayerCount: 2
Fore
SplineSet
782 240 m 2,0,-1
 60 240 l 2,1,2
 46 240 46 240 34.5 247 c 128,-1,3
 23 254 23 254 16.5 265 c 128,-1,4
 10 276 10 276 10 290 c 2,5,-1
 10 1012 l 2,6,7
 10 1032 10 1032 24.5 1047 c 128,-1,8
 39 1062 39 1062 60 1062 c 2,9,-1
 782 1062 l 2,10,11
 802 1062 802 1062 816.5 1047 c 128,-1,12
 831 1032 831 1032 831 1012 c 2,13,-1
 831 290 l 2,14,15
 831 269 831 269 816.5 254.5 c 128,-1,16
 802 240 802 240 782 240 c 2,0,-1
10 1211 m 1,17,-1
 51 1211 l 2,18,19
 69 1211 69 1211 69 1193 c 2,20,-1
 69 1152 l 2,21,22
 69 1135 69 1135 51 1135 c 2,23,-1
 28 1135 l 1,24,-1
 28 1087 l 1,25,-1
 10 1087 l 1,26,-1
 10 1211 l 1,17,-1
51 1155 m 2,27,-1
 51 1191 l 2,28,29
 51 1194 51 1194 50 1195 c 128,-1,30
 49 1196 49 1196 45 1196 c 2,31,-1
 28 1196 l 1,32,-1
 28 1149 l 1,33,-1
 45 1149 l 2,34,35
 49 1149 49 1149 50 1150 c 128,-1,36
 51 1151 51 1151 51 1155 c 2,27,-1
103 1101 m 1,37,-1
 139 1101 l 1,38,-1
 139 1087 l 1,39,-1
 85 1087 l 1,40,-1
 85 1211 l 1,41,-1
 138 1211 l 1,42,-1
 138 1196 l 1,43,-1
 103 1196 l 1,44,-1
 103 1158 l 1,45,-1
 132 1158 l 1,46,-1
 132 1143 l 1,47,-1
 103 1143 l 1,48,-1
 103 1101 l 1,37,-1
171 1137 m 1,49,-1
 171 1087 l 1,50,-1
 153 1087 l 1,51,-1
 153 1211 l 1,52,-1
 194 1211 l 2,53,54
 212 1211 212 1211 212 1193 c 2,55,-1
 212 1154 l 2,56,57
 212 1139 212 1139 199 1137 c 1,58,-1
 218 1087 l 1,59,-1
 199 1087 l 1,60,-1
 181 1137 l 1,61,-1
 171 1137 l 1,49,-1
171 1196 m 1,62,-1
 171 1151 l 1,63,-1
 188 1151 l 2,64,65
 192 1151 192 1151 193 1152 c 256,66,67
 194 1153 194 1153 194 1157 c 2,68,-1
 194 1191 l 2,69,70
 194 1194 194 1194 193 1195 c 256,71,72
 192 1196 192 1196 188 1196 c 2,73,-1
 171 1196 l 1,62,-1
267 1107 m 2,74,-1
 267 1137 l 2,75,76
 267 1141 267 1141 266 1142 c 128,-1,77
 265 1143 265 1143 261 1143 c 2,78,-1
 247 1143 l 2,79,80
 229 1143 229 1143 229 1161 c 2,81,-1
 229 1193 l 2,82,83
 229 1211 229 1211 247 1211 c 2,84,-1
 267 1211 l 2,85,86
 285 1211 285 1211 285 1193 c 2,87,-1
 285 1175 l 1,88,-1
 267 1175 l 1,89,-1
 267 1191 l 2,90,91
 267 1194 267 1194 266 1195 c 128,-1,92
 265 1196 265 1196 261 1196 c 2,93,-1
 253 1196 l 2,94,95
 249 1196 249 1196 248 1195 c 128,-1,96
 247 1194 247 1194 247 1191 c 2,97,-1
 247 1163 l 2,98,99
 247 1159 247 1159 248 1158 c 128,-1,100
 249 1157 249 1157 253 1157 c 2,101,-1
 267 1157 l 2,102,103
 286 1157 286 1157 286 1140 c 2,104,-1
 286 1104 l 2,105,106
 286 1087 286 1087 267 1087 c 2,107,-1
 248 1087 l 2,108,109
 229 1087 229 1087 229 1104 c 2,110,-1
 229 1122 l 1,111,-1
 247 1122 l 1,112,-1
 247 1107 l 2,113,114
 247 1103 247 1103 248.5 1102 c 128,-1,115
 250 1101 250 1101 253 1101 c 2,116,-1
 261 1101 l 2,117,118
 265 1101 265 1101 266 1102 c 128,-1,119
 267 1103 267 1103 267 1107 c 2,74,-1
321 1211 m 2,120,-1
 343 1211 l 2,121,122
 361 1211 361 1211 361 1193 c 2,123,-1
 361 1104 l 2,124,125
 361 1087 361 1087 343 1087 c 2,126,-1
 321 1087 l 2,127,128
 302 1087 302 1087 302 1104 c 2,129,-1
 302 1193 l 2,130,131
 302 1211 302 1211 321 1211 c 2,120,-1
343 1107 m 2,132,-1
 343 1191 l 2,133,134
 343 1194 343 1194 342 1195 c 128,-1,135
 341 1196 341 1196 337 1196 c 2,136,-1
 326 1196 l 2,137,138
 322 1196 322 1196 321 1195 c 128,-1,139
 320 1194 320 1194 320 1191 c 2,140,-1
 320 1107 l 2,141,142
 320 1103 320 1103 321 1102 c 128,-1,143
 322 1101 322 1101 326 1101 c 2,144,-1
 337 1101 l 2,145,146
 341 1101 341 1101 342 1102 c 128,-1,147
 343 1103 343 1103 343 1107 c 2,132,-1
425 1211 m 1,148,-1
 442 1211 l 1,149,-1
 442 1087 l 1,150,-1
 424 1087 l 1,151,-1
 398 1176 l 1,152,-1
 398 1087 l 1,153,-1
 381 1087 l 1,154,-1
 381 1211 l 1,155,-1
 400 1211 l 1,156,-1
 425 1124 l 1,157,-1
 425 1211 l 1,148,-1
508 1087 m 1,158,-1
 503 1115 l 1,159,-1
 477 1115 l 1,160,-1
 472 1087 l 1,161,-1
 454 1087 l 1,162,-1
 477 1211 l 1,163,-1
 503 1211 l 1,164,-1
 526 1087 l 1,165,-1
 508 1087 l 1,158,-1
489 1195 m 1,166,-1
 479 1130 l 1,167,-1
 501 1130 l 1,168,-1
 489 1195 l 1,166,-1
557 1101 m 1,169,-1
 587 1101 l 1,170,-1
 587 1087 l 1,171,-1
 539 1087 l 1,172,-1
 539 1211 l 1,173,-1
 557 1211 l 1,174,-1
 557 1101 l 1,169,-1
668 1211 m 1,175,-1
 686 1211 l 1,176,-1
 686 1104 l 2,177,178
 686 1087 686 1087 667 1087 c 2,179,-1
 645 1087 l 2,180,181
 627 1087 627 1087 627 1104 c 2,182,-1
 627 1211 l 1,183,-1
 645 1211 l 1,184,-1
 645 1107 l 2,185,186
 645 1103 645 1103 646 1102 c 128,-1,187
 647 1101 647 1101 651 1101 c 2,188,-1
 662 1101 l 2,189,190
 666 1101 666 1101 667 1102 c 128,-1,191
 668 1103 668 1103 668 1107 c 2,192,-1
 668 1211 l 1,175,-1
742 1107 m 2,193,-1
 742 1137 l 2,194,195
 742 1141 742 1141 741 1142 c 256,196,197
 740 1143 740 1143 736 1143 c 2,198,-1
 721 1143 l 2,199,200
 703 1143 703 1143 703 1161 c 2,201,-1
 703 1193 l 2,202,203
 703 1211 703 1211 722 1211 c 2,204,-1
 741 1211 l 2,205,206
 760 1211 760 1211 760 1193 c 2,207,-1
 760 1175 l 1,208,-1
 742 1175 l 1,209,-1
 742 1191 l 2,210,211
 742 1194 742 1194 740.5 1195 c 128,-1,212
 739 1196 739 1196 736 1196 c 2,213,-1
 727 1196 l 2,214,215
 724 1196 724 1196 722.5 1195 c 128,-1,216
 721 1194 721 1194 721 1191 c 2,217,-1
 721 1163 l 2,218,219
 721 1159 721 1159 722.5 1158 c 128,-1,220
 724 1157 724 1157 727 1157 c 2,221,-1
 742 1157 l 2,222,223
 760 1157 760 1157 760 1140 c 2,224,-1
 760 1104 l 2,225,226
 760 1087 760 1087 741 1087 c 2,227,-1
 722 1087 l 2,228,229
 704 1087 704 1087 704 1104 c 2,230,-1
 704 1122 l 1,231,-1
 722 1122 l 1,232,-1
 722 1107 l 2,233,234
 722 1103 722 1103 723 1102 c 256,235,236
 724 1101 724 1101 728 1101 c 2,237,-1
 736 1101 l 2,238,239
 740 1101 740 1101 741 1102 c 128,-1,240
 742 1103 742 1103 742 1107 c 2,193,-1
796 1101 m 1,241,-1
 832 1101 l 1,242,-1
 832 1087 l 1,243,-1
 778 1087 l 1,244,-1
 778 1211 l 1,245,-1
 830 1211 l 1,246,-1
 830 1196 l 1,247,-1
 796 1196 l 1,248,-1
 796 1158 l 1,249,-1
 824 1158 l 1,250,-1
 824 1143 l 1,251,-1
 796 1143 l 1,252,-1
 796 1101 l 1,241,-1
10 202 m 1,253,-1
 58 202 l 2,254,255
 79 202 79 202 79 182 c 2,256,-1
 79 133 l 2,257,258
 79 113 79 113 58 113 c 2,259,-1
 31 113 l 1,260,-1
 31 57 l 1,261,-1
 10 57 l 1,262,-1
 10 202 l 1,253,-1
599 35 m 2,263,-1
 621 35 l 2,264,265
 624 35 624 35 626 33.5 c 128,-1,266
 628 32 628 32 628 29 c 2,267,-1
 628 6 l 2,268,269
 628 4 628 4 626 2 c 128,-1,270
 624 0 624 0 621 0 c 2,271,-1
 599 0 l 2,272,273
 596 0 596 0 594 2 c 128,-1,274
 592 4 592 4 592 6 c 2,275,-1
 592 29 l 2,276,277
 592 32 592 32 594 33.5 c 128,-1,278
 596 35 596 35 599 35 c 2,263,-1
599 5 m 2,279,-1
 621 5 l 2,280,281
 622 5 622 5 622 6 c 2,282,-1
 622 29 l 1,283,284
 622 29.5 l 0,285,286
 622 30 622 30 621 30 c 2,287,-1
 599 30 l 2,288,289
 598 30 598 30 598 29.5 c 0,290,-1
 598 29 l 1,291,-1
 598 6 l 2,292,293
 598 5 598 5 599 5 c 2,279,-1
545 0 m 1,294,-1
 540 0 l 1,295,-1
 540 35 l 1,296,-1
 545 35 l 1,297,-1
 545 0 l 1,294,-1
457 0 m 1,298,-1
 457 35 l 1,299,-1
 486 35 l 2,300,301
 489 35 489 35 491 33 c 0,302,303
 493 32 493 32 493 29 c 2,304,-1
 493 6 l 2,305,306
 493 4 493 4 491 2 c 128,-1,307
 489 0 489 0 486 0 c 2,308,-1
 457 0 l 1,298,-1
488 6 m 1,309,-1
 488 29 l 1,310,-1
 487.5 29.5 l 0,311,312
 487 30 487 30 486 30 c 2,313,-1
 464 30 l 2,314,315
 463 30 463 30 463 29.5 c 0,316,-1
 463 29 l 1,317,-1
 463 6 l 2,318,319
 463 5 463 5 464 5 c 2,320,-1
 486 5 l 2,321,322
 487 5 487 5 487.5 5.5 c 0,323,-1
 488 6 l 1,309,-1
405 6 m 2,324,-1
 405 35 l 1,325,-1
 410 35 l 1,326,-1
 410 6 l 2,327,328
 410 4 410 4 408.5 2 c 128,-1,329
 407 0 407 0 404 0 c 2,330,-1
 381 0 l 2,331,332
 379 0 379 0 377 2 c 128,-1,333
 375 4 375 4 375 6 c 2,334,-1
 375 35 l 1,335,-1
 380 35 l 1,336,-1
 380 6 l 1,337,-1
 380.5 5.5 l 0,338,-1
 381 5 l 1,339,-1
 404 5 l 1,340,341
 405 6 l 2,324,-1
294 35 m 1,342,-1
 330 35 l 1,343,-1
 330 30 l 1,344,-1
 315 30 l 1,345,-1
 315 0 l 1,346,-1
 309 0 l 1,347,-1
 309 30 l 1,348,-1
 294 30 l 1,349,-1
 294 35 l 1,342,-1
249 29 m 2,350,-1
 249 27 l 1,351,-1
 244 27 l 1,352,-1
 244 29 l 1,353,354
 243.5 29.5 l 0,355,-1
 243 30 l 1,356,-1
 220 30 l 1,357,358
 219.5 29.5 l 0,359,-1
 219 29 l 1,360,-1
 219 21 l 2,361,362
 220 20 l 1,363,-1
 243 20 l 2,364,365
 245 20 245 20 247 18.5 c 128,-1,366
 249 17 249 17 249 14 c 2,367,-1
 249 6 l 2,368,369
 249 4 249 4 247 2 c 128,-1,370
 245 0 245 0 243 0 c 2,371,-1
 220 0 l 2,372,373
 218 0 218 0 216 2 c 128,-1,374
 214 4 214 4 214 6 c 2,375,-1
 214 8 l 1,376,-1
 219 8 l 1,377,-1
 219 6 l 2,378,379
 220 5 l 1,380,-1
 243 5 l 1,381,382
 244 6 l 2,383,-1
 244 14 l 1,384,385
 243.5 14.5 l 0,386,-1
 243 15 l 1,387,-1
 220 15 l 2,388,389
 217 15 217 15 215.5 17 c 128,-1,390
 214 19 214 19 214 21 c 2,391,-1
 214 29 l 2,392,393
 214 32 214 32 215.5 33.5 c 128,-1,394
 217 35 217 35 220 35 c 2,395,-1
 243 35 l 2,396,397
 246 35 246 35 247.5 33.5 c 128,-1,398
 249 32 249 32 249 29 c 2,350,-1
796 74 m 1,399,-1
 832 74 l 1,400,-1
 832 57 l 1,401,-1
 775 57 l 1,402,-1
 775 202 l 1,403,-1
 796 202 l 1,404,-1
 796 74 l 1,399,-1
704 202 m 2,405,-1
 730 202 l 2,406,407
 751 202 751 202 751 182 c 2,408,-1
 751 77 l 2,409,410
 751 57 751 57 730 57 c 2,411,-1
 704 57 l 2,412,413
 682 57 682 57 682 77 c 2,414,-1
 682 182 l 2,415,416
 682 202 682 202 704 202 c 2,405,-1
730 80 m 2,417,-1
 730 178 l 2,418,419
 730 183 730 183 729 184 c 128,-1,420
 728 185 728 185 723 185 c 2,421,-1
 710 185 l 2,422,423
 706 185 706 185 705 184 c 0,424,425
 703 183 703 183 703 178 c 2,426,-1
 703 80 l 2,427,428
 703 76 703 76 704.5 75 c 128,-1,429
 706 74 706 74 710 74 c 2,430,-1
 723 74 l 2,431,432
 728 74 728 74 729 75 c 128,-1,433
 730 76 730 76 730 80 c 2,417,-1
670 202 m 1,434,-1
 670 185 l 1,435,-1
 646 185 l 1,436,-1
 646 57 l 1,437,-1
 625 57 l 1,438,-1
 625 185 l 1,439,-1
 600 185 l 1,440,-1
 600 202 l 1,441,-1
 670 202 l 1,434,-1
553 74 m 1,442,-1
 595 74 l 1,443,-1
 595 57 l 1,444,-1
 531 57 l 1,445,-1
 531 202 l 1,446,-1
 593 202 l 1,447,-1
 593 185 l 1,448,-1
 553 185 l 1,449,-1
 553 140 l 1,450,-1
 586 140 l 1,451,-1
 586 123 l 1,452,-1
 553 123 l 1,453,-1
 553 74 l 1,442,-1
511 182 m 2,454,-1
 511 157 l 1,455,-1
 489 157 l 1,456,-1
 489 179 l 2,457,458
 489 183 489 183 488 184.5 c 128,-1,459
 487 186 487 186 483 186 c 2,460,-1
 471 186 l 2,461,462
 467 186 467 186 465.5 184.5 c 128,-1,463
 464 183 464 183 464 179 c 2,464,-1
 464 80 l 2,465,466
 464 76 464 76 465.5 74.5 c 128,-1,467
 467 73 467 73 471 73 c 2,468,-1
 483 73 l 2,469,470
 487 73 487 73 488 74.5 c 128,-1,471
 489 76 489 76 489 80 c 2,472,-1
 489 102 l 1,473,-1
 511 102 l 1,474,-1
 511 77 l 2,475,476
 511 56 511 56 489 56 c 2,477,-1
 464 56 l 2,478,479
 443 56 443 56 443 77 c 2,480,-1
 443 182 l 2,481,482
 443 202 443 202 464 202 c 2,483,-1
 489 202 l 2,484,485
 511 202 511 202 511 182 c 2,454,-1
408 57 m 1,486,-1
 402 90 l 1,487,-1
 371 90 l 1,488,-1
 366 57 l 1,489,-1
 345 57 l 1,490,-1
 371 202 l 1,491,-1
 401 202 l 1,492,-1
 429 57 l 1,493,-1
 408 57 l 1,486,-1
386 184 m 1,494,-1
 374 107 l 1,495,-1
 399 107 l 1,496,-1
 386 184 l 1,494,-1
283 115 m 1,497,-1
 283 57 l 1,498,-1
 262 57 l 1,499,-1
 262 202 l 1,500,-1
 310 202 l 2,501,502
 332 202 332 202 332 182 c 2,503,-1
 332 136 l 2,504,505
 332 118 332 118 316 116 c 1,506,-1
 339 57 l 1,507,-1
 316 57 l 1,508,-1
 295 115 l 1,509,-1
 283 115 l 1,497,-1
283 185 m 1,510,-1
 283 132 l 1,511,-1
 304 132 l 2,512,513
 308 132 308 132 309.5 133.5 c 128,-1,514
 311 135 311 135 311 139 c 2,515,-1
 311 178 l 2,516,517
 311 183 311 183 309.5 184 c 128,-1,518
 308 185 308 185 304 185 c 2,519,-1
 283 185 l 1,510,-1
249 202 m 1,520,-1
 249 185 l 1,521,-1
 225 185 l 1,522,-1
 225 57 l 1,523,-1
 204 57 l 1,524,-1
 204 185 l 1,525,-1
 179 185 l 1,526,-1
 179 202 l 1,527,-1
 249 202 l 1,520,-1
145 202 m 1,528,-1
 167 202 l 1,529,-1
 167 77 l 2,530,531
 167 57 167 57 145 57 c 2,532,-1
 119 57 l 2,533,534
 97 57 97 57 97 77 c 2,535,-1
 97 202 l 1,536,-1
 118 202 l 1,537,-1
 118 80 l 2,538,539
 118 76 118 76 119.5 75 c 128,-1,540
 121 74 121 74 125 74 c 2,541,-1
 139 74 l 2,542,543
 143 74 143 74 144 75 c 256,544,545
 145 76 145 76 145 80 c 2,546,-1
 145 202 l 1,528,-1
58 137 m 2,547,-1
 58 178 l 2,548,549
 58 183 58 183 57 184 c 128,-1,550
 56 185 56 185 51 185 c 2,551,-1
 31 185 l 1,552,-1
 31 130 l 1,553,-1
 51 130 l 2,554,555
 56 130 56 130 57 131 c 128,-1,556
 58 132 58 132 58 137 c 2,547,-1
685 886 m 1,557,558
 655 917 655 917 618 938.5 c 128,-1,559
 581 960 581 960 538 972 c 128,-1,560
 495 984 495 984 450 984 c 0,561,562
 365 984 365 984 292 944.5 c 128,-1,563
 219 905 219 905 173 837 c 0,564,565
 107 741 107 741 118 621 c 128,-1,566
 129 501 129 501 214 415 c 0,567,568
 277 353 277 353 361.5 329.5 c 128,-1,569
 446 306 446 306 533 328 c 128,-1,570
 620 350 620 350 685 415 c 1,571,572
 679 422 679 422 671.5 429.5 c 128,-1,573
 664 437 664 437 658 442.5 c 128,-1,574
 652 448 652 448 644 456 c 128,-1,575
 636 464 636 464 631 470 c 1,576,577
 574 413 574 413 494 398.5 c 128,-1,578
 414 384 414 384 341 419 c 1,579,-1
 341 501 l 1,580,581
 389 465 389 465 450 465 c 0,582,583
 527 465 527 465 581 519.5 c 128,-1,584
 635 574 635 574 635 651 c 128,-1,585
 635 728 635 728 581 782.5 c 128,-1,586
 527 837 527 837 450 837 c 2,587,-1
 273 837 l 1,588,589
 349 909 349 909 453 907.5 c 128,-1,590
 557 906 557 906 631 832 c 1,591,592
 685 886 l 1,557,558
264 474 m 1,593,594
 209 531 209 531 196.5 609.5 c 128,-1,595
 184 688 184 688 218 760 c 1,596,-1
 450 760 l 2,597,598
 485 760 485 760 512 740.5 c 128,-1,599
 539 721 539 721 550.5 693 c 128,-1,600
 562 665 562 665 557 632 c 128,-1,601
 552 599 552 599 527 574 c 128,-1,602
 502 549 502 549 469 543.5 c 128,-1,603
 436 538 436 538 408 550 c 128,-1,604
 380 562 380 562 360.5 589 c 128,-1,605
 341 616 341 616 341 651 c 1,606,-1
 264 651 l 1,607,-1
 264 474 l 1,593,594
EndSplineSet
EndChar

StartChar: asterisk
Encoding: 42 42 15
Width: 842
GlyphClass: 2
Flags: W
LayerCount: 2
Fore
SplineSet
782 240 m 2,0,-1
 60 240 l 2,1,2
 39 240 39 240 24.5 254.5 c 128,-1,3
 10 269 10 269 10 290 c 2,4,-1
 10 1012 l 2,5,6
 10 1032 10 1032 24.5 1047 c 128,-1,7
 39 1062 39 1062 60 1062 c 2,8,-1
 782 1062 l 2,9,10
 802 1062 802 1062 816.5 1047 c 128,-1,11
 831 1032 831 1032 831 1012 c 2,12,-1
 831 290 l 2,13,14
 831 269 831 269 816.5 254.5 c 128,-1,15
 802 240 802 240 782 240 c 2,0,-1
10 1211 m 1,16,-1
 51 1211 l 2,17,18
 69 1211 69 1211 69 1193 c 2,19,-1
 69 1152 l 2,20,21
 69 1135 69 1135 51 1135 c 2,22,-1
 28 1135 l 1,23,-1
 28 1087 l 1,24,-1
 10 1087 l 1,25,-1
 10 1211 l 1,16,-1
51 1155 m 2,26,-1
 51 1191 l 2,27,28
 51 1194 51 1194 50 1195 c 128,-1,29
 49 1196 49 1196 45 1196 c 2,30,-1
 28 1196 l 1,31,-1
 28 1149 l 1,32,-1
 45 1149 l 2,33,34
 49 1149 49 1149 50 1150 c 128,-1,35
 51 1151 51 1151 51 1155 c 2,26,-1
103 1101 m 1,36,-1
 139 1101 l 1,37,-1
 139 1087 l 1,38,-1
 85 1087 l 1,39,-1
 85 1211 l 1,40,-1
 138 1211 l 1,41,-1
 138 1196 l 1,42,-1
 103 1196 l 1,43,-1
 103 1158 l 1,44,-1
 132 1158 l 1,45,-1
 132 1143 l 1,46,-1
 103 1143 l 1,47,-1
 103 1101 l 1,36,-1
171 1137 m 1,48,-1
 171 1087 l 1,49,-1
 153 1087 l 1,50,-1
 153 1211 l 1,51,-1
 194 1211 l 2,52,53
 212 1211 212 1211 212 1193 c 2,54,-1
 212 1154 l 2,55,56
 212 1139 212 1139 199 1137 c 1,57,-1
 218 1087 l 1,58,-1
 199 1087 l 1,59,-1
 181 1137 l 1,60,-1
 171 1137 l 1,48,-1
171 1196 m 1,61,-1
 171 1151 l 1,62,-1
 188 1151 l 2,63,64
 192 1151 192 1151 193 1152 c 128,-1,65
 194 1153 194 1153 194 1157 c 2,66,-1
 194 1191 l 2,67,68
 194 1194 194 1194 193 1195 c 128,-1,69
 192 1196 192 1196 188 1196 c 2,70,-1
 171 1196 l 1,61,-1
267 1107 m 2,71,-1
 267 1137 l 2,72,73
 267 1141 267 1141 266 1142 c 128,-1,74
 265 1143 265 1143 262 1143 c 2,75,-1
 247 1143 l 2,76,77
 229 1143 229 1143 229 1161 c 2,78,-1
 229 1193 l 2,79,80
 229 1211 229 1211 247 1211 c 2,81,-1
 267 1211 l 2,82,83
 285 1211 285 1211 285 1193 c 2,84,-1
 285 1175 l 1,85,-1
 267 1175 l 1,86,-1
 267 1191 l 2,87,88
 267 1194 267 1194 266 1195 c 128,-1,89
 265 1196 265 1196 261 1196 c 2,90,-1
 253 1196 l 2,91,92
 249 1196 249 1196 248 1195 c 128,-1,93
 247 1194 247 1194 247 1191 c 2,94,-1
 247 1163 l 2,95,96
 247 1159 247 1159 248 1158 c 128,-1,97
 249 1157 249 1157 253 1157 c 2,98,-1
 267 1157 l 2,99,100
 286 1157 286 1157 286 1140 c 2,101,-1
 286 1104 l 2,102,103
 286 1087 286 1087 267 1087 c 2,104,-1
 248 1087 l 2,105,106
 229 1087 229 1087 229 1104 c 2,107,-1
 229 1122 l 1,108,-1
 247 1122 l 1,109,-1
 247 1107 l 2,110,111
 247 1103 247 1103 248.5 1102 c 128,-1,112
 250 1101 250 1101 253 1101 c 2,113,-1
 262 1101 l 2,114,115
 265 1101 265 1101 266 1102 c 128,-1,116
 267 1103 267 1103 267 1107 c 2,71,-1
321 1211 m 2,117,-1
 343 1211 l 2,118,119
 361 1211 361 1211 361 1193 c 2,120,-1
 361 1104 l 2,121,122
 361 1087 361 1087 343 1087 c 2,123,-1
 321 1087 l 2,124,125
 302 1087 302 1087 302 1104 c 2,126,-1
 302 1193 l 2,127,128
 302 1211 302 1211 321 1211 c 2,117,-1
343 1107 m 2,129,-1
 343 1191 l 2,130,131
 343 1194 343 1194 342 1195 c 128,-1,132
 341 1196 341 1196 338 1196 c 2,133,-1
 326 1196 l 2,134,135
 322 1196 322 1196 321 1195 c 128,-1,136
 320 1194 320 1194 320 1191 c 2,137,-1
 320 1107 l 2,138,139
 320 1103 320 1103 321 1102 c 128,-1,140
 322 1101 322 1101 326 1101 c 2,141,-1
 338 1101 l 2,142,143
 341 1101 341 1101 342 1102 c 128,-1,144
 343 1103 343 1103 343 1107 c 2,129,-1
425 1211 m 1,145,-1
 442 1211 l 1,146,-1
 442 1087 l 1,147,-1
 424 1087 l 1,148,-1
 398 1176 l 1,149,-1
 398 1087 l 1,150,-1
 381 1087 l 1,151,-1
 381 1211 l 1,152,-1
 400 1211 l 1,153,-1
 425 1124 l 1,154,-1
 425 1211 l 1,145,-1
508 1087 m 1,155,-1
 503 1115 l 1,156,-1
 477 1115 l 1,157,-1
 472 1087 l 1,158,-1
 455 1087 l 1,159,-1
 477 1211 l 1,160,-1
 503 1211 l 1,161,-1
 526 1087 l 1,162,-1
 508 1087 l 1,155,-1
489 1195 m 1,163,-1
 479 1130 l 1,164,-1
 501 1130 l 1,165,-1
 489 1195 l 1,163,-1
557 1101 m 1,166,-1
 587 1101 l 1,167,-1
 587 1087 l 1,168,-1
 539 1087 l 1,169,-1
 539 1211 l 1,170,-1
 557 1211 l 1,171,-1
 557 1101 l 1,166,-1
668 1211 m 1,172,-1
 686 1211 l 1,173,-1
 686 1104 l 2,174,175
 686 1087 686 1087 667 1087 c 2,176,-1
 645 1087 l 2,177,178
 627 1087 627 1087 627 1104 c 2,179,-1
 627 1211 l 1,180,-1
 645 1211 l 1,181,-1
 645 1107 l 2,182,183
 645 1103 645 1103 646 1102 c 128,-1,184
 647 1101 647 1101 651 1101 c 2,185,-1
 662 1101 l 2,186,187
 666 1101 666 1101 667 1102 c 128,-1,188
 668 1103 668 1103 668 1107 c 2,189,-1
 668 1211 l 1,172,-1
742 1107 m 2,190,-1
 742 1137 l 2,191,192
 742 1141 742 1141 741 1142 c 128,-1,193
 740 1143 740 1143 736 1143 c 2,194,-1
 721 1143 l 2,195,196
 703 1143 703 1143 703 1161 c 2,197,-1
 703 1193 l 2,198,199
 703 1211 703 1211 722 1211 c 2,200,-1
 741 1211 l 2,201,202
 760 1211 760 1211 760 1193 c 2,203,-1
 760 1175 l 1,204,-1
 742 1175 l 1,205,-1
 742 1191 l 2,206,207
 742 1194 742 1194 740.5 1195 c 128,-1,208
 739 1196 739 1196 736 1196 c 2,209,-1
 727 1196 l 2,210,211
 724 1196 724 1196 722.5 1195 c 128,-1,212
 721 1194 721 1194 721 1191 c 2,213,-1
 721 1163 l 2,214,215
 721 1159 721 1159 722.5 1158 c 128,-1,216
 724 1157 724 1157 727 1157 c 2,217,-1
 742 1157 l 2,218,219
 760 1157 760 1157 760 1140 c 2,220,-1
 760 1104 l 2,221,222
 760 1087 760 1087 741 1087 c 2,223,-1
 722 1087 l 2,224,225
 704 1087 704 1087 704 1104 c 2,226,-1
 704 1122 l 1,227,-1
 722 1122 l 1,228,-1
 722 1107 l 2,229,230
 722 1103 722 1103 723 1102 c 128,-1,231
 724 1101 724 1101 728 1101 c 2,232,-1
 736 1101 l 2,233,234
 740 1101 740 1101 741 1102 c 128,-1,235
 742 1103 742 1103 742 1107 c 2,190,-1
796 1101 m 1,236,-1
 832 1101 l 1,237,-1
 832 1087 l 1,238,-1
 778 1087 l 1,239,-1
 778 1211 l 1,240,-1
 830 1211 l 1,241,-1
 830 1196 l 1,242,-1
 796 1196 l 1,243,-1
 796 1158 l 1,244,-1
 824 1158 l 1,245,-1
 824 1143 l 1,246,-1
 796 1143 l 1,247,-1
 796 1101 l 1,236,-1
10 202 m 1,248,-1
 58 202 l 2,249,250
 79 202 79 202 79 182 c 2,251,-1
 79 133 l 2,252,253
 79 113 79 113 58 113 c 2,254,-1
 31 113 l 1,255,-1
 31 57 l 1,256,-1
 10 57 l 1,257,-1
 10 202 l 1,248,-1
599 35 m 2,258,-1
 621 35 l 2,259,260
 624 35 624 35 626 33.5 c 128,-1,261
 628 32 628 32 628 29 c 2,262,-1
 628 6 l 2,263,264
 628 4 628 4 626 2 c 128,-1,265
 624 0 624 0 621 0 c 2,266,-1
 599 0 l 2,267,268
 596 0 596 0 594 2 c 128,-1,269
 592 4 592 4 592 6 c 2,270,-1
 592 29 l 2,271,272
 592 32 592 32 594 33.5 c 128,-1,273
 596 35 596 35 599 35 c 2,258,-1
599 5 m 2,274,-1
 621 5 l 2,275,276
 622 5 622 5 622 6 c 2,277,-1
 622 29 l 1,278,279
 622 29.5 l 0,280,281
 622 30 622 30 621 30 c 2,282,-1
 599 30 l 2,283,284
 598 30 598 30 598 29.5 c 0,285,-1
 598 29 l 1,286,-1
 598 6 l 2,287,288
 598 5 598 5 599 5 c 2,274,-1
545 0 m 1,289,-1
 540 0 l 1,290,-1
 540 35 l 1,291,-1
 545 35 l 1,292,-1
 545 0 l 1,289,-1
457 0 m 1,293,-1
 457 35 l 1,294,-1
 486 35 l 2,295,296
 489 35 489 35 491 33.5 c 128,-1,297
 493 32 493 32 493 29 c 2,298,-1
 493 6 l 2,299,300
 493 4 493 4 491 2 c 128,-1,301
 489 0 489 0 486 0 c 2,302,-1
 457 0 l 1,293,-1
487 6 m 2,303,-1
 487 29 l 1,304,-1
 487 29.5 l 0,305,306
 487 30 487 30 486 30 c 2,307,-1
 464 30 l 2,308,309
 463 30 463 30 463 29.5 c 0,310,-1
 463 29 l 1,311,-1
 463 6 l 2,312,313
 463 5 463 5 464 5 c 2,314,-1
 486 5 l 2,315,316
 487 5 487 5 487 6 c 2,303,-1
405 6 m 2,317,-1
 405 35 l 1,318,-1
 410 35 l 1,319,-1
 410 6 l 2,320,321
 410 4 410 4 408.5 2 c 128,-1,322
 407 0 407 0 404 0 c 2,323,-1
 381 0 l 2,324,325
 379 0 379 0 377 2 c 128,-1,326
 375 4 375 4 375 6 c 2,327,-1
 375 35 l 1,328,-1
 380 35 l 1,329,-1
 380 6 l 1,330,-1
 380.5 5.5 l 0,331,-1
 381 5 l 1,332,-1
 404 5 l 1,333,334
 405 6 l 2,317,-1
294 35 m 1,335,-1
 330 35 l 1,336,-1
 330 30 l 1,337,-1
 315 30 l 1,338,-1
 315 0 l 1,339,-1
 309 0 l 1,340,-1
 309 30 l 1,341,-1
 294 30 l 1,342,-1
 294 35 l 1,335,-1
249 29 m 2,343,-1
 249 27 l 1,344,-1
 244 27 l 1,345,-1
 244 29 l 1,346,347
 243.5 29.5 l 0,348,-1
 243 30 l 1,349,-1
 220 30 l 1,350,351
 219.5 29.5 l 0,352,-1
 219 29 l 1,353,-1
 219 21 l 2,354,355
 220 20 l 1,356,-1
 243 20 l 2,357,358
 245 20 245 20 247 18.5 c 128,-1,359
 249 17 249 17 249 14 c 2,360,-1
 249 6 l 2,361,362
 249 4 249 4 247 2 c 128,-1,363
 245 0 245 0 243 0 c 2,364,-1
 220 0 l 2,365,366
 218 0 218 0 216 2 c 128,-1,367
 214 4 214 4 214 6 c 2,368,-1
 214 8 l 1,369,-1
 219 8 l 1,370,-1
 219 6 l 2,371,372
 220 5 l 1,373,-1
 243 5 l 1,374,375
 244 6 l 2,376,-1
 244 14 l 1,377,378
 243.5 14.5 l 0,379,-1
 243 15 l 1,380,-1
 220 15 l 2,381,382
 218 15 218 15 216 17 c 128,-1,383
 214 19 214 19 214 21 c 2,384,-1
 214 29 l 2,385,386
 214 32 214 32 216 33.5 c 128,-1,387
 218 35 218 35 220 35 c 2,388,-1
 243 35 l 2,389,390
 246 35 246 35 247.5 33.5 c 128,-1,391
 249 32 249 32 249 29 c 2,343,-1
796 74 m 1,392,-1
 832 74 l 1,393,-1
 832 57 l 1,394,-1
 775 57 l 1,395,-1
 775 202 l 1,396,-1
 796 202 l 1,397,-1
 796 74 l 1,392,-1
704 202 m 2,398,-1
 730 202 l 2,399,400
 751 202 751 202 751 182 c 2,401,-1
 751 77 l 2,402,403
 751 57 751 57 730 57 c 2,404,-1
 704 57 l 2,405,406
 682 57 682 57 682 77 c 2,407,-1
 682 182 l 2,408,409
 682 202 682 202 704 202 c 2,398,-1
730 80 m 2,410,-1
 730 178 l 2,411,412
 730 183 730 183 729 184 c 128,-1,413
 728 185 728 185 723 185 c 2,414,-1
 710 185 l 2,415,416
 706 185 706 185 704.5 184 c 128,-1,417
 703 183 703 183 703 178 c 2,418,-1
 703 80 l 2,419,420
 703 76 703 76 704.5 75 c 128,-1,421
 706 74 706 74 710 74 c 2,422,-1
 723 74 l 2,423,424
 728 74 728 74 729 75 c 128,-1,425
 730 76 730 76 730 80 c 2,410,-1
670 202 m 1,426,-1
 670 185 l 1,427,-1
 646 185 l 1,428,-1
 646 57 l 1,429,-1
 625 57 l 1,430,-1
 625 185 l 1,431,-1
 600 185 l 1,432,-1
 600 202 l 1,433,-1
 670 202 l 1,426,-1
553 74 m 1,434,-1
 595 74 l 1,435,-1
 595 57 l 1,436,-1
 531 57 l 1,437,-1
 531 202 l 1,438,-1
 593 202 l 1,439,-1
 593 185 l 1,440,-1
 553 185 l 1,441,-1
 553 140 l 1,442,-1
 586 140 l 1,443,-1
 586 123 l 1,444,-1
 553 123 l 1,445,-1
 553 74 l 1,434,-1
511 182 m 2,446,-1
 511 157 l 1,447,-1
 489 157 l 1,448,-1
 489 179 l 2,449,450
 489 183 489 183 488 184.5 c 128,-1,451
 487 186 487 186 483 186 c 2,452,-1
 471 186 l 2,453,454
 467 186 467 186 465.5 184.5 c 128,-1,455
 464 183 464 183 464 179 c 2,456,-1
 464 80 l 2,457,458
 464 76 464 76 465.5 74.5 c 128,-1,459
 467 73 467 73 471 73 c 2,460,-1
 483 73 l 2,461,462
 487 73 487 73 488 74 c 128,-1,463
 489 75 489 75 489 80 c 2,464,-1
 489 102 l 1,465,-1
 511 102 l 1,466,-1
 511 77 l 2,467,468
 511 56 511 56 489 56 c 2,469,-1
 464 56 l 2,470,471
 443 56 443 56 443 77 c 2,472,-1
 443 182 l 2,473,474
 443 202 443 202 464 202 c 2,475,-1
 489 202 l 2,476,477
 511 202 511 202 511 182 c 2,446,-1
408 57 m 1,478,-1
 402 90 l 1,479,-1
 371 90 l 1,480,-1
 366 57 l 1,481,-1
 345 57 l 1,482,-1
 371 202 l 1,483,-1
 401 202 l 1,484,-1
 429 57 l 1,485,-1
 408 57 l 1,478,-1
386 184 m 1,486,-1
 374 107 l 1,487,-1
 399 107 l 1,488,-1
 386 184 l 1,486,-1
283 115 m 1,489,-1
 283 57 l 1,490,-1
 262 57 l 1,491,-1
 262 202 l 1,492,-1
 310 202 l 2,493,494
 332 202 332 202 332 182 c 2,495,-1
 332 136 l 2,496,497
 332 118 332 118 316 116 c 1,498,-1
 339 57 l 1,499,-1
 316 57 l 1,500,-1
 295 115 l 1,501,-1
 283 115 l 1,489,-1
283 185 m 1,502,-1
 283 132 l 1,503,-1
 304 132 l 2,504,505
 308 132 308 132 309.5 133.5 c 128,-1,506
 311 135 311 135 311 139 c 2,507,-1
 311 178 l 2,508,509
 311 183 311 183 309.5 184 c 128,-1,510
 308 185 308 185 304 185 c 2,511,-1
 283 185 l 1,502,-1
249 202 m 1,512,-1
 249 185 l 1,513,-1
 225 185 l 1,514,-1
 225 57 l 1,515,-1
 204 57 l 1,516,-1
 204 185 l 1,517,-1
 179 185 l 1,518,-1
 179 202 l 1,519,-1
 249 202 l 1,512,-1
146 202 m 1,520,-1
 167 202 l 1,521,-1
 167 77 l 2,522,523
 167 57 167 57 145 57 c 2,524,-1
 119 57 l 2,525,526
 97 57 97 57 97 77 c 2,527,-1
 97 202 l 1,528,-1
 118 202 l 1,529,-1
 118 80 l 2,530,531
 118 76 118 76 119.5 75 c 128,-1,532
 121 74 121 74 125 74 c 2,533,-1
 139 74 l 2,534,535
 143 74 143 74 144.5 75 c 128,-1,536
 146 76 146 76 146 80 c 2,537,-1
 146 202 l 1,520,-1
58 137 m 2,538,-1
 58 178 l 2,539,540
 58 183 58 183 57 184 c 128,-1,541
 56 185 56 185 51 185 c 2,542,-1
 31 185 l 1,543,-1
 31 130 l 1,544,-1
 51 130 l 2,545,546
 56 130 56 130 57 131 c 128,-1,547
 58 132 58 132 58 137 c 2,538,-1
685 886 m 1,548,549
 639 932 639 932 578 958 c 128,-1,550
 517 984 517 984 450 984 c 0,551,552
 365 984 365 984 292 944.5 c 128,-1,553
 219 905 219 905 173 837 c 0,554,555
 107 741 107 741 118 621 c 128,-1,556
 129 501 129 501 214 415 c 0,557,558
 277 353 277 353 361.5 329.5 c 128,-1,559
 446 306 446 306 533 328 c 128,-1,560
 620 350 620 350 685 415 c 1,561,-1
 631 470 l 1,562,563
 574 413 574 413 494 398.5 c 128,-1,564
 414 384 414 384 341 419 c 1,565,-1
 341 501 l 1,566,567
 390 465 390 465 450 465 c 0,568,569
 527 465 527 465 581 519.5 c 128,-1,570
 635 574 635 574 635 651 c 128,-1,571
 635 728 635 728 581 782.5 c 128,-1,572
 527 837 527 837 450 837 c 2,573,-1
 273 837 l 1,574,575
 349 909 349 909 453 907.5 c 128,-1,576
 557 906 557 906 631 832 c 1,577,-1
 685 886 l 1,548,549
264 474 m 1,578,579
 210 531 210 531 197 609.5 c 128,-1,580
 184 688 184 688 218 760 c 1,581,-1
 450 760 l 2,582,583
 485 760 485 760 512 740.5 c 128,-1,584
 539 721 539 721 550.5 693 c 128,-1,585
 562 665 562 665 557 632 c 128,-1,586
 552 599 552 599 527 574 c 128,-1,587
 502 549 502 549 469 543.5 c 128,-1,588
 436 538 436 538 408 550 c 128,-1,589
 380 562 380 562 360.5 589 c 128,-1,590
 341 616 341 616 341 651 c 1,591,-1
 264 651 l 1,592,-1
 264 474 l 1,578,579
EndSplineSet
EndChar

StartChar: plus
Encoding: 43 43 16
Width: 416
GlyphClass: 2
Flags: W
LayerCount: 2
Fore
SplineSet
393 330 m 0,0,1
 401 329 401 329 403 328 c 0,2,3
 408 325 408 325 403 320 c 1,4,5
 386 319 386 319 347.5 308 c 128,-1,6
 309 297 309 297 241 295 c 1,7,8
 241 216 241 216 240 209 c 0,9,10
 239 197 239 197 238 191 c 128,-1,11
 237 185 237 185 236 171 c 0,12,13
 235 169 235 169 234.5 167 c 128,-1,14
 234 165 234 165 233.5 164 c 128,-1,15
 233 163 233 163 232.5 161.5 c 128,-1,16
 232 160 232 160 232 158 c 0,17,18
 232 154 232 154 230 152 c 0,19,-1
 228 150 l 2,20,21
 228 149 228 149 227.5 148.5 c 128,-1,22
 227 148 227 148 226.5 146 c 128,-1,23
 226 144 226 144 225 141 c 0,24,25
 224 132 224 132 223 130 c 0,26,27
 218 125 218 125 213 134 c 0,28,29
 212 136 212 136 210.5 143.5 c 128,-1,30
 209 151 209 151 207 160 c 128,-1,31
 205 169 205 169 204 171 c 0,32,33
 202 178 202 178 198.5 187 c 128,-1,34
 195 196 195 196 193 202 c 128,-1,35
 191 208 191 208 191 209 c 0,36,37
 191 211 191 211 186 224 c 0,38,39
 178 249 178 249 177 294 c 1,40,41
 97 294 97 294 90 295 c 0,42,43
 78 295 78 295 72 296.5 c 128,-1,44
 66 298 66 298 52 299 c 0,45,46
 49 299 49 299 45.5 300.5 c 128,-1,47
 42 302 42 302 39 302 c 0,48,49
 35 302 35 302 33 304.5 c 0,50,-1
 31 307 l 257,51,52
 28.5 308 l 0,53,54
 26 309 26 309 22 309 c 0,55,56
 13 310 13 310 11 312 c 0,57,58
 6 317 6 317 15 321 c 0,59,60
 18 323 18 323 34.5 326.5 c 128,-1,61
 51 330 51 330 52 330 c 0,62,63
 59 332 59 332 68 335.5 c 128,-1,64
 77 339 77 339 83 341.5 c 128,-1,65
 89 344 89 344 90.5 344 c 128,-1,66
 92 344 92 344 105 348 c 0,67,68
 131 357 131 357 175 358 c 1,69,70
 175 381 175 381 177 396 c 0,71,72
 182 431 182 431 193 466 c 128,-1,73
 204 501 204 501 205 512 c 0,74,75
 205 520 205 520 206 522 c 0,76,77
 209 527 209 527 215 522 c 1,78,79
 215 505 215 505 218.5 491 c 128,-1,80
 222 477 222 477 226.5 466.5 c 128,-1,81
 231 456 231 456 235 428 c 128,-1,82
 239 400 239 400 240 359 c 1,83,84
 276 359 276 359 307.5 352 c 128,-1,85
 339 345 339 345 361 337.5 c 128,-1,86
 383 330 383 330 393 330 c 0,0,1
EndSplineSet
EndChar

StartChar: comma
Encoding: 44 44 17
Width: 115
GlyphClass: 2
Flags: W
LayerCount: 2
Fore
SplineSet
73 -58 m 0,0,1
 70 -64 70 -64 66 -68 c 128,-1,2
 62 -72 62 -72 57.5 -74.5 c 128,-1,3
 53 -77 53 -77 51 -78 c 0,4,5
 46 -84 46 -84 35.5 -90.5 c 128,-1,6
 25 -97 25 -97 20 -95 c 0,7,8
 17 -94 17 -94 17 -89 c 0,9,10
 17 -86 17 -86 22.5 -81 c 128,-1,11
 28 -76 28 -76 28 -75 c 128,-1,12
 28 -74 28 -74 29 -71.5 c 128,-1,13
 30 -69 30 -69 32 -66 c 128,-1,14
 34 -63 34 -63 36.5 -59 c 128,-1,15
 39 -55 39 -55 41 -50.5 c 128,-1,16
 43 -46 43 -46 45 -42 c 0,17,18
 45 -40 45 -40 47.5 -34.5 c 128,-1,19
 50 -29 50 -29 51.5 -24 c 128,-1,20
 53 -19 53 -19 53 -10 c 0,21,22
 53 -4 53 -4 53.5 -0.5 c 128,-1,23
 54 3 54 3 54 10 c 1,24,-1
 46 11 l 2,25,26
 37 11 37 11 31 13 c 128,-1,27
 25 15 25 15 22.5 16.5 c 0,28,-1
 20 18 l 2,29,30
 13 18 13 18 12 26 c 0,31,32
 10 38 10 38 10 39 c 0,33,34
 10 42 10 42 20 79 c 0,35,36
 23 91 23 91 32.5 100.5 c 128,-1,37
 42 110 42 110 53.5 113.5 c 128,-1,38
 65 117 65 117 78 108 c 128,-1,39
 91 99 91 99 99 78 c 0,40,41
 101 73 101 73 101.5 68.5 c 128,-1,42
 102 64 102 64 102.5 61 c 128,-1,43
 103 58 103 58 104 56 c 0,44,45
 105 53 105 53 104.5 37 c 128,-1,46
 104 21 104 21 102 12 c 0,47,48
 98 -1 98 -1 95 -7.5 c 128,-1,49
 92 -14 92 -14 90 -18 c 0,50,51
 86 -31 86 -31 83 -38.5 c 128,-1,52
 80 -46 80 -46 78.5 -48 c 128,-1,53
 77 -50 77 -50 75.5 -52.5 c 128,-1,54
 74 -55 74 -55 73 -58 c 0,0,1
EndSplineSet
EndChar

StartChar: hyphen
Encoding: 45 45 18
Width: 282
GlyphClass: 2
Flags: W
LayerCount: 2
Fore
SplineSet
108 292 m 0,0,1
 106 292 106 292 104.5 291.5 c 128,-1,2
 103 291 103 291 101 290.5 c 128,-1,3
 99 290 99 290 98 290 c 0,4,5
 93 289 93 289 81 288.5 c 128,-1,6
 69 288 69 288 66 289 c 0,7,8
 63 289 63 289 57 294 c 128,-1,9
 51 299 51 299 48 299 c 256,10,11
 45 299 45 299 41.5 300.5 c 128,-1,12
 38 302 38 302 34 302 c 0,13,14
 27 301 27 301 26 302 c 0,15,16
 24 304 24 304 21.5 303.5 c 128,-1,17
 19 303 19 303 17 305 c 0,18,19
 11 311 11 311 11 313 c 0,20,21
 12 316 12 316 11 316 c 0,22,23
 10 317 10 317 10 319.5 c 128,-1,24
 10 322 10 322 11.5 323 c 128,-1,25
 13 324 13 324 14 324.5 c 128,-1,26
 15 325 15 325 16 325 c 128,-1,27
 17 325 17 325 20.5 325.5 c 128,-1,28
 24 326 24 326 29 328 c 0,29,30
 34 329 34 329 34.5 329.5 c 128,-1,31
 35 330 35 330 35 331 c 0,32,33
 34 338 34 338 47 340 c 0,34,35
 52 340 52 340 61 340 c 2,36,-1
 62 340 l 2,37,38
 82 341 82 341 114 348 c 0,39,40
 128 351 128 351 135 352.5 c 128,-1,41
 142 354 142 354 146.5 354.5 c 128,-1,42
 151 355 151 355 152 355 c 128,-1,43
 153 355 153 355 153.5 355 c 128,-1,44
 154 355 154 355 154.5 355 c 128,-1,45
 155 355 155 355 158.5 355.5 c 128,-1,46
 162 356 162 356 168 356 c 0,47,48
 191 359 191 359 207 354 c 0,49,50
 221 350 221 350 222 349 c 256,51,52
 223 348 223 348 226.5 347 c 128,-1,53
 230 346 230 346 233.5 345.5 c 128,-1,54
 237 345 237 345 240.5 344.5 c 128,-1,55
 244 344 244 344 247 343.5 c 128,-1,56
 250 343 250 343 252 342 c 0,57,58
 255 341 255 341 259.5 341 c 128,-1,59
 264 341 264 341 267 340.5 c 128,-1,60
 270 340 270 340 271 339 c 256,61,62
 272 338 272 338 271.5 335.5 c 128,-1,63
 271 333 271 333 269 333 c 0,64,65
 268 333 268 333 267.5 331 c 128,-1,66
 267 329 267 329 257 327 c 0,67,68
 251 326 251 326 246.5 322 c 128,-1,69
 242 318 242 318 238 317 c 0,70,71
 220 313 220 313 213 309.5 c 128,-1,72
 206 306 206 306 190 302 c 2,73,-1
 174 298 l 1,74,75
 147 298 147 298 108 292 c 0,0,1
EndSplineSet
EndChar

StartChar: period
Encoding: 46 46 19
Width: 115
GlyphClass: 2
Flags: WO
LayerCount: 2
Fore
SplineSet
62 120 m 0,0,1
 65 121 65 121 70.5 120.5 c 128,-1,2
 76 120 76 120 80 120 c 0,3,4
 86 116 86 116 96 94 c 0,5,6
 102 78 102 78 102 70 c 0,7,8
 102 63 102 63 99 56.5 c 128,-1,9
 96 50 96 50 91 44 c 128,-1,10
 86 38 86 38 84 34 c 0,11,12
 80 28 80 28 77 25 c 128,-1,13
 74 22 74 22 70 21 c 128,-1,14
 66 20 66 20 64 18 c 0,15,16
 56 14 56 14 44 14 c 0,17,18
 36 12 36 12 32 14 c 0,19,20
 24 16 24 16 20 30 c 0,21,22
 19 34 19 34 16.5 39 c 128,-1,23
 14 44 14 44 14 46 c 128,-1,24
 14 48 14 48 13 52 c 128,-1,25
 12 56 12 56 12 62 c 0,26,27
 13 83 13 83 23 96.5 c 128,-1,28
 33 110 33 110 62 120 c 0,0,1
EndSplineSet
EndChar

StartChar: slash
Encoding: 47 47 20
Width: 842
GlyphClass: 2
Flags: W
LayerCount: 2
Fore
SplineSet
782 240 m 2,0,-1
 60 240 l 2,1,2
 39 240 39 240 24.5 254.5 c 128,-1,3
 10 269 10 269 10 290 c 2,4,-1
 10 1012 l 2,5,6
 10 1032 10 1032 24.5 1047 c 128,-1,7
 39 1062 39 1062 60 1062 c 2,8,-1
 782 1062 l 2,9,10
 802 1062 802 1062 816.5 1047 c 128,-1,11
 831 1032 831 1032 831 1012 c 2,12,-1
 831 290 l 2,13,14
 831 269 831 269 816.5 254.5 c 128,-1,15
 802 240 802 240 782 240 c 2,0,-1
10 1211 m 1,16,-1
 51 1211 l 2,17,18
 69 1211 69 1211 69 1193 c 2,19,-1
 69 1152 l 2,20,21
 69 1135 69 1135 51 1135 c 2,22,-1
 28 1135 l 1,23,-1
 28 1087 l 1,24,-1
 10 1087 l 1,25,-1
 10 1211 l 1,16,-1
51 1155 m 2,26,-1
 51 1191 l 2,27,28
 51 1194 51 1194 50 1195 c 128,-1,29
 49 1196 49 1196 45 1196 c 2,30,-1
 28 1196 l 1,31,-1
 28 1149 l 1,32,-1
 45 1149 l 2,33,34
 49 1149 49 1149 50 1150 c 128,-1,35
 51 1151 51 1151 51 1155 c 2,26,-1
103 1101 m 1,36,-1
 139 1101 l 1,37,-1
 139 1087 l 1,38,-1
 85 1087 l 1,39,-1
 85 1211 l 1,40,-1
 138 1211 l 1,41,-1
 138 1196 l 1,42,-1
 103 1196 l 1,43,-1
 103 1158 l 1,44,-1
 132 1158 l 1,45,-1
 132 1143 l 1,46,-1
 103 1143 l 1,47,-1
 103 1101 l 1,36,-1
171 1137 m 1,48,-1
 171 1087 l 1,49,-1
 153 1087 l 1,50,-1
 153 1211 l 1,51,-1
 194 1211 l 2,52,53
 212 1211 212 1211 212 1193 c 2,54,-1
 212 1154 l 2,55,56
 212 1139 212 1139 199 1137 c 1,57,-1
 218 1087 l 1,58,-1
 199 1087 l 1,59,-1
 181 1137 l 1,60,-1
 171 1137 l 1,48,-1
171 1196 m 1,61,-1
 171 1151 l 1,62,-1
 188 1151 l 2,63,64
 192 1151 192 1151 193 1152 c 128,-1,65
 194 1153 194 1153 194 1157 c 2,66,-1
 194 1191 l 2,67,68
 194 1194 194 1194 193 1195 c 128,-1,69
 192 1196 192 1196 188 1196 c 2,70,-1
 171 1196 l 1,61,-1
267 1107 m 2,71,-1
 267 1137 l 2,72,73
 267 1141 267 1141 266 1142 c 256,74,75
 265 1143 265 1143 261 1143 c 2,76,-1
 247 1143 l 2,77,78
 229 1143 229 1143 229 1161 c 2,79,-1
 229 1193 l 2,80,81
 229 1211 229 1211 247 1211 c 2,82,-1
 267 1211 l 2,83,84
 285 1211 285 1211 285 1193 c 2,85,-1
 285 1175 l 1,86,-1
 267 1175 l 1,87,-1
 267 1191 l 2,88,89
 267 1194 267 1194 266 1195 c 128,-1,90
 265 1196 265 1196 261 1196 c 2,91,-1
 253 1196 l 2,92,93
 249 1196 249 1196 248 1195 c 128,-1,94
 247 1194 247 1194 247 1191 c 2,95,-1
 247 1163 l 2,96,97
 247 1159 247 1159 248 1158 c 128,-1,98
 249 1157 249 1157 253 1157 c 2,99,-1
 267 1157 l 2,100,101
 285 1157 285 1157 285 1140 c 2,102,-1
 285 1104 l 2,103,104
 285 1087 285 1087 267 1087 c 2,105,-1
 248 1087 l 2,106,107
 229 1087 229 1087 229 1104 c 2,108,-1
 229 1122 l 1,109,-1
 247 1122 l 1,110,-1
 247 1107 l 2,111,112
 247 1103 247 1103 248 1102 c 256,113,114
 249 1101 249 1101 253 1101 c 2,115,-1
 261 1101 l 2,116,117
 265 1101 265 1101 266 1102 c 128,-1,118
 267 1103 267 1103 267 1107 c 2,71,-1
321 1211 m 2,119,-1
 343 1211 l 2,120,121
 361 1211 361 1211 361 1193 c 2,122,-1
 361 1104 l 2,123,124
 361 1087 361 1087 343 1087 c 2,125,-1
 321 1087 l 2,126,127
 302 1087 302 1087 302 1104 c 2,128,-1
 302 1193 l 2,129,130
 302 1211 302 1211 321 1211 c 2,119,-1
343 1107 m 2,131,-1
 343 1191 l 2,132,133
 343 1194 343 1194 342 1195 c 128,-1,134
 341 1196 341 1196 337 1196 c 2,135,-1
 326 1196 l 2,136,137
 322 1196 322 1196 321 1195 c 128,-1,138
 320 1194 320 1194 320 1191 c 2,139,-1
 320 1107 l 2,140,141
 320 1103 320 1103 321 1102 c 128,-1,142
 322 1101 322 1101 326 1101 c 2,143,-1
 337 1101 l 2,144,145
 341 1101 341 1101 342 1102 c 128,-1,146
 343 1103 343 1103 343 1107 c 2,131,-1
425 1211 m 1,147,-1
 442 1211 l 1,148,-1
 442 1087 l 1,149,-1
 424 1087 l 1,150,-1
 398 1176 l 1,151,-1
 398 1087 l 1,152,-1
 381 1087 l 1,153,-1
 381 1211 l 1,154,-1
 400 1211 l 1,155,-1
 425 1124 l 1,156,-1
 425 1211 l 1,147,-1
508 1087 m 1,157,-1
 503 1115 l 1,158,-1
 477 1115 l 1,159,-1
 472 1087 l 1,160,-1
 454 1087 l 1,161,-1
 476 1211 l 1,162,-1
 502 1211 l 1,163,-1
 526 1087 l 1,164,-1
 508 1087 l 1,157,-1
489 1195 m 1,165,-1
 479 1130 l 1,166,-1
 501 1130 l 1,167,-1
 489 1195 l 1,165,-1
557 1101 m 1,168,-1
 587 1101 l 1,169,-1
 587 1087 l 1,170,-1
 539 1087 l 1,171,-1
 539 1211 l 1,172,-1
 557 1211 l 1,173,-1
 557 1101 l 1,168,-1
668 1211 m 1,174,-1
 686 1211 l 1,175,-1
 686 1104 l 2,176,177
 686 1087 686 1087 667 1087 c 2,178,-1
 645 1087 l 2,179,180
 627 1087 627 1087 627 1104 c 2,181,-1
 627 1211 l 1,182,-1
 645 1211 l 1,183,-1
 645 1107 l 2,184,185
 645 1103 645 1103 646 1102 c 128,-1,186
 647 1101 647 1101 651 1101 c 2,187,-1
 662 1101 l 2,188,189
 666 1101 666 1101 667 1102 c 128,-1,190
 668 1103 668 1103 668 1107 c 2,191,-1
 668 1211 l 1,174,-1
742 1107 m 2,192,-1
 742 1137 l 2,193,194
 742 1141 742 1141 740.5 1142 c 128,-1,195
 739 1143 739 1143 736 1143 c 2,196,-1
 721 1143 l 2,197,198
 703 1143 703 1143 703 1161 c 2,199,-1
 703 1193 l 2,200,201
 703 1211 703 1211 722 1211 c 2,202,-1
 741 1211 l 2,203,204
 759 1211 759 1211 759 1193 c 2,205,-1
 759 1175 l 1,206,-1
 741 1175 l 1,207,-1
 741 1191 l 2,208,209
 741 1194 741 1194 740 1195 c 128,-1,210
 739 1196 739 1196 736 1196 c 2,211,-1
 727 1196 l 2,212,213
 724 1196 724 1196 722.5 1195 c 128,-1,214
 721 1194 721 1194 721 1191 c 2,215,-1
 721 1163 l 2,216,217
 721 1159 721 1159 722.5 1158 c 128,-1,218
 724 1157 724 1157 727 1157 c 2,219,-1
 742 1157 l 2,220,221
 760 1157 760 1157 760 1140 c 2,222,-1
 760 1104 l 2,223,224
 760 1087 760 1087 741 1087 c 2,225,-1
 722 1087 l 2,226,227
 704 1087 704 1087 704 1104 c 2,228,-1
 704 1122 l 1,229,-1
 722 1122 l 1,230,-1
 722 1107 l 2,231,232
 722 1103 722 1103 723 1102 c 128,-1,233
 724 1101 724 1101 728 1101 c 2,234,-1
 736 1101 l 2,235,236
 739 1101 739 1101 740.5 1102 c 128,-1,237
 742 1103 742 1103 742 1107 c 2,192,-1
796 1101 m 1,238,-1
 831 1101 l 1,239,-1
 831 1087 l 1,240,-1
 778 1087 l 1,241,-1
 778 1211 l 1,242,-1
 830 1211 l 1,243,-1
 830 1196 l 1,244,-1
 796 1196 l 1,245,-1
 796 1158 l 1,246,-1
 824 1158 l 1,247,-1
 824 1143 l 1,248,-1
 796 1143 l 1,249,-1
 796 1101 l 1,238,-1
10 202 m 1,250,-1
 58 202 l 2,251,252
 79 202 79 202 79 182 c 2,253,-1
 79 133 l 2,254,255
 79 113 79 113 58 113 c 2,256,-1
 31 113 l 1,257,-1
 31 57 l 1,258,-1
 10 57 l 1,259,-1
 10 202 l 1,250,-1
599 35 m 2,260,-1
 621 35 l 2,261,262
 624 35 624 35 626 33.5 c 128,-1,263
 628 32 628 32 628 29 c 2,264,-1
 628 6 l 2,265,266
 628 4 628 4 626 2 c 128,-1,267
 624 0 624 0 621 0 c 2,268,-1
 599 0 l 2,269,270
 596 0 596 0 594 2 c 128,-1,271
 592 4 592 4 592 6 c 2,272,-1
 592 29 l 2,273,274
 592 32 592 32 594 33.5 c 128,-1,275
 596 35 596 35 599 35 c 2,260,-1
599 5 m 2,276,-1
 621 5 l 2,277,278
 622 5 622 5 622 6 c 2,279,-1
 622 29 l 1,280,281
 622 29.5 l 0,282,283
 622 30 622 30 621 30 c 2,284,-1
 599 30 l 2,285,286
 598 30 598 30 598 29.5 c 0,287,-1
 598 29 l 1,288,-1
 598 6 l 2,289,290
 598 5 598 5 599 5 c 2,276,-1
545 0 m 1,291,-1
 540 0 l 1,292,-1
 540 35 l 1,293,-1
 545 35 l 1,294,-1
 545 0 l 1,291,-1
457 0 m 1,295,-1
 457 35 l 1,296,-1
 486 35 l 2,297,298
 489 35 489 35 491 33.5 c 128,-1,299
 493 32 493 32 493 29 c 2,300,-1
 493 6 l 2,301,302
 493 4 493 4 491 2 c 128,-1,303
 489 0 489 0 486 0 c 2,304,-1
 457 0 l 1,295,-1
487 6 m 2,305,-1
 487 29 l 1,306,-1
 487 29.5 l 0,307,308
 487 30 487 30 486 30 c 2,309,-1
 464 30 l 2,310,311
 463 30 463 30 463 29.5 c 0,312,-1
 463 29 l 1,313,-1
 463 6 l 2,314,315
 463 5 463 5 464 5 c 2,316,-1
 486 5 l 2,317,318
 487 5 487 5 487 6 c 2,305,-1
405 6 m 2,319,-1
 405 35 l 1,320,-1
 410 35 l 1,321,-1
 410 6 l 2,322,323
 410 4 410 4 408 2 c 0,324,325
 407 0 407 0 404 0 c 2,326,-1
 381 0 l 2,327,328
 379 0 379 0 377 2 c 128,-1,329
 375 4 375 4 375 6 c 2,330,-1
 375 35 l 1,331,-1
 380 35 l 1,332,-1
 380 6 l 1,333,-1
 380.5 5.5 l 0,334,-1
 381 5 l 1,335,-1
 404 5 l 1,336,337
 405 6 l 2,319,-1
294 35 m 1,338,-1
 330 35 l 1,339,-1
 330 30 l 1,340,-1
 315 30 l 1,341,-1
 315 0 l 1,342,-1
 309 0 l 1,343,-1
 309 30 l 1,344,-1
 294 30 l 1,345,-1
 294 35 l 1,338,-1
249 29 m 2,346,-1
 249 27 l 1,347,-1
 244 27 l 1,348,-1
 244 29 l 1,349,350
 243.5 29.5 l 0,351,-1
 243 30 l 1,352,-1
 220 30 l 2,353,354
 219 29 l 1,355,-1
 219 21 l 1,356,357
 219.5 20.5 l 0,358,-1
 220 20 l 1,359,-1
 243 20 l 2,360,361
 245 20 245 20 247 18.5 c 128,-1,362
 249 17 249 17 249 14 c 2,363,-1
 249 6 l 2,364,365
 249 4 249 4 247 2 c 128,-1,366
 245 0 245 0 243 0 c 2,367,-1
 220 0 l 2,368,369
 218 0 218 0 216 2 c 128,-1,370
 214 4 214 4 214 6 c 2,371,-1
 214 8 l 1,372,-1
 219 8 l 1,373,-1
 219 6 l 1,374,375
 219.5 5.5 l 0,376,-1
 220 5 l 1,377,-1
 243 5 l 1,378,379
 244 6 l 2,380,-1
 244 14 l 1,381,382
 243.5 14.5 l 0,383,-1
 243 15 l 1,384,-1
 220 15 l 2,385,386
 218 15 218 15 216 17 c 128,-1,387
 214 19 214 19 214 21 c 2,388,-1
 214 29 l 2,389,390
 214 32 214 32 216 33.5 c 128,-1,391
 218 35 218 35 220 35 c 2,392,-1
 243 35 l 2,393,394
 246 35 246 35 247.5 33.5 c 128,-1,395
 249 32 249 32 249 29 c 2,346,-1
796 74 m 1,396,-1
 831 74 l 1,397,-1
 831 57 l 1,398,-1
 775 57 l 1,399,-1
 775 202 l 1,400,-1
 796 202 l 1,401,-1
 796 74 l 1,396,-1
704 202 m 2,402,-1
 730 202 l 2,403,404
 751 202 751 202 751 182 c 2,405,-1
 751 77 l 2,406,407
 751 57 751 57 730 57 c 2,408,-1
 704 57 l 2,409,410
 682 57 682 57 682 77 c 2,411,-1
 682 182 l 2,412,413
 682 202 682 202 704 202 c 2,402,-1
730 80 m 2,414,-1
 730 178 l 2,415,416
 730 183 730 183 729 184 c 256,417,418
 728 185 728 185 723 185 c 2,419,-1
 710 185 l 2,420,421
 706 185 706 185 704.5 184 c 128,-1,422
 703 183 703 183 703 178 c 2,423,-1
 703 80 l 2,424,425
 703 76 703 76 704.5 75 c 128,-1,426
 706 74 706 74 710 74 c 2,427,-1
 723 74 l 2,428,429
 727 74 727 74 728.5 75 c 128,-1,430
 730 76 730 76 730 80 c 2,414,-1
670 202 m 1,431,-1
 670 185 l 1,432,-1
 646 185 l 1,433,-1
 646 57 l 1,434,-1
 625 57 l 1,435,-1
 625 185 l 1,436,-1
 600 185 l 1,437,-1
 600 202 l 1,438,-1
 670 202 l 1,431,-1
552 74 m 1,439,-1
 595 74 l 1,440,-1
 595 57 l 1,441,-1
 531 57 l 1,442,-1
 531 202 l 1,443,-1
 593 202 l 1,444,-1
 593 185 l 1,445,-1
 552 185 l 1,446,-1
 552 140 l 1,447,-1
 586 140 l 1,448,-1
 586 123 l 1,449,-1
 552 123 l 1,450,-1
 552 74 l 1,439,-1
511 182 m 2,451,-1
 511 157 l 1,452,-1
 489 157 l 1,453,-1
 489 179 l 2,454,455
 489 183 489 183 488 184.5 c 128,-1,456
 487 186 487 186 483 186 c 2,457,-1
 471 186 l 2,458,459
 467 186 467 186 465.5 184.5 c 128,-1,460
 464 183 464 183 464 179 c 2,461,-1
 464 80 l 2,462,463
 464 75 464 75 465.5 74 c 128,-1,464
 467 73 467 73 471 73 c 2,465,-1
 483 73 l 2,466,467
 487 73 487 73 488 74.5 c 128,-1,468
 489 76 489 76 489 80 c 2,469,-1
 489 102 l 1,470,-1
 511 102 l 1,471,-1
 511 77 l 2,472,473
 511 56 511 56 489 56 c 2,474,-1
 464 56 l 2,475,476
 443 56 443 56 443 77 c 2,477,-1
 443 182 l 2,478,479
 443 202 443 202 464 202 c 2,480,-1
 489 202 l 2,481,482
 511 202 511 202 511 182 c 2,451,-1
408 57 m 1,483,-1
 402 90 l 1,484,-1
 371 90 l 1,485,-1
 366 57 l 1,486,-1
 345 57 l 1,487,-1
 371 202 l 1,488,-1
 401 202 l 1,489,-1
 429 57 l 1,490,-1
 408 57 l 1,483,-1
386 184 m 1,491,-1
 374 107 l 1,492,-1
 399 107 l 1,493,-1
 386 184 l 1,491,-1
283 115 m 1,494,-1
 283 57 l 1,495,-1
 262 57 l 1,496,-1
 262 202 l 1,497,-1
 310 202 l 2,498,499
 331 202 331 202 331 182 c 2,500,-1
 331 136 l 2,501,502
 331 118 331 118 316 116 c 1,503,-1
 339 57 l 1,504,-1
 316 57 l 1,505,-1
 295 115 l 1,506,-1
 283 115 l 1,494,-1
283 185 m 1,507,-1
 283 132 l 1,508,-1
 304 132 l 2,509,510
 308 132 308 132 309 133.5 c 128,-1,511
 310 135 310 135 310 139 c 2,512,-1
 310 178 l 2,513,514
 310 183 310 183 309 184 c 128,-1,515
 308 185 308 185 304 185 c 2,516,-1
 283 185 l 1,507,-1
249 202 m 1,517,-1
 249 185 l 1,518,-1
 224 185 l 1,519,-1
 224 57 l 1,520,-1
 204 57 l 1,521,-1
 204 185 l 1,522,-1
 179 185 l 1,523,-1
 179 202 l 1,524,-1
 249 202 l 1,517,-1
146 202 m 1,525,-1
 167 202 l 1,526,-1
 167 77 l 2,527,528
 167 57 167 57 145 57 c 2,529,-1
 119 57 l 2,530,531
 97 57 97 57 97 77 c 2,532,-1
 97 202 l 1,533,-1
 118 202 l 1,534,-1
 118 80 l 2,535,536
 118 76 118 76 119.5 75 c 128,-1,537
 121 74 121 74 125 74 c 2,538,-1
 138 74 l 2,539,540
 143 74 143 74 144.5 75 c 128,-1,541
 146 76 146 76 146 80 c 2,542,-1
 146 202 l 1,525,-1
58 137 m 2,543,-1
 58 178 l 2,544,545
 58 183 58 183 57 184 c 128,-1,546
 56 185 56 185 51 185 c 2,547,-1
 31 185 l 1,548,-1
 31 130 l 1,549,-1
 51 130 l 2,550,551
 56 130 56 130 57 131 c 128,-1,552
 58 132 58 132 58 137 c 2,543,-1
685 886 m 1,553,554
 655 917 655 917 618 938.5 c 128,-1,555
 581 960 581 960 538 972 c 128,-1,556
 495 984 495 984 450 984 c 0,557,558
 365 984 365 984 292 944.5 c 128,-1,559
 219 905 219 905 173 837 c 0,560,561
 107 741 107 741 118 621 c 128,-1,562
 129 501 129 501 214 415 c 0,563,564
 261 369 261 369 322.5 344 c 128,-1,565
 384 319 384 319 447 318 c 128,-1,566
 510 317 510 317 573 341.5 c 128,-1,567
 636 366 636 366 685 415 c 1,568,569
 681 420 681 420 631 470 c 1,570,571
 574 413 574 413 494 398.5 c 128,-1,572
 414 384 414 384 341 419 c 1,573,-1
 341 501 l 1,574,575
 390 465 390 465 450 465 c 0,576,577
 527 465 527 465 581 519.5 c 128,-1,578
 635 574 635 574 635 651 c 128,-1,579
 635 728 635 728 581 782.5 c 128,-1,580
 527 837 527 837 450 837 c 2,581,-1
 273 837 l 1,582,583
 349 909 349 909 453 907.5 c 128,-1,584
 557 906 557 906 631 832 c 1,585,586
 681 882 681 882 685 886 c 1,553,554
264 474 m 1,587,588
 209 531 209 531 196.5 609.5 c 128,-1,589
 184 688 184 688 218 760 c 1,590,-1
 450 760 l 2,591,592
 485 760 485 760 512 740.5 c 128,-1,593
 539 721 539 721 550.5 693 c 128,-1,594
 562 665 562 665 556.5 632 c 128,-1,595
 551 599 551 599 526.5 574 c 128,-1,596
 502 549 502 549 469 543.5 c 128,-1,597
 436 538 436 538 408 550 c 128,-1,598
 380 562 380 562 360.5 589 c 128,-1,599
 341 616 341 616 341 651 c 1,600,-1
 264 651 l 1,601,-1
 264 474 l 1,587,588
EndSplineSet
EndChar

StartChar: zero
Encoding: 48 48 21
Width: 842
GlyphClass: 2
Flags: W
LayerCount: 2
Fore
SplineSet
782 240 m 2,0,-1
 60 240 l 2,1,2
 39 240 39 240 24.5 254.5 c 128,-1,3
 10 269 10 269 10 290 c 2,4,-1
 10 1012 l 2,5,6
 10 1032 10 1032 24.5 1047 c 128,-1,7
 39 1062 39 1062 60 1062 c 2,8,-1
 782 1062 l 2,9,10
 802 1062 802 1062 816.5 1047 c 128,-1,11
 831 1032 831 1032 831 1012 c 2,12,-1
 831 290 l 2,13,14
 831 269 831 269 816.5 254.5 c 128,-1,15
 802 240 802 240 782 240 c 2,0,-1
10 1211 m 1,16,-1
 51 1211 l 2,17,18
 69 1211 69 1211 69 1193 c 2,19,-1
 69 1152 l 2,20,21
 69 1135 69 1135 51 1135 c 2,22,-1
 28 1135 l 1,23,-1
 28 1087 l 1,24,-1
 10 1087 l 1,25,-1
 10 1211 l 1,16,-1
51 1155 m 2,26,-1
 51 1191 l 2,27,28
 51 1194 51 1194 50 1195 c 128,-1,29
 49 1196 49 1196 45 1196 c 2,30,-1
 28 1196 l 1,31,-1
 28 1149 l 1,32,-1
 45 1149 l 2,33,34
 49 1149 49 1149 50 1150 c 128,-1,35
 51 1151 51 1151 51 1155 c 2,26,-1
103 1101 m 1,36,-1
 139 1101 l 1,37,-1
 139 1087 l 1,38,-1
 85 1087 l 1,39,-1
 85 1211 l 1,40,-1
 138 1211 l 1,41,-1
 138 1196 l 1,42,-1
 103 1196 l 1,43,-1
 103 1158 l 1,44,-1
 132 1158 l 1,45,-1
 132 1143 l 1,46,-1
 103 1143 l 1,47,-1
 103 1101 l 1,36,-1
171 1137 m 1,48,-1
 171 1087 l 1,49,-1
 153 1087 l 1,50,-1
 153 1211 l 1,51,-1
 194 1211 l 2,52,53
 212 1211 212 1211 212 1193 c 2,54,-1
 212 1154 l 2,55,56
 212 1139 212 1139 199 1137 c 1,57,-1
 218 1087 l 1,58,-1
 199 1087 l 1,59,-1
 181 1137 l 1,60,-1
 171 1137 l 1,48,-1
171 1196 m 1,61,-1
 171 1151 l 1,62,-1
 188 1151 l 2,63,64
 192 1151 192 1151 193 1152 c 128,-1,65
 194 1153 194 1153 194 1157 c 2,66,-1
 194 1191 l 2,67,68
 194 1194 194 1194 193 1195 c 128,-1,69
 192 1196 192 1196 188 1196 c 2,70,-1
 171 1196 l 1,61,-1
267 1107 m 2,71,-1
 267 1137 l 2,72,73
 267 1141 267 1141 266 1142 c 128,-1,74
 265 1143 265 1143 261 1143 c 2,75,-1
 247 1143 l 2,76,77
 229 1143 229 1143 229 1161 c 2,78,-1
 229 1193 l 2,79,80
 229 1211 229 1211 247 1211 c 2,81,-1
 267 1211 l 2,82,83
 285 1211 285 1211 285 1193 c 2,84,-1
 285 1175 l 1,85,-1
 267 1175 l 1,86,-1
 267 1191 l 2,87,88
 267 1194 267 1194 266 1195 c 128,-1,89
 265 1196 265 1196 261 1196 c 2,90,-1
 253 1196 l 2,91,92
 249 1196 249 1196 248 1195 c 128,-1,93
 247 1194 247 1194 247 1191 c 2,94,-1
 247 1163 l 2,95,96
 247 1159 247 1159 248 1158 c 128,-1,97
 249 1157 249 1157 253 1157 c 2,98,-1
 267 1157 l 2,99,100
 286 1157 286 1157 286 1140 c 2,101,-1
 286 1104 l 2,102,103
 286 1087 286 1087 267 1087 c 2,104,-1
 248 1087 l 2,105,106
 229 1087 229 1087 229 1104 c 2,107,-1
 229 1122 l 1,108,-1
 247 1122 l 1,109,-1
 247 1107 l 2,110,111
 247 1103 247 1103 248.5 1102 c 128,-1,112
 250 1101 250 1101 253 1101 c 2,113,-1
 261 1101 l 2,114,115
 265 1101 265 1101 266 1102 c 128,-1,116
 267 1103 267 1103 267 1107 c 2,71,-1
321 1211 m 2,117,-1
 343 1211 l 2,118,119
 361 1211 361 1211 361 1193 c 2,120,-1
 361 1104 l 2,121,122
 361 1087 361 1087 343 1087 c 2,123,-1
 321 1087 l 2,124,125
 302 1087 302 1087 302 1104 c 2,126,-1
 302 1193 l 2,127,128
 302 1211 302 1211 321 1211 c 2,117,-1
343 1107 m 2,129,-1
 343 1191 l 2,130,131
 343 1194 343 1194 342 1195 c 128,-1,132
 341 1196 341 1196 337 1196 c 2,133,-1
 326 1196 l 2,134,135
 322 1196 322 1196 321 1195 c 128,-1,136
 320 1194 320 1194 320 1191 c 2,137,-1
 320 1107 l 2,138,139
 320 1103 320 1103 321 1102 c 128,-1,140
 322 1101 322 1101 326 1101 c 2,141,-1
 337 1101 l 2,142,143
 341 1101 341 1101 342 1102 c 128,-1,144
 343 1103 343 1103 343 1107 c 2,129,-1
425 1211 m 1,145,-1
 442 1211 l 1,146,-1
 442 1087 l 1,147,-1
 424 1087 l 1,148,-1
 398 1176 l 1,149,-1
 398 1087 l 1,150,-1
 381 1087 l 1,151,-1
 381 1211 l 1,152,-1
 400 1211 l 1,153,-1
 425 1124 l 1,154,-1
 425 1211 l 1,145,-1
508 1087 m 1,155,-1
 503 1115 l 1,156,-1
 477 1115 l 1,157,-1
 472 1087 l 1,158,-1
 455 1087 l 1,159,-1
 477 1211 l 1,160,-1
 503 1211 l 1,161,-1
 526 1087 l 1,162,-1
 508 1087 l 1,155,-1
489 1195 m 1,163,-1
 479 1130 l 1,164,-1
 501 1130 l 1,165,-1
 489 1195 l 1,163,-1
557 1101 m 1,166,-1
 587 1101 l 1,167,-1
 587 1087 l 1,168,-1
 539 1087 l 1,169,-1
 539 1211 l 1,170,-1
 557 1211 l 1,171,-1
 557 1101 l 1,166,-1
668 1211 m 1,172,-1
 686 1211 l 1,173,-1
 686 1104 l 2,174,175
 686 1087 686 1087 667 1087 c 2,176,-1
 645 1087 l 2,177,178
 627 1087 627 1087 627 1104 c 2,179,-1
 627 1211 l 1,180,-1
 645 1211 l 1,181,-1
 645 1107 l 2,182,183
 645 1103 645 1103 646 1102 c 128,-1,184
 647 1101 647 1101 651 1101 c 2,185,-1
 662 1101 l 2,186,187
 666 1101 666 1101 667 1102 c 128,-1,188
 668 1103 668 1103 668 1107 c 2,189,-1
 668 1211 l 1,172,-1
742 1107 m 2,190,-1
 742 1137 l 2,191,192
 742 1141 742 1141 741 1142 c 128,-1,193
 740 1143 740 1143 736 1143 c 2,194,-1
 721 1143 l 2,195,196
 703 1143 703 1143 703 1161 c 2,197,-1
 703 1193 l 2,198,199
 703 1211 703 1211 722 1211 c 2,200,-1
 741 1211 l 2,201,202
 760 1211 760 1211 760 1193 c 2,203,-1
 760 1175 l 1,204,-1
 742 1175 l 1,205,-1
 742 1191 l 2,206,207
 742 1194 742 1194 740.5 1195 c 128,-1,208
 739 1196 739 1196 736 1196 c 2,209,-1
 727 1196 l 2,210,211
 724 1196 724 1196 722.5 1195 c 128,-1,212
 721 1194 721 1194 721 1191 c 2,213,-1
 721 1163 l 2,214,215
 721 1159 721 1159 722.5 1158 c 128,-1,216
 724 1157 724 1157 727 1157 c 2,217,-1
 742 1157 l 2,218,219
 760 1157 760 1157 760 1140 c 2,220,-1
 760 1104 l 2,221,222
 760 1087 760 1087 741 1087 c 2,223,-1
 722 1087 l 2,224,225
 704 1087 704 1087 704 1104 c 2,226,-1
 704 1122 l 1,227,-1
 722 1122 l 1,228,-1
 722 1107 l 2,229,230
 722 1103 722 1103 723 1102 c 128,-1,231
 724 1101 724 1101 728 1101 c 2,232,-1
 736 1101 l 2,233,234
 740 1101 740 1101 741 1102 c 128,-1,235
 742 1103 742 1103 742 1107 c 2,190,-1
796 1101 m 1,236,-1
 832 1101 l 1,237,-1
 832 1087 l 1,238,-1
 778 1087 l 1,239,-1
 778 1211 l 1,240,-1
 830 1211 l 1,241,-1
 830 1196 l 1,242,-1
 796 1196 l 1,243,-1
 796 1158 l 1,244,-1
 824 1158 l 1,245,-1
 824 1143 l 1,246,-1
 796 1143 l 1,247,-1
 796 1101 l 1,236,-1
10 202 m 1,248,-1
 58 202 l 2,249,250
 79 202 79 202 79 182 c 2,251,-1
 79 133 l 2,252,253
 79 113 79 113 58 113 c 2,254,-1
 31 113 l 1,255,-1
 31 57 l 1,256,-1
 10 57 l 1,257,-1
 10 202 l 1,248,-1
599 35 m 2,258,-1
 621 35 l 2,259,260
 624 35 624 35 626 33.5 c 128,-1,261
 628 32 628 32 628 29 c 2,262,-1
 628 6 l 2,263,264
 628 4 628 4 626 2 c 128,-1,265
 624 0 624 0 621 0 c 2,266,-1
 599 0 l 2,267,268
 596 0 596 0 594 2 c 128,-1,269
 592 4 592 4 592 6 c 2,270,-1
 592 29 l 2,271,272
 592 32 592 32 594 33.5 c 128,-1,273
 596 35 596 35 599 35 c 2,258,-1
599 5 m 2,274,-1
 621 5 l 2,275,276
 622 5 622 5 622 6 c 2,277,-1
 622 29 l 1,278,279
 622 29.5 l 0,280,281
 622 30 622 30 621 30 c 2,282,-1
 599 30 l 2,283,284
 598 30 598 30 598 29.5 c 0,285,-1
 598 29 l 1,286,-1
 598 6 l 2,287,288
 598 5 598 5 599 5 c 2,274,-1
545 0 m 1,289,-1
 540 0 l 1,290,-1
 540 35 l 1,291,-1
 545 35 l 1,292,-1
 545 0 l 1,289,-1
457 0 m 1,293,-1
 457 35 l 1,294,-1
 486 35 l 2,295,296
 489 35 489 35 491 33.5 c 128,-1,297
 493 32 493 32 493 29 c 2,298,-1
 493 6 l 2,299,300
 493 4 493 4 491 2 c 128,-1,301
 489 0 489 0 486 0 c 2,302,-1
 457 0 l 1,293,-1
488 6 m 1,303,-1
 488 29 l 1,304,-1
 487.5 29.5 l 0,305,306
 487 30 487 30 486 30 c 2,307,-1
 464 30 l 2,308,309
 463 30 463 30 463 29.5 c 0,310,-1
 463 29 l 1,311,-1
 463 6 l 2,312,313
 463 5 463 5 464 5 c 2,314,-1
 486 5 l 2,315,316
 487 5 487 5 487.5 5.5 c 0,317,-1
 488 6 l 1,303,-1
405 6 m 2,318,-1
 405 35 l 1,319,-1
 410 35 l 1,320,-1
 410 6 l 2,321,322
 410 4 410 4 408.5 2 c 128,-1,323
 407 0 407 0 404 0 c 2,324,-1
 381 0 l 2,325,326
 379 0 379 0 377 2 c 128,-1,327
 375 4 375 4 375 6 c 2,328,-1
 375 35 l 1,329,-1
 380 35 l 1,330,-1
 380 6 l 1,331,-1
 380.5 5.5 l 0,332,-1
 381 5 l 1,333,-1
 404 5 l 1,334,335
 405 6 l 2,318,-1
294 35 m 1,336,-1
 330 35 l 1,337,-1
 330 30 l 1,338,-1
 315 30 l 1,339,-1
 315 0 l 1,340,-1
 309 0 l 1,341,-1
 309 30 l 1,342,-1
 294 30 l 1,343,-1
 294 35 l 1,336,-1
249 29 m 2,344,-1
 249 27 l 1,345,-1
 244 27 l 1,346,-1
 244 29 l 1,347,348
 243.5 29.5 l 0,349,-1
 243 30 l 1,350,-1
 220 30 l 1,351,352
 219.5 29.5 l 0,353,-1
 219 29 l 1,354,-1
 219 21 l 2,355,356
 220 20 l 1,357,-1
 243 20 l 2,358,359
 245 20 245 20 247 18.5 c 128,-1,360
 249 17 249 17 249 14 c 2,361,-1
 249 6 l 2,362,363
 249 4 249 4 247 2 c 128,-1,364
 245 0 245 0 243 0 c 2,365,-1
 220 0 l 2,366,367
 218 0 218 0 216 2 c 128,-1,368
 214 4 214 4 214 6 c 2,369,-1
 214 8 l 1,370,-1
 219 8 l 1,371,-1
 219 6 l 2,372,373
 220 5 l 1,374,-1
 243 5 l 1,375,376
 244 6 l 2,377,-1
 244 14 l 1,378,379
 243.5 14.5 l 0,380,-1
 243 15 l 1,381,-1
 220 15 l 2,382,383
 218 15 218 15 216 17 c 128,-1,384
 214 19 214 19 214 21 c 2,385,-1
 214 29 l 2,386,387
 214 32 214 32 216 33.5 c 128,-1,388
 218 35 218 35 220 35 c 2,389,-1
 243 35 l 2,390,391
 246 35 246 35 247.5 33.5 c 128,-1,392
 249 32 249 32 249 29 c 2,344,-1
796 74 m 1,393,-1
 832 74 l 1,394,-1
 832 57 l 1,395,-1
 775 57 l 1,396,-1
 775 202 l 1,397,-1
 796 202 l 1,398,-1
 796 74 l 1,393,-1
704 202 m 2,399,-1
 730 202 l 2,400,401
 751 202 751 202 751 182 c 2,402,-1
 751 77 l 2,403,404
 751 57 751 57 730 57 c 2,405,-1
 704 57 l 2,406,407
 682 57 682 57 682 77 c 2,408,-1
 682 182 l 2,409,410
 682 202 682 202 704 202 c 2,399,-1
730 80 m 2,411,-1
 730 178 l 2,412,413
 730 183 730 183 729 184 c 128,-1,414
 728 185 728 185 723 185 c 2,415,-1
 710 185 l 2,416,417
 706 185 706 185 704.5 184 c 128,-1,418
 703 183 703 183 703 178 c 2,419,-1
 703 80 l 2,420,421
 703 76 703 76 704.5 75 c 128,-1,422
 706 74 706 74 710 74 c 2,423,-1
 723 74 l 2,424,425
 728 74 728 74 729 75 c 128,-1,426
 730 76 730 76 730 80 c 2,411,-1
670 202 m 1,427,-1
 670 185 l 1,428,-1
 646 185 l 1,429,-1
 646 57 l 1,430,-1
 625 57 l 1,431,-1
 625 185 l 1,432,-1
 600 185 l 1,433,-1
 600 202 l 1,434,-1
 670 202 l 1,427,-1
553 74 m 1,435,-1
 595 74 l 1,436,-1
 595 57 l 1,437,-1
 531 57 l 1,438,-1
 531 202 l 1,439,-1
 593 202 l 1,440,-1
 593 185 l 1,441,-1
 553 185 l 1,442,-1
 553 140 l 1,443,-1
 586 140 l 1,444,-1
 586 123 l 1,445,-1
 553 123 l 1,446,-1
 553 74 l 1,435,-1
511 182 m 2,447,-1
 511 157 l 1,448,-1
 489 157 l 1,449,-1
 489 179 l 2,450,451
 489 183 489 183 488 184.5 c 128,-1,452
 487 186 487 186 483 186 c 2,453,-1
 471 186 l 2,454,455
 467 186 467 186 465.5 184.5 c 128,-1,456
 464 183 464 183 464 179 c 2,457,-1
 464 80 l 2,458,459
 464 76 464 76 465.5 74.5 c 128,-1,460
 467 73 467 73 471 73 c 2,461,-1
 483 73 l 2,462,463
 487 73 487 73 488 74.5 c 128,-1,464
 489 76 489 76 489 80 c 2,465,-1
 489 102 l 1,466,-1
 511 102 l 1,467,-1
 511 77 l 2,468,469
 511 56 511 56 489 56 c 2,470,-1
 464 56 l 2,471,472
 443 56 443 56 443 77 c 2,473,-1
 443 182 l 2,474,475
 443 202 443 202 464 202 c 2,476,-1
 489 202 l 2,477,478
 511 202 511 202 511 182 c 2,447,-1
408 57 m 1,479,-1
 402 90 l 1,480,-1
 371 90 l 1,481,-1
 366 57 l 1,482,-1
 345 57 l 1,483,-1
 371 202 l 1,484,-1
 401 202 l 1,485,-1
 429 57 l 1,486,-1
 408 57 l 1,479,-1
386 184 m 1,487,-1
 374 107 l 1,488,-1
 399 107 l 1,489,-1
 386 184 l 1,487,-1
283 115 m 1,490,-1
 283 57 l 1,491,-1
 262 57 l 1,492,-1
 262 202 l 1,493,-1
 310 202 l 2,494,495
 332 202 332 202 332 182 c 2,496,-1
 332 136 l 2,497,498
 332 118 332 118 316 116 c 1,499,-1
 339 57 l 1,500,-1
 316 57 l 1,501,-1
 295 115 l 1,502,-1
 283 115 l 1,490,-1
283 185 m 1,503,-1
 283 132 l 1,504,-1
 304 132 l 2,505,506
 308 132 308 132 309.5 133.5 c 128,-1,507
 311 135 311 135 311 139 c 2,508,-1
 311 178 l 2,509,510
 311 183 311 183 309.5 184 c 128,-1,511
 308 185 308 185 304 185 c 2,512,-1
 283 185 l 1,503,-1
249 202 m 1,513,-1
 249 185 l 1,514,-1
 225 185 l 1,515,-1
 225 57 l 1,516,-1
 204 57 l 1,517,-1
 204 185 l 1,518,-1
 179 185 l 1,519,-1
 179 202 l 1,520,-1
 249 202 l 1,513,-1
146 202 m 1,521,-1
 167 202 l 1,522,-1
 167 77 l 2,523,524
 167 57 167 57 145 57 c 2,525,-1
 119 57 l 2,526,527
 97 57 97 57 97 77 c 2,528,-1
 97 202 l 1,529,-1
 118 202 l 1,530,-1
 118 80 l 2,531,532
 118 76 118 76 119.5 75 c 128,-1,533
 121 74 121 74 125 74 c 2,534,-1
 139 74 l 2,535,536
 143 74 143 74 144 75 c 0,537,538
 146 76 146 76 146 80 c 2,539,-1
 146 202 l 1,521,-1
58 137 m 2,540,-1
 58 178 l 2,541,542
 58 183 58 183 57 184 c 128,-1,543
 56 185 56 185 51 185 c 2,544,-1
 31 185 l 1,545,-1
 31 130 l 1,546,-1
 51 130 l 2,547,548
 56 130 56 130 57 131 c 128,-1,549
 58 132 58 132 58 137 c 2,540,-1
685 886 m 1,550,551
 655 917 655 917 618 938.5 c 128,-1,552
 581 960 581 960 538 972 c 128,-1,553
 495 984 495 984 450 984 c 0,554,555
 365 984 365 984 292 944.5 c 128,-1,556
 219 905 219 905 173 837 c 0,557,558
 107 741 107 741 118 621 c 128,-1,559
 129 501 129 501 214 415 c 0,560,561
 277 353 277 353 361.5 329.5 c 128,-1,562
 446 306 446 306 533 328 c 128,-1,563
 620 350 620 350 685 415 c 1,564,565
 631 470 l 1,566,567
 574 413 574 413 494 398.5 c 128,-1,568
 414 384 414 384 341 419 c 1,569,-1
 341 501 l 1,570,571
 389 465 389 465 450 465 c 0,572,573
 527 465 527 465 581 519.5 c 128,-1,574
 635 574 635 574 635 651 c 128,-1,575
 635 728 635 728 581 782.5 c 128,-1,576
 527 837 527 837 450 837 c 2,577,-1
 273 837 l 1,578,579
 349 909 349 909 453 907.5 c 128,-1,580
 557 906 557 906 631 832 c 1,581,582
 685 886 l 1,550,551
264 474 m 1,583,584
 210 531 210 531 197 609.5 c 128,-1,585
 184 688 184 688 218 760 c 1,586,-1
 450 760 l 2,587,588
 485 760 485 760 512 740.5 c 128,-1,589
 539 721 539 721 550.5 693 c 128,-1,590
 562 665 562 665 557 632 c 128,-1,591
 552 599 552 599 527 574 c 128,-1,592
 502 549 502 549 469 543.5 c 128,-1,593
 436 538 436 538 408 550 c 128,-1,594
 380 562 380 562 360.5 589 c 128,-1,595
 341 616 341 616 341 651 c 1,596,-1
 264 651 l 1,597,-1
 264 474 l 1,583,584
EndSplineSet
EndChar

StartChar: one
Encoding: 49 49 22
Width: 842
GlyphClass: 2
Flags: W
LayerCount: 2
Fore
SplineSet
782 240 m 2,0,-1
 60 240 l 2,1,2
 46 240 46 240 34.5 247 c 128,-1,3
 23 254 23 254 16.5 265 c 128,-1,4
 10 276 10 276 10 290 c 2,5,-1
 10 1012 l 2,6,7
 10 1032 10 1032 24.5 1047 c 128,-1,8
 39 1062 39 1062 60 1062 c 2,9,-1
 782 1062 l 2,10,11
 802 1062 802 1062 816.5 1047 c 128,-1,12
 831 1032 831 1032 831 1012 c 2,13,-1
 831 290 l 2,14,15
 831 269 831 269 816.5 254.5 c 128,-1,16
 802 240 802 240 782 240 c 2,0,-1
10 1211 m 1,17,-1
 51 1211 l 2,18,19
 69 1211 69 1211 69 1193 c 2,20,-1
 69 1152 l 2,21,22
 69 1135 69 1135 51 1135 c 2,23,-1
 28 1135 l 1,24,-1
 28 1087 l 1,25,-1
 10 1087 l 1,26,-1
 10 1211 l 1,17,-1
51 1155 m 2,27,-1
 51 1191 l 2,28,29
 51 1194 51 1194 50 1195 c 128,-1,30
 49 1196 49 1196 45 1196 c 2,31,-1
 28 1196 l 1,32,-1
 28 1149 l 1,33,-1
 45 1149 l 2,34,35
 49 1149 49 1149 50 1150 c 128,-1,36
 51 1151 51 1151 51 1155 c 2,27,-1
103 1101 m 1,37,-1
 139 1101 l 1,38,-1
 139 1087 l 1,39,-1
 85 1087 l 1,40,-1
 85 1211 l 1,41,-1
 138 1211 l 1,42,-1
 138 1196 l 1,43,-1
 103 1196 l 1,44,-1
 103 1158 l 1,45,-1
 132 1158 l 1,46,-1
 132 1143 l 1,47,-1
 103 1143 l 1,48,-1
 103 1101 l 1,37,-1
171 1137 m 1,49,-1
 171 1087 l 1,50,-1
 153 1087 l 1,51,-1
 153 1211 l 1,52,-1
 194 1211 l 2,53,54
 212 1211 212 1211 212 1193 c 2,55,-1
 212 1154 l 2,56,57
 212 1139 212 1139 199 1137 c 1,58,-1
 218 1087 l 1,59,-1
 199 1087 l 1,60,-1
 181 1137 l 1,61,-1
 171 1137 l 1,49,-1
171 1196 m 1,62,-1
 171 1151 l 1,63,-1
 188 1151 l 2,64,65
 192 1151 192 1151 193 1152 c 128,-1,66
 194 1153 194 1153 194 1157 c 2,67,-1
 194 1191 l 2,68,69
 194 1194 194 1194 193 1195 c 128,-1,70
 192 1196 192 1196 188 1196 c 2,71,-1
 171 1196 l 1,62,-1
267 1107 m 2,72,-1
 267 1137 l 2,73,74
 267 1141 267 1141 266 1142 c 128,-1,75
 265 1143 265 1143 262 1143 c 2,76,-1
 247 1143 l 2,77,78
 229 1143 229 1143 229 1161 c 2,79,-1
 229 1193 l 2,80,81
 229 1211 229 1211 247 1211 c 2,82,-1
 267 1211 l 2,83,84
 285 1211 285 1211 285 1193 c 2,85,-1
 285 1175 l 1,86,-1
 267 1175 l 1,87,-1
 267 1191 l 2,88,89
 267 1194 267 1194 266 1195 c 256,90,91
 265 1196 265 1196 261 1196 c 2,92,-1
 253 1196 l 2,93,94
 249 1196 249 1196 248 1195 c 128,-1,95
 247 1194 247 1194 247 1191 c 2,96,-1
 247 1163 l 2,97,98
 247 1159 247 1159 248 1158 c 128,-1,99
 249 1157 249 1157 253 1157 c 2,100,-1
 267 1157 l 2,101,102
 286 1157 286 1157 286 1140 c 2,103,-1
 286 1104 l 2,104,105
 286 1087 286 1087 267 1087 c 2,106,-1
 248 1087 l 2,107,108
 229 1087 229 1087 229 1104 c 2,109,-1
 229 1122 l 1,110,-1
 247 1122 l 1,111,-1
 247 1107 l 2,112,113
 247 1103 247 1103 248.5 1102 c 128,-1,114
 250 1101 250 1101 253 1101 c 2,115,-1
 262 1101 l 2,116,117
 265 1101 265 1101 266 1102 c 128,-1,118
 267 1103 267 1103 267 1107 c 2,72,-1
321 1211 m 2,119,-1
 343 1211 l 2,120,121
 361 1211 361 1211 361 1193 c 2,122,-1
 361 1104 l 2,123,124
 361 1087 361 1087 343 1087 c 2,125,-1
 321 1087 l 2,126,127
 302 1087 302 1087 302 1104 c 2,128,-1
 302 1193 l 2,129,130
 302 1211 302 1211 321 1211 c 2,119,-1
343 1107 m 2,131,-1
 343 1191 l 2,132,133
 343 1194 343 1194 342 1195 c 128,-1,134
 341 1196 341 1196 338 1196 c 2,135,-1
 326 1196 l 2,136,137
 322 1196 322 1196 321 1195 c 128,-1,138
 320 1194 320 1194 320 1191 c 2,139,-1
 320 1107 l 2,140,141
 320 1103 320 1103 321 1102 c 128,-1,142
 322 1101 322 1101 326 1101 c 2,143,-1
 338 1101 l 2,144,145
 341 1101 341 1101 342 1102 c 128,-1,146
 343 1103 343 1103 343 1107 c 2,131,-1
425 1211 m 1,147,-1
 442 1211 l 1,148,-1
 442 1087 l 1,149,-1
 424 1087 l 1,150,-1
 398 1176 l 1,151,-1
 398 1087 l 1,152,-1
 381 1087 l 1,153,-1
 381 1211 l 1,154,-1
 400 1211 l 1,155,-1
 425 1124 l 1,156,-1
 425 1211 l 1,147,-1
508 1087 m 1,157,-1
 503 1115 l 1,158,-1
 477 1115 l 1,159,-1
 472 1087 l 1,160,-1
 455 1087 l 1,161,-1
 477 1211 l 1,162,-1
 503 1211 l 1,163,-1
 526 1087 l 1,164,-1
 508 1087 l 1,157,-1
489 1195 m 1,165,-1
 479 1130 l 1,166,-1
 501 1130 l 1,167,-1
 489 1195 l 1,165,-1
557 1101 m 1,168,-1
 587 1101 l 1,169,-1
 587 1087 l 1,170,-1
 539 1087 l 1,171,-1
 539 1211 l 1,172,-1
 557 1211 l 1,173,-1
 557 1101 l 1,168,-1
668 1211 m 1,174,-1
 686 1211 l 1,175,-1
 686 1104 l 2,176,177
 686 1087 686 1087 667 1087 c 2,178,-1
 645 1087 l 2,179,180
 627 1087 627 1087 627 1104 c 2,181,-1
 627 1211 l 1,182,-1
 645 1211 l 1,183,-1
 645 1107 l 2,184,185
 645 1103 645 1103 646 1102 c 128,-1,186
 647 1101 647 1101 651 1101 c 2,187,-1
 662 1101 l 2,188,189
 666 1101 666 1101 667 1102 c 128,-1,190
 668 1103 668 1103 668 1107 c 2,191,-1
 668 1211 l 1,174,-1
742 1107 m 2,192,-1
 742 1137 l 2,193,194
 742 1141 742 1141 740.5 1142 c 128,-1,195
 739 1143 739 1143 736 1143 c 2,196,-1
 721 1143 l 2,197,198
 703 1143 703 1143 703 1161 c 2,199,-1
 703 1193 l 2,200,201
 703 1211 703 1211 722 1211 c 2,202,-1
 741 1211 l 2,203,204
 760 1211 760 1211 760 1193 c 2,205,-1
 760 1175 l 1,206,-1
 742 1175 l 1,207,-1
 742 1191 l 2,208,209
 742 1194 742 1194 740.5 1195 c 128,-1,210
 739 1196 739 1196 736 1196 c 2,211,-1
 727 1196 l 2,212,213
 724 1196 724 1196 723 1195 c 0,214,215
 721 1194 721 1194 721 1191 c 2,216,-1
 721 1163 l 2,217,218
 721 1159 721 1159 723 1158 c 0,219,220
 724 1157 724 1157 727 1157 c 2,221,-1
 742 1157 l 2,222,223
 760 1157 760 1157 760 1140 c 2,224,-1
 760 1104 l 2,225,226
 760 1087 760 1087 741 1087 c 2,227,-1
 722 1087 l 2,228,229
 704 1087 704 1087 704 1104 c 2,230,-1
 704 1122 l 1,231,-1
 722 1122 l 1,232,-1
 722 1107 l 2,233,234
 722 1103 722 1103 723 1102 c 128,-1,235
 724 1101 724 1101 728 1101 c 2,236,-1
 736 1101 l 2,237,238
 740 1101 740 1101 741 1102 c 128,-1,239
 742 1103 742 1103 742 1107 c 2,192,-1
796 1101 m 1,240,-1
 832 1101 l 1,241,-1
 832 1087 l 1,242,-1
 778 1087 l 1,243,-1
 778 1211 l 1,244,-1
 830 1211 l 1,245,-1
 830 1196 l 1,246,-1
 796 1196 l 1,247,-1
 796 1158 l 1,248,-1
 824 1158 l 1,249,-1
 824 1143 l 1,250,-1
 796 1143 l 1,251,-1
 796 1101 l 1,240,-1
10 202 m 1,252,-1
 58 202 l 2,253,254
 79 202 79 202 79 182 c 2,255,-1
 79 133 l 2,256,257
 79 113 79 113 58 113 c 2,258,-1
 31 113 l 1,259,-1
 31 57 l 1,260,-1
 10 57 l 1,261,-1
 10 202 l 1,252,-1
599 35 m 2,262,-1
 621 35 l 2,263,264
 624 35 624 35 626 33 c 0,265,266
 628 32 628 32 628 29 c 2,267,-1
 628 6 l 2,268,269
 628 4 628 4 626 2 c 128,-1,270
 624 0 624 0 621 0 c 2,271,-1
 599 0 l 2,272,273
 596 0 596 0 594 2 c 128,-1,274
 592 4 592 4 592 6 c 2,275,-1
 592 29 l 2,276,277
 592 32 592 32 594 33.5 c 128,-1,278
 596 35 596 35 599 35 c 2,262,-1
599 5 m 2,279,-1
 621 5 l 2,280,281
 622 5 622 5 622 6 c 2,282,-1
 622 29 l 1,283,284
 622 29.5 l 0,285,286
 622 30 622 30 621 30 c 2,287,-1
 599 30 l 2,288,289
 598 30 598 30 598 29.5 c 0,290,-1
 598 29 l 1,291,-1
 598 6 l 2,292,293
 598 5 598 5 599 5 c 2,279,-1
545 0 m 1,294,-1
 540 0 l 1,295,-1
 540 35 l 1,296,-1
 545 35 l 1,297,-1
 545 0 l 1,294,-1
458 0 m 1,298,-1
 458 35 l 1,299,-1
 486 35 l 2,300,301
 489 35 489 35 491 33.5 c 128,-1,302
 493 32 493 32 493 29 c 2,303,-1
 493 6 l 2,304,305
 493 4 493 4 491 2 c 128,-1,306
 489 0 489 0 486 0 c 2,307,-1
 458 0 l 1,298,-1
488 6 m 1,308,-1
 488 29 l 1,309,-1
 487.5 29.5 l 0,310,311
 487 30 487 30 486 30 c 2,312,-1
 464 30 l 2,313,314
 463 30 463 30 463 29.5 c 0,315,-1
 463 29 l 1,316,-1
 463 6 l 2,317,318
 463 5 463 5 464 5 c 2,319,-1
 486 5 l 2,320,321
 487 5 487 5 487.5 5.5 c 0,322,-1
 488 6 l 1,308,-1
405 6 m 2,323,-1
 405 35 l 1,324,-1
 410 35 l 1,325,-1
 410 6 l 2,326,327
 410 4 410 4 408.5 2 c 128,-1,328
 407 0 407 0 404 0 c 2,329,-1
 381 0 l 2,330,331
 379 0 379 0 377 2 c 128,-1,332
 375 4 375 4 375 6 c 2,333,-1
 375 35 l 1,334,-1
 380 35 l 1,335,-1
 380 6 l 1,336,-1
 380.5 5.5 l 0,337,-1
 381 5 l 1,338,-1
 404 5 l 1,339,340
 405 6 l 2,323,-1
294 35 m 1,341,-1
 330 35 l 1,342,-1
 330 30 l 1,343,-1
 315 30 l 1,344,-1
 315 0 l 1,345,-1
 309 0 l 1,346,-1
 309 30 l 1,347,-1
 294 30 l 1,348,-1
 294 35 l 1,341,-1
249 29 m 2,349,-1
 249 27 l 1,350,-1
 244 27 l 1,351,-1
 244 29 l 1,352,353
 243.5 29.5 l 0,354,-1
 243 30 l 1,355,-1
 220 30 l 2,356,357
 219 29 l 1,358,-1
 219 21 l 1,359,360
 219.5 20.5 l 0,361,-1
 220 20 l 1,362,-1
 243 20 l 2,363,364
 246 20 246 20 247.5 18.5 c 128,-1,365
 249 17 249 17 249 14 c 2,366,-1
 249 6 l 2,367,368
 249 4 249 4 247.5 2 c 128,-1,369
 246 0 246 0 243 0 c 2,370,-1
 220 0 l 2,371,372
 218 0 218 0 216 2 c 128,-1,373
 214 4 214 4 214 6 c 2,374,-1
 214 8 l 1,375,-1
 219 8 l 1,376,-1
 219 6 l 1,377,378
 219.5 5.5 l 0,379,-1
 220 5 l 1,380,-1
 243 5 l 1,381,382
 244 6 l 2,383,-1
 244 14 l 1,384,385
 243.5 14.5 l 0,386,-1
 243 15 l 1,387,-1
 220 15 l 2,388,389
 218 15 218 15 216 17 c 128,-1,390
 214 19 214 19 214 21 c 2,391,-1
 214 29 l 2,392,393
 214 32 214 32 216 33.5 c 128,-1,394
 218 35 218 35 220 35 c 2,395,-1
 243 35 l 2,396,397
 246 35 246 35 247.5 33.5 c 128,-1,398
 249 32 249 32 249 29 c 2,349,-1
796 74 m 1,399,-1
 832 74 l 1,400,-1
 832 57 l 1,401,-1
 775 57 l 1,402,-1
 775 202 l 1,403,-1
 796 202 l 1,404,-1
 796 74 l 1,399,-1
704 202 m 2,405,-1
 730 202 l 2,406,407
 751 202 751 202 751 182 c 2,408,-1
 751 77 l 2,409,410
 751 57 751 57 730 57 c 2,411,-1
 704 57 l 2,412,413
 682 57 682 57 682 77 c 2,414,-1
 682 182 l 2,415,416
 682 202 682 202 704 202 c 2,405,-1
730 80 m 2,417,-1
 730 178 l 2,418,419
 730 183 730 183 729 184 c 128,-1,420
 728 185 728 185 723 185 c 2,421,-1
 710 185 l 2,422,423
 706 185 706 185 704.5 184 c 128,-1,424
 703 183 703 183 703 178 c 2,425,-1
 703 80 l 2,426,427
 703 76 703 76 704.5 75 c 128,-1,428
 706 74 706 74 710 74 c 2,429,-1
 723 74 l 2,430,431
 728 74 728 74 729 75 c 128,-1,432
 730 76 730 76 730 80 c 2,417,-1
670 202 m 1,433,-1
 670 185 l 1,434,-1
 646 185 l 1,435,-1
 646 57 l 1,436,-1
 625 57 l 1,437,-1
 625 185 l 1,438,-1
 600 185 l 1,439,-1
 600 202 l 1,440,-1
 670 202 l 1,433,-1
553 74 m 1,441,-1
 595 74 l 1,442,-1
 595 57 l 1,443,-1
 531 57 l 1,444,-1
 531 202 l 1,445,-1
 593 202 l 1,446,-1
 593 185 l 1,447,-1
 553 185 l 1,448,-1
 553 140 l 1,449,-1
 586 140 l 1,450,-1
 586 123 l 1,451,-1
 553 123 l 1,452,-1
 553 74 l 1,441,-1
511 182 m 2,453,-1
 511 157 l 1,454,-1
 489 157 l 1,455,-1
 489 179 l 2,456,457
 489 183 489 183 488 184.5 c 128,-1,458
 487 186 487 186 483 186 c 2,459,-1
 471 186 l 2,460,461
 467 186 467 186 465.5 184.5 c 128,-1,462
 464 183 464 183 464 179 c 2,463,-1
 464 80 l 2,464,465
 464 76 464 76 465.5 74.5 c 128,-1,466
 467 73 467 73 471 73 c 2,467,-1
 483 73 l 2,468,469
 487 73 487 73 488 74 c 128,-1,470
 489 75 489 75 489 80 c 2,471,-1
 489 102 l 1,472,-1
 511 102 l 1,473,-1
 511 77 l 2,474,475
 511 56 511 56 489 56 c 2,476,-1
 464 56 l 2,477,478
 443 56 443 56 443 77 c 2,479,-1
 443 182 l 2,480,481
 443 202 443 202 464 202 c 2,482,-1
 489 202 l 2,483,484
 511 202 511 202 511 182 c 2,453,-1
408 57 m 1,485,-1
 402 90 l 1,486,-1
 371 90 l 1,487,-1
 366 57 l 1,488,-1
 345 57 l 1,489,-1
 371 202 l 1,490,-1
 401 202 l 1,491,-1
 429 57 l 1,492,-1
 408 57 l 1,485,-1
386 184 m 1,493,-1
 374 107 l 1,494,-1
 399 107 l 1,495,-1
 386 184 l 1,493,-1
283 115 m 1,496,-1
 283 57 l 1,497,-1
 262 57 l 1,498,-1
 262 202 l 1,499,-1
 310 202 l 2,500,501
 332 202 332 202 332 182 c 2,502,-1
 332 136 l 2,503,504
 332 118 332 118 316 116 c 1,505,-1
 339 57 l 1,506,-1
 316 57 l 1,507,-1
 295 115 l 1,508,-1
 283 115 l 1,496,-1
283 185 m 1,509,-1
 283 132 l 1,510,-1
 304 132 l 2,511,512
 308 132 308 132 309.5 133.5 c 128,-1,513
 311 135 311 135 311 139 c 2,514,-1
 311 178 l 2,515,516
 311 183 311 183 309.5 184 c 128,-1,517
 308 185 308 185 304 185 c 2,518,-1
 283 185 l 1,509,-1
249 202 m 1,519,-1
 249 185 l 1,520,-1
 225 185 l 1,521,-1
 225 57 l 1,522,-1
 204 57 l 1,523,-1
 204 185 l 1,524,-1
 179 185 l 1,525,-1
 179 202 l 1,526,-1
 249 202 l 1,519,-1
146 202 m 1,527,-1
 167 202 l 1,528,-1
 167 77 l 2,529,530
 167 57 167 57 145 57 c 2,531,-1
 119 57 l 2,532,533
 97 57 97 57 97 77 c 2,534,-1
 97 202 l 1,535,-1
 118 202 l 1,536,-1
 118 80 l 2,537,538
 118 76 118 76 120 75 c 0,539,540
 121 74 121 74 125 74 c 2,541,-1
 139 74 l 2,542,543
 143 74 143 74 144.5 75 c 128,-1,544
 146 76 146 76 146 80 c 2,545,-1
 146 202 l 1,527,-1
58 137 m 2,546,-1
 58 178 l 2,547,548
 58 183 58 183 57 184 c 128,-1,549
 56 185 56 185 51 185 c 2,550,-1
 31 185 l 1,551,-1
 31 130 l 1,552,-1
 51 130 l 2,553,554
 56 130 56 130 57 131 c 128,-1,555
 58 132 58 132 58 137 c 2,546,-1
685 886 m 1,556,557
 639 932 639 932 578 958 c 128,-1,558
 517 984 517 984 450 984 c 0,559,560
 365 984 365 984 292 944.5 c 128,-1,561
 219 905 219 905 173 837 c 0,562,563
 107 741 107 741 118 621 c 128,-1,564
 129 501 129 501 214 415 c 0,565,566
 261 369 261 369 322.5 344 c 128,-1,567
 384 319 384 319 447 318 c 128,-1,568
 510 317 510 317 573 341.5 c 128,-1,569
 636 366 636 366 685 415 c 1,570,-1
 631 470 l 1,571,572
 574 413 574 413 494.5 398.5 c 128,-1,573
 415 384 415 384 341 419 c 1,574,-1
 341 501 l 1,575,576
 390 465 390 465 450 465 c 0,577,578
 527 465 527 465 581.5 519.5 c 128,-1,579
 636 574 636 574 636 651 c 128,-1,580
 636 728 636 728 581.5 782.5 c 128,-1,581
 527 837 527 837 450 837 c 2,582,-1
 273 837 l 1,583,584
 349 909 349 909 453 907.5 c 128,-1,585
 557 906 557 906 631 832 c 1,586,-1
 685 886 l 1,556,557
264 474 m 1,587,588
 210 531 210 531 197 609.5 c 128,-1,589
 184 688 184 688 218 760 c 1,590,-1
 450 760 l 2,591,592
 485 760 485 760 512 740.5 c 128,-1,593
 539 721 539 721 550.5 693 c 128,-1,594
 562 665 562 665 557 632 c 128,-1,595
 552 599 552 599 527 574 c 128,-1,596
 502 549 502 549 469 543.5 c 128,-1,597
 436 538 436 538 408 550 c 128,-1,598
 380 562 380 562 360.5 589 c 128,-1,599
 341 616 341 616 341 651 c 1,600,-1
 264 651 l 1,601,-1
 264 474 l 1,587,588
EndSplineSet
EndChar

StartChar: two
Encoding: 50 50 23
Width: 841
GlyphClass: 2
Flags: W
LayerCount: 2
Fore
SplineSet
782 240 m 2,0,-1
 60 240 l 2,1,2
 39 240 39 240 24.5 254.5 c 128,-1,3
 10 269 10 269 10 290 c 2,4,-1
 10 1012 l 2,5,6
 10 1032 10 1032 24.5 1047 c 128,-1,7
 39 1062 39 1062 60 1062 c 2,8,-1
 782 1062 l 2,9,10
 795 1062 795 1062 806.5 1055 c 128,-1,11
 818 1048 818 1048 824.5 1036.5 c 128,-1,12
 831 1025 831 1025 831 1012 c 2,13,-1
 831 290 l 2,14,15
 831 276 831 276 824.5 265 c 128,-1,16
 818 254 818 254 806.5 247 c 128,-1,17
 795 240 795 240 782 240 c 2,0,-1
10 1211 m 1,18,-1
 51 1211 l 2,19,20
 69 1211 69 1211 69 1193 c 2,21,-1
 69 1152 l 2,22,23
 69 1135 69 1135 51 1135 c 2,24,-1
 28 1135 l 1,25,-1
 28 1087 l 1,26,-1
 10 1087 l 1,27,-1
 10 1211 l 1,18,-1
51 1155 m 2,28,-1
 51 1191 l 2,29,30
 51 1194 51 1194 50 1195 c 128,-1,31
 49 1196 49 1196 45 1196 c 2,32,-1
 28 1196 l 1,33,-1
 28 1149 l 1,34,-1
 45 1149 l 2,35,36
 49 1149 49 1149 50 1150 c 128,-1,37
 51 1151 51 1151 51 1155 c 2,28,-1
103 1101 m 1,38,-1
 139 1101 l 1,39,-1
 139 1087 l 1,40,-1
 85 1087 l 1,41,-1
 85 1211 l 1,42,-1
 138 1211 l 1,43,-1
 138 1196 l 1,44,-1
 103 1196 l 1,45,-1
 103 1158 l 1,46,-1
 132 1158 l 1,47,-1
 132 1143 l 1,48,-1
 103 1143 l 1,49,-1
 103 1101 l 1,38,-1
171 1137 m 1,50,-1
 171 1087 l 1,51,-1
 153 1087 l 1,52,-1
 153 1211 l 1,53,-1
 194 1211 l 2,54,55
 212 1211 212 1211 212 1193 c 2,56,-1
 212 1154 l 2,57,58
 212 1139 212 1139 199 1137 c 1,59,-1
 218 1087 l 1,60,-1
 199 1087 l 1,61,-1
 181 1137 l 1,62,-1
 171 1137 l 1,50,-1
171 1196 m 1,63,-1
 171 1151 l 1,64,-1
 188 1151 l 2,65,66
 192 1151 192 1151 193 1152 c 128,-1,67
 194 1153 194 1153 194 1157 c 2,68,-1
 194 1191 l 2,69,70
 194 1194 194 1194 193 1195 c 128,-1,71
 192 1196 192 1196 188 1196 c 2,72,-1
 171 1196 l 1,63,-1
267 1107 m 2,73,-1
 267 1137 l 2,74,75
 267 1141 267 1141 266 1142 c 128,-1,76
 265 1143 265 1143 261 1143 c 2,77,-1
 247 1143 l 2,78,79
 229 1143 229 1143 229 1161 c 2,80,-1
 229 1193 l 2,81,82
 229 1211 229 1211 247 1211 c 2,83,-1
 267 1211 l 2,84,85
 285 1211 285 1211 285 1193 c 2,86,-1
 285 1175 l 1,87,-1
 267 1175 l 1,88,-1
 267 1191 l 2,89,90
 267 1194 267 1194 266 1195 c 128,-1,91
 265 1196 265 1196 261 1196 c 2,92,-1
 253 1196 l 2,93,94
 249 1196 249 1196 248 1195 c 128,-1,95
 247 1194 247 1194 247 1191 c 2,96,-1
 247 1163 l 2,97,98
 247 1159 247 1159 248 1158 c 128,-1,99
 249 1157 249 1157 253 1157 c 2,100,-1
 267 1157 l 2,101,102
 286 1157 286 1157 286 1140 c 2,103,-1
 286 1104 l 2,104,105
 286 1087 286 1087 267 1087 c 2,106,-1
 248 1087 l 2,107,108
 229 1087 229 1087 229 1104 c 2,109,-1
 229 1122 l 1,110,-1
 247 1122 l 1,111,-1
 247 1107 l 2,112,113
 247 1103 247 1103 248.5 1102 c 128,-1,114
 250 1101 250 1101 253 1101 c 2,115,-1
 261 1101 l 2,116,117
 265 1101 265 1101 266 1102 c 128,-1,118
 267 1103 267 1103 267 1107 c 2,73,-1
321 1211 m 2,119,-1
 343 1211 l 2,120,121
 361 1211 361 1211 361 1193 c 2,122,-1
 361 1104 l 2,123,124
 361 1087 361 1087 343 1087 c 2,125,-1
 321 1087 l 2,126,127
 302 1087 302 1087 302 1104 c 2,128,-1
 302 1193 l 2,129,130
 302 1211 302 1211 321 1211 c 2,119,-1
343 1107 m 2,131,-1
 343 1191 l 2,132,133
 343 1194 343 1194 342 1195 c 128,-1,134
 341 1196 341 1196 337 1196 c 2,135,-1
 326 1196 l 2,136,137
 322 1196 322 1196 321 1195 c 128,-1,138
 320 1194 320 1194 320 1191 c 2,139,-1
 320 1107 l 2,140,141
 320 1103 320 1103 321 1102 c 128,-1,142
 322 1101 322 1101 326 1101 c 2,143,-1
 337 1101 l 2,144,145
 341 1101 341 1101 342 1102 c 128,-1,146
 343 1103 343 1103 343 1107 c 2,131,-1
425 1211 m 1,147,-1
 442 1211 l 1,148,-1
 442 1087 l 1,149,-1
 424 1087 l 1,150,-1
 398 1176 l 1,151,-1
 398 1087 l 1,152,-1
 381 1087 l 1,153,-1
 381 1211 l 1,154,-1
 400 1211 l 1,155,-1
 425 1124 l 1,156,-1
 425 1211 l 1,147,-1
508 1087 m 1,157,-1
 503 1115 l 1,158,-1
 477 1115 l 1,159,-1
 472 1087 l 1,160,-1
 454 1087 l 1,161,-1
 477 1211 l 1,162,-1
 502 1211 l 1,163,-1
 526 1087 l 1,164,-1
 508 1087 l 1,157,-1
489 1195 m 1,165,-1
 479 1130 l 1,166,-1
 501 1130 l 1,167,-1
 489 1195 l 1,165,-1
557 1101 m 1,168,-1
 587 1101 l 1,169,-1
 587 1087 l 1,170,-1
 539 1087 l 1,171,-1
 539 1211 l 1,172,-1
 557 1211 l 1,173,-1
 557 1101 l 1,168,-1
668 1211 m 1,174,-1
 686 1211 l 1,175,-1
 686 1104 l 2,176,177
 686 1087 686 1087 667 1087 c 2,178,-1
 645 1087 l 2,179,180
 627 1087 627 1087 627 1104 c 2,181,-1
 627 1211 l 1,182,-1
 645 1211 l 1,183,-1
 645 1107 l 2,184,185
 645 1103 645 1103 646 1102 c 128,-1,186
 647 1101 647 1101 651 1101 c 2,187,-1
 662 1101 l 2,188,189
 666 1101 666 1101 667 1102 c 128,-1,190
 668 1103 668 1103 668 1107 c 2,191,-1
 668 1211 l 1,174,-1
742 1107 m 2,192,-1
 742 1137 l 2,193,194
 742 1141 742 1141 741 1142 c 128,-1,195
 740 1143 740 1143 736 1143 c 2,196,-1
 721 1143 l 2,197,198
 703 1143 703 1143 703 1161 c 2,199,-1
 703 1193 l 2,200,201
 703 1211 703 1211 722 1211 c 2,202,-1
 741 1211 l 2,203,204
 760 1211 760 1211 760 1193 c 2,205,-1
 760 1175 l 1,206,-1
 742 1175 l 1,207,-1
 742 1191 l 2,208,209
 742 1194 742 1194 740 1195 c 0,210,211
 739 1196 739 1196 736 1196 c 2,212,-1
 727 1196 l 2,213,214
 724 1196 724 1196 722.5 1195 c 128,-1,215
 721 1194 721 1194 721 1191 c 2,216,-1
 721 1163 l 2,217,218
 721 1159 721 1159 722.5 1158 c 128,-1,219
 724 1157 724 1157 727 1157 c 2,220,-1
 742 1157 l 2,221,222
 760 1157 760 1157 760 1140 c 2,223,-1
 760 1104 l 2,224,225
 760 1087 760 1087 741 1087 c 2,226,-1
 722 1087 l 2,227,228
 704 1087 704 1087 704 1104 c 2,229,-1
 704 1122 l 1,230,-1
 722 1122 l 1,231,-1
 722 1107 l 2,232,233
 722 1103 722 1103 723 1102 c 128,-1,234
 724 1101 724 1101 728 1101 c 2,235,-1
 736 1101 l 2,236,237
 740 1101 740 1101 741 1102 c 128,-1,238
 742 1103 742 1103 742 1107 c 2,192,-1
796 1101 m 1,239,-1
 831 1101 l 1,240,-1
 831 1087 l 1,241,-1
 778 1087 l 1,242,-1
 778 1211 l 1,243,-1
 830 1211 l 1,244,-1
 830 1196 l 1,245,-1
 796 1196 l 1,246,-1
 796 1158 l 1,247,-1
 824 1158 l 1,248,-1
 824 1143 l 1,249,-1
 796 1143 l 1,250,-1
 796 1101 l 1,239,-1
10 202 m 1,251,-1
 58 202 l 2,252,253
 79 202 79 202 79 182 c 2,254,-1
 79 133 l 2,255,256
 79 113 79 113 58 113 c 2,257,-1
 31 113 l 1,258,-1
 31 57 l 1,259,-1
 10 57 l 1,260,-1
 10 202 l 1,251,-1
599 35 m 2,261,-1
 621 35 l 2,262,263
 624 35 624 35 626 33.5 c 128,-1,264
 628 32 628 32 628 29 c 2,265,-1
 628 6 l 2,266,267
 628 4 628 4 626 2 c 128,-1,268
 624 0 624 0 621 0 c 2,269,-1
 599 0 l 2,270,271
 596 0 596 0 594 2 c 128,-1,272
 592 4 592 4 592 6 c 2,273,-1
 592 29 l 2,274,275
 592 32 592 32 594 33.5 c 128,-1,276
 596 35 596 35 599 35 c 2,261,-1
599 5 m 2,277,-1
 621 5 l 2,278,279
 622 5 622 5 622 6 c 2,280,-1
 622 29 l 1,281,282
 622 29.5 l 0,283,284
 622 30 622 30 621 30 c 2,285,-1
 599 30 l 2,286,287
 598 30 598 30 598 29.5 c 0,288,-1
 598 29 l 1,289,-1
 598 6 l 2,290,291
 598 5 598 5 599 5 c 2,277,-1
545 0 m 1,292,-1
 540 0 l 1,293,-1
 540 35 l 1,294,-1
 545 35 l 1,295,-1
 545 0 l 1,292,-1
457 0 m 1,296,-1
 457 35 l 1,297,-1
 486 35 l 2,298,299
 489 35 489 35 491 33.5 c 128,-1,300
 493 32 493 32 493 29 c 2,301,-1
 493 6 l 2,302,303
 493 4 493 4 491 2 c 128,-1,304
 489 0 489 0 486 0 c 2,305,-1
 457 0 l 1,296,-1
488 6 m 1,306,-1
 488 29 l 1,307,-1
 487.5 29.5 l 0,308,309
 487 30 487 30 486 30 c 2,310,-1
 464 30 l 2,311,312
 463 30 463 30 463 29.5 c 0,313,-1
 463 29 l 1,314,-1
 463 6 l 2,315,316
 463 5 463 5 464 5 c 2,317,-1
 486 5 l 2,318,319
 487 5 487 5 487.5 5.5 c 0,320,-1
 488 6 l 1,306,-1
405 6 m 2,321,-1
 405 35 l 1,322,-1
 410 35 l 1,323,-1
 410 6 l 2,324,325
 410 4 410 4 408.5 2 c 128,-1,326
 407 0 407 0 404 0 c 2,327,-1
 381 0 l 2,328,329
 379 0 379 0 377 2 c 128,-1,330
 375 4 375 4 375 6 c 2,331,-1
 375 35 l 1,332,-1
 380 35 l 1,333,-1
 380 6 l 1,334,-1
 380.5 5.5 l 0,335,-1
 381 5 l 1,336,-1
 404 5 l 1,337,338
 405 6 l 2,321,-1
294 35 m 1,339,-1
 330 35 l 1,340,-1
 330 30 l 1,341,-1
 315 30 l 1,342,-1
 315 0 l 1,343,-1
 309 0 l 1,344,-1
 309 30 l 1,345,-1
 294 30 l 1,346,-1
 294 35 l 1,339,-1
249 29 m 2,347,-1
 249 27 l 1,348,-1
 244 27 l 1,349,-1
 244 29 l 1,350,351
 243.5 29.5 l 0,352,-1
 243 30 l 1,353,-1
 220 30 l 2,354,355
 219 29 l 1,356,-1
 219 21 l 1,357,358
 219.5 20.5 l 0,359,-1
 220 20 l 1,360,-1
 243 20 l 2,361,362
 245 20 245 20 247 18 c 128,-1,363
 249 16 249 16 249 14 c 2,364,-1
 249 6 l 2,365,366
 249 4 249 4 247 2 c 128,-1,367
 245 0 245 0 243 0 c 2,368,-1
 220 0 l 2,369,370
 218 0 218 0 216 2 c 128,-1,371
 214 4 214 4 214 6 c 2,372,-1
 214 8 l 1,373,-1
 219 8 l 1,374,-1
 219 6 l 1,375,376
 219.5 5.5 l 0,377,-1
 220 5 l 1,378,-1
 243 5 l 1,379,380
 244 6 l 2,381,-1
 244 14 l 1,382,383
 243.5 14.5 l 0,384,-1
 243 15 l 1,385,-1
 220 15 l 2,386,387
 217 15 217 15 216 17 c 0,388,389
 214 19 214 19 214 21 c 2,390,-1
 214 29 l 2,391,392
 214 32 214 32 216 33 c 0,393,394
 217 35 217 35 220 35 c 2,395,-1
 243 35 l 2,396,397
 246 35 246 35 247.5 33.5 c 128,-1,398
 249 32 249 32 249 29 c 2,347,-1
796 74 m 1,399,-1
 832 74 l 1,400,-1
 832 57 l 1,401,-1
 775 57 l 1,402,-1
 775 202 l 1,403,-1
 796 202 l 1,404,-1
 796 74 l 1,399,-1
704 202 m 2,405,-1
 730 202 l 2,406,407
 751 202 751 202 751 182 c 2,408,-1
 751 77 l 2,409,410
 751 57 751 57 730 57 c 2,411,-1
 704 57 l 2,412,413
 682 57 682 57 682 77 c 2,414,-1
 682 182 l 2,415,416
 682 202 682 202 704 202 c 2,405,-1
730 80 m 2,417,-1
 730 178 l 2,418,419
 730 183 730 183 729 184 c 128,-1,420
 728 185 728 185 723 185 c 2,421,-1
 710 185 l 2,422,423
 706 185 706 185 705 184 c 0,424,425
 703 183 703 183 703 178 c 2,426,-1
 703 80 l 2,427,428
 703 76 703 76 704.5 75 c 128,-1,429
 706 74 706 74 710 74 c 2,430,-1
 723 74 l 2,431,432
 728 74 728 74 729 75 c 128,-1,433
 730 76 730 76 730 80 c 2,417,-1
670 202 m 1,434,-1
 670 185 l 1,435,-1
 646 185 l 1,436,-1
 646 57 l 1,437,-1
 625 57 l 1,438,-1
 625 185 l 1,439,-1
 600 185 l 1,440,-1
 600 202 l 1,441,-1
 670 202 l 1,434,-1
553 74 m 1,442,-1
 595 74 l 1,443,-1
 595 57 l 1,444,-1
 531 57 l 1,445,-1
 531 202 l 1,446,-1
 593 202 l 1,447,-1
 593 185 l 1,448,-1
 553 185 l 1,449,-1
 553 140 l 1,450,-1
 586 140 l 1,451,-1
 586 123 l 1,452,-1
 553 123 l 1,453,-1
 553 74 l 1,442,-1
511 182 m 2,454,-1
 511 157 l 1,455,-1
 489 157 l 1,456,-1
 489 179 l 2,457,458
 489 183 489 183 488 184.5 c 128,-1,459
 487 186 487 186 483 186 c 2,460,-1
 471 186 l 2,461,462
 467 186 467 186 465.5 184.5 c 128,-1,463
 464 183 464 183 464 179 c 2,464,-1
 464 80 l 2,465,466
 464 76 464 76 465.5 74.5 c 128,-1,467
 467 73 467 73 471 73 c 2,468,-1
 483 73 l 2,469,470
 487 73 487 73 488 74.5 c 128,-1,471
 489 76 489 76 489 80 c 2,472,-1
 489 102 l 1,473,-1
 511 102 l 1,474,-1
 511 77 l 2,475,476
 511 56 511 56 489 56 c 2,477,-1
 464 56 l 2,478,479
 443 56 443 56 443 77 c 2,480,-1
 443 182 l 2,481,482
 443 202 443 202 464 202 c 2,483,-1
 489 202 l 2,484,485
 511 202 511 202 511 182 c 2,454,-1
408 57 m 1,486,-1
 402 90 l 1,487,-1
 371 90 l 1,488,-1
 366 57 l 1,489,-1
 345 57 l 1,490,-1
 371 202 l 1,491,-1
 401 202 l 1,492,-1
 429 57 l 1,493,-1
 408 57 l 1,486,-1
386 184 m 1,494,-1
 374 107 l 1,495,-1
 399 107 l 1,496,-1
 386 184 l 1,494,-1
283 115 m 1,497,-1
 283 57 l 1,498,-1
 262 57 l 1,499,-1
 262 202 l 1,500,-1
 310 202 l 2,501,502
 332 202 332 202 332 182 c 2,503,-1
 332 136 l 2,504,505
 332 118 332 118 316 116 c 1,506,-1
 339 57 l 1,507,-1
 316 57 l 1,508,-1
 295 115 l 1,509,-1
 283 115 l 1,497,-1
283 185 m 1,510,-1
 283 132 l 1,511,-1
 304 132 l 2,512,513
 308 132 308 132 309.5 133.5 c 128,-1,514
 311 135 311 135 311 139 c 2,515,-1
 311 178 l 2,516,517
 311 183 311 183 309.5 184 c 128,-1,518
 308 185 308 185 304 185 c 2,519,-1
 283 185 l 1,510,-1
249 202 m 1,520,-1
 249 185 l 1,521,-1
 225 185 l 1,522,-1
 225 57 l 1,523,-1
 204 57 l 1,524,-1
 204 185 l 1,525,-1
 179 185 l 1,526,-1
 179 202 l 1,527,-1
 249 202 l 1,520,-1
146 202 m 1,528,-1
 167 202 l 1,529,-1
 167 77 l 2,530,531
 167 57 167 57 145 57 c 2,532,-1
 119 57 l 2,533,534
 97 57 97 57 97 77 c 2,535,-1
 97 202 l 1,536,-1
 118 202 l 1,537,-1
 118 80 l 2,538,539
 118 76 118 76 119.5 75 c 128,-1,540
 121 74 121 74 125 74 c 2,541,-1
 139 74 l 2,542,543
 143 74 143 74 144.5 75 c 128,-1,544
 146 76 146 76 146 80 c 2,545,-1
 146 202 l 1,528,-1
58 137 m 2,546,-1
 58 178 l 2,547,548
 58 183 58 183 57 184 c 128,-1,549
 56 185 56 185 51 185 c 2,550,-1
 31 185 l 1,551,-1
 31 130 l 1,552,-1
 51 130 l 2,553,554
 56 130 56 130 57 131 c 128,-1,555
 58 132 58 132 58 137 c 2,546,-1
685 886 m 1,556,557
 639 932 639 932 578 958 c 128,-1,558
 517 984 517 984 450 984 c 0,559,560
 365 984 365 984 292 944.5 c 128,-1,561
 219 905 219 905 173 837 c 0,562,563
 107 741 107 741 118 621 c 128,-1,564
 129 501 129 501 214 415 c 0,565,566
 277 353 277 353 361.5 329.5 c 128,-1,567
 446 306 446 306 533 328 c 128,-1,568
 620 350 620 350 685 415 c 1,569,570
 678 423 678 423 668 433 c 128,-1,571
 658 443 658 443 648 452.5 c 128,-1,572
 638 462 638 462 631 470 c 1,573,574
 574 413 574 413 494 398.5 c 128,-1,575
 414 384 414 384 341 419 c 1,576,-1
 341 501 l 1,577,578
 390 465 390 465 450 465 c 0,579,580
 527 465 527 465 581 519.5 c 128,-1,581
 635 574 635 574 635 651 c 128,-1,582
 635 728 635 728 581 782.5 c 128,-1,583
 527 837 527 837 450 837 c 2,584,-1
 273 837 l 1,585,586
 349 909 349 909 453 907.5 c 128,-1,587
 557 906 557 906 631 832 c 1,588,589
 638 840 638 840 648 849.5 c 128,-1,590
 658 859 658 859 668 869 c 128,-1,591
 678 879 678 879 685 886 c 1,556,557
264 474 m 1,592,593
 210 531 210 531 197 609.5 c 128,-1,594
 184 688 184 688 218 760 c 1,595,-1
 450 760 l 2,596,597
 473 760 473 760 493.5 751 c 128,-1,598
 514 742 514 742 528 727 c 128,-1,599
 542 712 542 712 550 692.5 c 128,-1,600
 558 673 558 673 558.5 652.5 c 128,-1,601
 559 632 559 632 551 611 c 128,-1,602
 543 590 543 590 527 574 c 0,603,604
 502 549 502 549 469 543.5 c 128,-1,605
 436 538 436 538 408 550 c 128,-1,606
 380 562 380 562 360.5 589 c 128,-1,607
 341 616 341 616 341 651 c 1,608,-1
 264 651 l 1,609,-1
 264 474 l 1,592,593
EndSplineSet
EndChar

StartChar: three
Encoding: 51 51 24
Width: 842
GlyphClass: 2
Flags: W
LayerCount: 2
Fore
SplineSet
782 240 m 2,0,-1
 60 240 l 2,1,2
 39 240 39 240 24.5 254.5 c 128,-1,3
 10 269 10 269 10 290 c 2,4,-1
 10 1012 l 2,5,6
 10 1032 10 1032 24.5 1047 c 128,-1,7
 39 1062 39 1062 60 1062 c 2,8,-1
 782 1062 l 2,9,10
 802 1062 802 1062 816.5 1047 c 128,-1,11
 831 1032 831 1032 831 1012 c 2,12,-1
 831 290 l 2,13,14
 831 269 831 269 816.5 254.5 c 128,-1,15
 802 240 802 240 782 240 c 2,0,-1
10 1211 m 1,16,-1
 51 1211 l 2,17,18
 69 1211 69 1211 69 1193 c 2,19,-1
 69 1152 l 2,20,21
 69 1135 69 1135 51 1135 c 2,22,-1
 28 1135 l 1,23,-1
 28 1087 l 1,24,-1
 10 1087 l 1,25,-1
 10 1211 l 1,16,-1
51 1155 m 2,26,-1
 51 1191 l 2,27,28
 51 1194 51 1194 50 1195 c 128,-1,29
 49 1196 49 1196 45 1196 c 2,30,-1
 28 1196 l 1,31,-1
 28 1149 l 1,32,-1
 45 1149 l 2,33,34
 49 1149 49 1149 50 1150 c 128,-1,35
 51 1151 51 1151 51 1155 c 2,26,-1
103 1101 m 1,36,-1
 139 1101 l 1,37,-1
 139 1087 l 1,38,-1
 85 1087 l 1,39,-1
 85 1211 l 1,40,-1
 138 1211 l 1,41,-1
 138 1196 l 1,42,-1
 103 1196 l 1,43,-1
 103 1158 l 1,44,-1
 132 1158 l 1,45,-1
 132 1143 l 1,46,-1
 103 1143 l 1,47,-1
 103 1101 l 1,36,-1
171 1137 m 1,48,-1
 171 1087 l 1,49,-1
 153 1087 l 1,50,-1
 153 1211 l 1,51,-1
 194 1211 l 2,52,53
 212 1211 212 1211 212 1193 c 2,54,-1
 212 1154 l 2,55,56
 212 1139 212 1139 199 1137 c 1,57,-1
 218 1087 l 1,58,-1
 199 1087 l 1,59,-1
 181 1137 l 1,60,-1
 171 1137 l 1,48,-1
171 1196 m 1,61,-1
 171 1151 l 1,62,-1
 188 1151 l 2,63,64
 192 1151 192 1151 193 1152 c 128,-1,65
 194 1153 194 1153 194 1157 c 2,66,-1
 194 1191 l 2,67,68
 194 1194 194 1194 193 1195 c 128,-1,69
 192 1196 192 1196 188 1196 c 2,70,-1
 171 1196 l 1,61,-1
267 1107 m 2,71,-1
 267 1137 l 2,72,73
 267 1141 267 1141 266 1142 c 128,-1,74
 265 1143 265 1143 261 1143 c 2,75,-1
 247 1143 l 2,76,77
 229 1143 229 1143 229 1161 c 2,78,-1
 229 1193 l 2,79,80
 229 1211 229 1211 247 1211 c 2,81,-1
 267 1211 l 2,82,83
 285 1211 285 1211 285 1193 c 2,84,-1
 285 1175 l 1,85,-1
 267 1175 l 1,86,-1
 267 1191 l 2,87,88
 267 1194 267 1194 266 1195 c 128,-1,89
 265 1196 265 1196 261 1196 c 2,90,-1
 253 1196 l 2,91,92
 249 1196 249 1196 248 1195 c 128,-1,93
 247 1194 247 1194 247 1191 c 2,94,-1
 247 1163 l 2,95,96
 247 1159 247 1159 248 1158 c 128,-1,97
 249 1157 249 1157 253 1157 c 2,98,-1
 267 1157 l 2,99,100
 286 1157 286 1157 286 1140 c 2,101,-1
 286 1104 l 2,102,103
 286 1087 286 1087 267 1087 c 2,104,-1
 248 1087 l 2,105,106
 229 1087 229 1087 229 1104 c 2,107,-1
 229 1122 l 1,108,-1
 247 1122 l 1,109,-1
 247 1107 l 2,110,111
 247 1103 247 1103 248.5 1102 c 128,-1,112
 250 1101 250 1101 253 1101 c 2,113,-1
 261 1101 l 2,114,115
 265 1101 265 1101 266 1102 c 128,-1,116
 267 1103 267 1103 267 1107 c 2,71,-1
321 1211 m 2,117,-1
 343 1211 l 2,118,119
 361 1211 361 1211 361 1193 c 2,120,-1
 361 1104 l 2,121,122
 361 1087 361 1087 343 1087 c 2,123,-1
 321 1087 l 2,124,125
 302 1087 302 1087 302 1104 c 2,126,-1
 302 1193 l 2,127,128
 302 1211 302 1211 321 1211 c 2,117,-1
343 1107 m 2,129,-1
 343 1191 l 2,130,131
 343 1194 343 1194 342 1195 c 128,-1,132
 341 1196 341 1196 337 1196 c 2,133,-1
 326 1196 l 2,134,135
 322 1196 322 1196 321 1195 c 128,-1,136
 320 1194 320 1194 320 1191 c 2,137,-1
 320 1107 l 2,138,139
 320 1103 320 1103 321 1102 c 128,-1,140
 322 1101 322 1101 326 1101 c 2,141,-1
 337 1101 l 2,142,143
 341 1101 341 1101 342 1102 c 128,-1,144
 343 1103 343 1103 343 1107 c 2,129,-1
425 1211 m 1,145,-1
 442 1211 l 1,146,-1
 442 1087 l 1,147,-1
 424 1087 l 1,148,-1
 398 1176 l 1,149,-1
 398 1087 l 1,150,-1
 381 1087 l 1,151,-1
 381 1211 l 1,152,-1
 400 1211 l 1,153,-1
 425 1124 l 1,154,-1
 425 1211 l 1,145,-1
508 1087 m 1,155,-1
 503 1115 l 1,156,-1
 477 1115 l 1,157,-1
 472 1087 l 1,158,-1
 455 1087 l 1,159,-1
 477 1211 l 1,160,-1
 503 1211 l 1,161,-1
 526 1087 l 1,162,-1
 508 1087 l 1,155,-1
489 1195 m 1,163,-1
 479 1130 l 1,164,-1
 501 1130 l 1,165,-1
 489 1195 l 1,163,-1
557 1101 m 1,166,-1
 587 1101 l 1,167,-1
 587 1087 l 1,168,-1
 539 1087 l 1,169,-1
 539 1211 l 1,170,-1
 557 1211 l 1,171,-1
 557 1101 l 1,166,-1
668 1211 m 1,172,-1
 686 1211 l 1,173,-1
 686 1104 l 2,174,175
 686 1087 686 1087 667 1087 c 2,176,-1
 645 1087 l 2,177,178
 627 1087 627 1087 627 1104 c 2,179,-1
 627 1211 l 1,180,-1
 645 1211 l 1,181,-1
 645 1107 l 2,182,183
 645 1103 645 1103 646 1102 c 128,-1,184
 647 1101 647 1101 651 1101 c 2,185,-1
 662 1101 l 2,186,187
 666 1101 666 1101 667 1102 c 128,-1,188
 668 1103 668 1103 668 1107 c 2,189,-1
 668 1211 l 1,172,-1
742 1107 m 2,190,-1
 742 1137 l 2,191,192
 742 1141 742 1141 741 1142 c 128,-1,193
 740 1143 740 1143 736 1143 c 2,194,-1
 721 1143 l 2,195,196
 703 1143 703 1143 703 1161 c 2,197,-1
 703 1193 l 2,198,199
 703 1211 703 1211 722 1211 c 2,200,-1
 741 1211 l 2,201,202
 760 1211 760 1211 760 1193 c 2,203,-1
 760 1175 l 1,204,-1
 742 1175 l 1,205,-1
 742 1191 l 2,206,207
 742 1194 742 1194 740.5 1195 c 128,-1,208
 739 1196 739 1196 736 1196 c 2,209,-1
 727 1196 l 2,210,211
 724 1196 724 1196 722.5 1195 c 128,-1,212
 721 1194 721 1194 721 1191 c 2,213,-1
 721 1163 l 2,214,215
 721 1159 721 1159 722.5 1158 c 128,-1,216
 724 1157 724 1157 727 1157 c 2,217,-1
 742 1157 l 2,218,219
 760 1157 760 1157 760 1140 c 2,220,-1
 760 1104 l 2,221,222
 760 1087 760 1087 741 1087 c 2,223,-1
 722 1087 l 2,224,225
 704 1087 704 1087 704 1104 c 2,226,-1
 704 1122 l 1,227,-1
 722 1122 l 1,228,-1
 722 1107 l 2,229,230
 722 1103 722 1103 723 1102 c 128,-1,231
 724 1101 724 1101 728 1101 c 2,232,-1
 736 1101 l 2,233,234
 740 1101 740 1101 741 1102 c 128,-1,235
 742 1103 742 1103 742 1107 c 2,190,-1
796 1101 m 1,236,-1
 832 1101 l 1,237,-1
 832 1087 l 1,238,-1
 778 1087 l 1,239,-1
 778 1211 l 1,240,-1
 830 1211 l 1,241,-1
 830 1196 l 1,242,-1
 796 1196 l 1,243,-1
 796 1158 l 1,244,-1
 824 1158 l 1,245,-1
 824 1143 l 1,246,-1
 796 1143 l 1,247,-1
 796 1101 l 1,236,-1
10 202 m 1,248,-1
 58 202 l 2,249,250
 79 202 79 202 79 182 c 2,251,-1
 79 133 l 2,252,253
 79 113 79 113 58 113 c 2,254,-1
 31 113 l 1,255,-1
 31 57 l 1,256,-1
 10 57 l 1,257,-1
 10 202 l 1,248,-1
599 35 m 2,258,-1
 621 35 l 2,259,260
 624 35 624 35 626 33.5 c 128,-1,261
 628 32 628 32 628 29 c 2,262,-1
 628 6 l 2,263,264
 628 4 628 4 626 2 c 128,-1,265
 624 0 624 0 621 0 c 2,266,-1
 599 0 l 2,267,268
 596 0 596 0 594 2 c 128,-1,269
 592 4 592 4 592 6 c 2,270,-1
 592 29 l 2,271,272
 592 32 592 32 594 33.5 c 128,-1,273
 596 35 596 35 599 35 c 2,258,-1
599 5 m 2,274,-1
 621 5 l 2,275,276
 622 5 622 5 622 6 c 2,277,-1
 622 29 l 1,278,279
 622 29.5 l 0,280,281
 622 30 622 30 621 30 c 2,282,-1
 599 30 l 2,283,284
 598 30 598 30 598 29.5 c 0,285,-1
 598 29 l 1,286,-1
 598 6 l 2,287,288
 598 5 598 5 599 5 c 2,274,-1
545 0 m 1,289,-1
 540 0 l 1,290,-1
 540 35 l 1,291,-1
 545 35 l 1,292,-1
 545 0 l 1,289,-1
457 0 m 1,293,-1
 457 35 l 1,294,-1
 486 35 l 2,295,296
 489 35 489 35 491 33.5 c 128,-1,297
 493 32 493 32 493 29 c 2,298,-1
 493 6 l 2,299,300
 493 4 493 4 491 2 c 128,-1,301
 489 0 489 0 486 0 c 2,302,-1
 457 0 l 1,293,-1
488 6 m 1,303,-1
 488 29 l 1,304,-1
 487.5 29.5 l 0,305,306
 487 30 487 30 486 30 c 2,307,-1
 464 30 l 2,308,309
 463 30 463 30 463 29.5 c 0,310,-1
 463 29 l 1,311,-1
 463 6 l 2,312,313
 463 5 463 5 464 5 c 2,314,-1
 486 5 l 2,315,316
 487 5 487 5 487.5 5.5 c 0,317,-1
 488 6 l 1,303,-1
405 6 m 2,318,-1
 405 35 l 1,319,-1
 410 35 l 1,320,-1
 410 6 l 2,321,322
 410 4 410 4 408.5 2 c 128,-1,323
 407 0 407 0 404 0 c 2,324,-1
 381 0 l 2,325,326
 379 0 379 0 377 2 c 128,-1,327
 375 4 375 4 375 6 c 2,328,-1
 375 35 l 1,329,-1
 380 35 l 1,330,-1
 380 6 l 1,331,-1
 380.5 5.5 l 0,332,-1
 381 5 l 1,333,-1
 404 5 l 1,334,335
 405 6 l 2,318,-1
294 35 m 1,336,-1
 330 35 l 1,337,-1
 330 30 l 1,338,-1
 315 30 l 1,339,-1
 315 0 l 1,340,-1
 309 0 l 1,341,-1
 309 30 l 1,342,-1
 294 30 l 1,343,-1
 294 35 l 1,336,-1
249 29 m 2,344,-1
 249 27 l 1,345,-1
 244 27 l 1,346,-1
 244 29 l 1,347,348
 243.5 29.5 l 0,349,-1
 243 30 l 1,350,-1
 220 30 l 2,351,352
 219 29 l 1,353,-1
 219 21 l 1,354,355
 220 21 l 1,356,357
 220 20 l 1,358,-1
 243 20 l 2,359,360
 245 20 245 20 247 18.5 c 128,-1,361
 249 17 249 17 249 14 c 2,362,-1
 249 6 l 2,363,364
 249 4 249 4 247 2 c 128,-1,365
 245 0 245 0 243 0 c 2,366,-1
 220 0 l 2,367,368
 218 0 218 0 216 2 c 128,-1,369
 214 4 214 4 214 6 c 2,370,-1
 214 8 l 1,371,-1
 219 8 l 1,372,-1
 219 6 l 1,373,374
 219.5 5.5 l 0,375,-1
 220 5 l 1,376,-1
 243 5 l 1,377,378
 244 6 l 2,379,-1
 244 14 l 1,380,381
 243.5 14.5 l 0,382,-1
 243 15 l 1,383,-1
 220 15 l 2,384,385
 218 15 218 15 216 17 c 128,-1,386
 214 19 214 19 214 21 c 2,387,-1
 214 29 l 2,388,389
 214 32 214 32 216 33.5 c 128,-1,390
 218 35 218 35 220 35 c 2,391,-1
 243 35 l 2,392,393
 246 35 246 35 247.5 33.5 c 128,-1,394
 249 32 249 32 249 29 c 2,344,-1
796 74 m 1,395,-1
 832 74 l 1,396,-1
 832 57 l 1,397,-1
 775 57 l 1,398,-1
 775 202 l 1,399,-1
 796 202 l 1,400,-1
 796 74 l 1,395,-1
704 202 m 2,401,-1
 730 202 l 2,402,403
 751 202 751 202 751 182 c 2,404,-1
 751 77 l 2,405,406
 751 57 751 57 730 57 c 2,407,-1
 704 57 l 2,408,409
 682 57 682 57 682 77 c 2,410,-1
 682 182 l 2,411,412
 682 202 682 202 704 202 c 2,401,-1
730 80 m 2,413,-1
 730 178 l 2,414,415
 730 183 730 183 729 184 c 128,-1,416
 728 185 728 185 723 185 c 2,417,-1
 710 185 l 2,418,419
 706 185 706 185 704.5 184 c 128,-1,420
 703 183 703 183 703 178 c 2,421,-1
 703 80 l 2,422,423
 703 76 703 76 704.5 75 c 128,-1,424
 706 74 706 74 710 74 c 2,425,-1
 723 74 l 2,426,427
 728 74 728 74 729 75 c 128,-1,428
 730 76 730 76 730 80 c 2,413,-1
670 202 m 1,429,-1
 670 185 l 1,430,-1
 646 185 l 1,431,-1
 646 57 l 1,432,-1
 625 57 l 1,433,-1
 625 185 l 1,434,-1
 600 185 l 1,435,-1
 600 202 l 1,436,-1
 670 202 l 1,429,-1
553 74 m 1,437,-1
 595 74 l 1,438,-1
 595 57 l 1,439,-1
 531 57 l 1,440,-1
 531 202 l 1,441,-1
 593 202 l 1,442,-1
 593 185 l 1,443,-1
 553 185 l 1,444,-1
 553 140 l 1,445,-1
 586 140 l 1,446,-1
 586 123 l 1,447,-1
 553 123 l 1,448,-1
 553 74 l 1,437,-1
511 182 m 2,449,-1
 511 157 l 1,450,-1
 489 157 l 1,451,-1
 489 179 l 2,452,453
 489 183 489 183 488 184.5 c 128,-1,454
 487 186 487 186 483 186 c 2,455,-1
 471 186 l 2,456,457
 467 186 467 186 465.5 184.5 c 128,-1,458
 464 183 464 183 464 179 c 2,459,-1
 464 80 l 2,460,461
 464 76 464 76 465.5 74.5 c 128,-1,462
 467 73 467 73 471 73 c 2,463,-1
 483 73 l 2,464,465
 487 73 487 73 488 74.5 c 128,-1,466
 489 76 489 76 489 80 c 2,467,-1
 489 102 l 1,468,-1
 511 102 l 1,469,-1
 511 77 l 2,470,471
 511 56 511 56 489 56 c 2,472,-1
 464 56 l 2,473,474
 443 56 443 56 443 77 c 2,475,-1
 443 182 l 2,476,477
 443 202 443 202 464 202 c 2,478,-1
 489 202 l 2,479,480
 511 202 511 202 511 182 c 2,449,-1
408 57 m 1,481,-1
 402 90 l 1,482,-1
 371 90 l 1,483,-1
 366 57 l 1,484,-1
 345 57 l 1,485,-1
 371 202 l 1,486,-1
 401 202 l 1,487,-1
 429 57 l 1,488,-1
 408 57 l 1,481,-1
386 184 m 1,489,-1
 374 107 l 1,490,-1
 399 107 l 1,491,-1
 386 184 l 1,489,-1
283 115 m 1,492,-1
 283 57 l 1,493,-1
 262 57 l 1,494,-1
 262 202 l 1,495,-1
 310 202 l 2,496,497
 332 202 332 202 332 182 c 2,498,-1
 332 136 l 2,499,500
 332 118 332 118 316 116 c 1,501,-1
 339 57 l 1,502,-1
 316 57 l 1,503,-1
 295 115 l 1,504,-1
 283 115 l 1,492,-1
283 185 m 1,505,-1
 283 132 l 1,506,-1
 304 132 l 2,507,508
 308 132 308 132 309.5 133.5 c 128,-1,509
 311 135 311 135 311 139 c 2,510,-1
 311 178 l 2,511,512
 311 183 311 183 309.5 184 c 128,-1,513
 308 185 308 185 304 185 c 2,514,-1
 283 185 l 1,505,-1
249 202 m 1,515,-1
 249 185 l 1,516,-1
 225 185 l 1,517,-1
 225 57 l 1,518,-1
 204 57 l 1,519,-1
 204 185 l 1,520,-1
 179 185 l 1,521,-1
 179 202 l 1,522,-1
 249 202 l 1,515,-1
146 202 m 1,523,-1
 167 202 l 1,524,-1
 167 77 l 2,525,526
 167 57 167 57 145 57 c 2,527,-1
 119 57 l 2,528,529
 97 57 97 57 97 77 c 2,530,-1
 97 202 l 1,531,-1
 118 202 l 1,532,-1
 118 80 l 2,533,534
 118 76 118 76 119.5 75 c 128,-1,535
 121 74 121 74 125 74 c 2,536,-1
 139 74 l 2,537,538
 143 74 143 74 144 75 c 0,539,540
 146 76 146 76 146 80 c 2,541,-1
 146 202 l 1,523,-1
58 137 m 2,542,-1
 58 178 l 2,543,544
 58 183 58 183 57 184 c 128,-1,545
 56 185 56 185 51 185 c 2,546,-1
 31 185 l 1,547,-1
 31 130 l 1,548,-1
 51 130 l 2,549,550
 56 130 56 130 57 131 c 128,-1,551
 58 132 58 132 58 137 c 2,542,-1
685 886 m 1,552,553
 639 932 639 932 578 958 c 128,-1,554
 517 984 517 984 450 984 c 0,555,556
 365 984 365 984 292 944.5 c 128,-1,557
 219 905 219 905 173 837 c 0,558,559
 107 741 107 741 118 621 c 128,-1,560
 129 501 129 501 214 415 c 0,561,562
 261 369 261 369 322.5 344 c 128,-1,563
 384 319 384 319 447 318 c 128,-1,564
 510 317 510 317 573 341.5 c 128,-1,565
 636 366 636 366 685 415 c 1,566,567
 631 470 l 1,568,569
 574 413 574 413 494 398.5 c 128,-1,570
 414 384 414 384 341 419 c 1,571,-1
 341 501 l 1,572,573
 389 465 389 465 450 465 c 0,574,575
 527 465 527 465 581 519.5 c 128,-1,576
 635 574 635 574 635 651 c 128,-1,577
 635 728 635 728 581 782.5 c 128,-1,578
 527 837 527 837 450 837 c 2,579,-1
 273 837 l 1,580,581
 349 909 349 909 453 907.5 c 128,-1,582
 557 906 557 906 631 832 c 1,583,584
 685 886 l 1,552,553
264 474 m 1,585,586
 210 531 210 531 197 609.5 c 128,-1,587
 184 688 184 688 218 760 c 1,588,-1
 450 760 l 2,589,590
 478 760 478 760 501.5 747.5 c 128,-1,591
 525 735 525 735 538.5 714 c 128,-1,592
 552 693 552 693 557 669 c 128,-1,593
 562 645 562 645 554.5 619.5 c 128,-1,594
 547 594 547 594 527 574 c 0,595,596
 502 549 502 549 469 543.5 c 128,-1,597
 436 538 436 538 408 550 c 128,-1,598
 380 562 380 562 360.5 589 c 128,-1,599
 341 616 341 616 341 651 c 1,600,-1
 264 651 l 1,601,-1
 264 474 l 1,585,586
EndSplineSet
EndChar

